<svg width="323" height="400" viewBox="0 0 323 400" fill="none" xmlns="http://www.w3.org/2000/svg">
<path fill-rule="evenodd" clip-rule="evenodd" d="M114.928 173.252C116.707 173.141 117.373 173.807 117.373 175.694C117.373 177.026 117.04 178.468 116.595 179.023C116.04 179.467 114.817 178.912 113.705 177.913C112.705 176.804 111.594 176.249 111.26 176.804C110.927 177.248 113.594 180.577 117.151 184.351C120.597 188.124 127.488 193.785 132.379 197.003C137.269 200.222 141.937 203.663 142.716 204.662C143.827 206.215 143.16 207.436 138.381 212.875C135.157 216.315 131.378 221.088 129.711 223.307C128.155 225.638 126.488 227.525 126.043 227.525C125.487 227.525 123.042 223.196 120.597 217.869C118.04 212.431 114.372 205.882 112.483 203.108C110.593 200.333 107.37 196.337 105.258 194.229C103.257 192.12 101.924 191.121 102.479 192.009C102.924 192.897 105.147 196.115 107.259 199.112C109.482 202.109 114.039 210.1 117.373 216.87C120.708 223.529 124.376 229.634 125.487 230.189C127.043 231.188 127.71 230.966 128.822 229.19C129.489 227.969 133.046 223.085 136.825 218.313C141.382 212.32 143.827 209.989 144.605 210.766C145.346 211.58 145.272 213.652 144.383 216.981C143.382 220.311 143.271 222.864 143.938 224.528C144.494 225.86 147.05 228.857 149.496 231.188C152.052 233.407 155.053 237.403 156.276 240.067C157.498 242.619 158.499 245.838 158.499 247.281C158.499 248.835 158.943 249.39 159.721 248.946C160.611 248.391 160.833 246.393 160.388 243.618C159.944 241.176 158.499 237.403 154.275 231.41L157.721 226.97C160.055 224.084 162.056 222.642 163.5 222.753C164.723 222.974 166.724 224.084 167.946 225.305C169.169 226.526 170.836 227.636 171.614 227.525C172.504 227.525 172.948 225.86 172.948 222.864C172.837 218.868 173.615 217.092 177.839 211.987C181.062 208.102 182.84 204.772 182.952 202.886C182.952 201.11 183.174 199.778 183.507 199.778C183.841 199.778 185.286 200.444 186.842 201.221C188.398 201.887 189.621 202.886 189.621 203.441C189.621 203.885 193.733 206.326 198.735 208.99C204.07 211.765 209.405 215.538 211.739 218.202C214.073 220.755 217.63 227.303 220.187 233.629C222.632 239.623 224.744 245.061 224.966 245.505C225.077 245.949 222.299 246.948 218.853 247.614C215.296 248.28 211.406 249.39 210.183 249.945C208.961 250.499 207.293 252.053 206.404 253.385C205.515 254.717 202.736 262.597 200.18 270.81C197.623 279.023 194.178 291.565 192.399 298.557C190.732 305.549 189.065 311.654 188.62 312.098C188.287 312.542 185.175 310.211 181.84 306.881C177.839 302.886 174.727 300.777 172.948 300.777C171.392 300.777 164.167 302.775 156.831 305.327C149.496 307.769 142.493 310.433 141.271 310.988C140.048 311.654 136.269 312.875 132.934 313.763C129.6 314.539 125.376 314.983 123.487 314.65C121.041 314.095 119.596 314.539 117.929 316.204C116.484 317.647 107.259 320.644 90.1418 325.194C76.0258 329.079 63.5771 332.408 62.4656 332.852C60.4649 333.518 60.3537 333.185 61.1318 328.524C61.5764 325.749 62.4656 319.312 63.0213 314.095C63.5771 308.879 64.0217 300.555 64.0217 295.561C64.0217 290.455 63.5771 286.127 62.9102 285.794C62.3544 285.461 61.5764 286.127 61.2429 287.236C60.6872 289.012 60.4649 289.012 56.13 284.684L57.9084 289.678C59.4645 294.229 59.4645 296.226 57.6861 314.095C56.6858 324.75 55.6855 333.629 55.4632 333.851C55.2409 333.962 54.0182 333.407 52.6844 332.519C51.2395 331.632 45.9043 329.634 40.6803 328.191C35.4562 326.637 25.4528 324.528 18.4504 323.529C11.4479 322.42 5.55703 321.532 5.33473 321.421C5.22358 321.31 7.33542 312.098 10.2253 300.777C13.004 289.456 17.5612 273.03 20.3399 264.151C23.0075 255.272 27.0089 244.284 29.2319 239.734C31.3437 235.183 34.9005 228.968 37.1235 226.082C39.3465 223.196 44.2371 218.646 47.905 216.093C51.5729 213.541 62.5767 208.213 72.3579 204.218C82.139 200.222 92.4759 195.561 95.477 193.896C99.0338 191.787 100.59 190.344 100.368 189.012C100.145 187.902 101.368 184.795 103.146 182.131C104.814 179.356 107.592 176.249 109.371 175.25C111.038 174.14 113.483 173.252 114.928 173.252V173.252ZM173.837 190.899C174.282 191.01 175.949 192.453 177.728 194.229C179.395 196.115 180.506 198.335 180.173 199.223C179.839 200.111 179.617 201.887 179.617 203.108C179.617 204.329 177.616 207.991 175.171 211.21C172.726 214.317 170.503 218.313 170.169 220.089C169.614 222.974 169.503 223.085 162.945 219.756L165.057 217.314C166.279 215.871 168.836 211.321 170.725 206.992C173.615 200.555 173.949 198.668 172.948 196.226C172.392 194.451 172.059 192.675 172.392 192.009C172.837 191.343 173.393 190.899 173.837 190.899ZM139.27 339.623C140.048 339.623 147.606 342.508 171.281 352.386L184.619 352.275C191.955 352.275 199.291 351.942 204.07 350.721L203.403 362.708C202.959 369.811 203.181 378.579 203.959 384.573C204.737 390.011 205.626 395.782 206.849 400L190.176 399.223C181.062 398.779 165.279 398.002 155.164 397.447C145.05 396.892 116.707 396.004 47.3492 394.562V390.455C47.3492 386.238 47.3492 386.238 57.1304 381.687C62.4656 379.245 80.1383 370.255 96.5885 361.709C112.927 353.274 126.71 346.282 127.377 346.282C128.044 346.282 130.6 344.728 133.157 342.952C135.713 341.176 138.381 339.623 139.27 339.623Z" fill="#FFCF77"/>
<path fill-rule="evenodd" clip-rule="evenodd" d="M87.5854 0C89.3638 0 91.9202 0.887902 93.4763 1.99778C96.1439 3.77358 96.3662 3.77358 98.7003 1.88679C100.034 0.887902 101.924 0 102.924 0C103.813 0 105.703 0.776914 107.037 1.66482C109.371 3.10766 109.926 3.10766 113.372 1.33185C117.151 -0.554939 117.262 -0.554939 121.153 2.44173C123.375 4.21754 125.598 6.43729 126.154 7.43618C126.932 8.99001 129.155 9.54495 136.38 10.0999C142.16 10.4329 147.606 11.5427 150.718 12.9856C153.497 14.2064 158.61 17.6471 168.613 26.0821L173.282 23.8624C175.838 22.6415 180.173 21.6426 187.953 21.6426L188.287 26.6371C188.509 29.4118 187.842 33.6293 187.064 36.071C185.508 40.2886 185.619 40.6215 188.064 43.5072C189.621 45.394 191.177 49.1676 191.844 52.9412C192.51 56.4928 193.4 59.9334 193.844 60.5993C194.289 61.2653 195.623 63.263 196.845 65.0388C197.957 66.8146 199.179 70.2553 199.402 72.697C199.735 75.1387 199.402 78.2464 198.624 79.5782C197.957 81.0211 196.29 82.5749 194.845 83.1299C192.399 84.0178 192.399 84.2397 193.511 93.6737C194.178 98.8901 194.956 103.219 195.4 103.219C195.956 103.219 198.513 105.216 201.291 107.658C204.07 110.1 206.738 112.098 207.405 112.098C208.071 112.098 208.738 112.875 209.072 113.762C209.405 114.65 208.738 116.315 207.627 117.314C206.515 118.424 204.292 122.309 202.625 125.971C200.736 130.189 199.624 134.517 199.624 137.625C199.624 140.4 198.624 145.616 197.401 149.279C196.178 152.941 193.177 159.045 190.732 162.819C188.287 166.704 184.174 171.92 181.507 174.473C178.839 177.136 175.06 180.022 173.17 180.91C171.17 181.798 169.503 182.908 169.614 183.352C169.614 183.907 170.392 185.683 171.281 187.569C172.17 189.456 172.726 191.343 172.392 192.009C172.059 192.675 172.392 194.451 172.948 196.115C173.949 198.668 173.615 200.555 170.725 206.992C168.836 211.21 166.279 215.871 162.945 219.756L166.279 221.421C169.503 223.085 169.614 222.974 170.169 219.978C170.503 218.313 172.726 214.317 175.171 211.099C177.616 207.991 179.617 204.329 179.617 203.108C179.617 201.887 179.839 200.111 180.173 199.223C180.506 198.335 179.506 196.337 177.95 194.784C176.394 193.23 175.393 191.787 175.727 191.454C176.06 191.121 177.394 191.454 178.728 192.12C180.173 192.897 181.618 194.007 182.062 194.673C182.507 195.338 182.952 198.113 182.952 200.888C182.84 205.105 182.174 206.77 177.839 211.987C173.615 217.092 172.837 218.868 172.948 222.752C172.948 225.86 172.504 227.525 171.503 227.525C170.836 227.636 169.169 226.526 167.946 225.305C166.724 224.084 164.723 222.974 163.5 222.752C162.056 222.641 160.055 224.084 154.275 231.41L156.943 235.294C158.499 237.403 159.944 241.176 160.388 243.618C160.833 246.393 160.611 248.391 159.721 248.946C158.943 249.39 158.499 248.835 158.499 247.281C158.499 245.838 157.498 242.619 156.276 240.067C155.053 237.403 152.052 233.407 149.496 231.077C147.05 228.857 144.494 225.86 143.938 224.417C143.271 222.863 143.382 220.311 144.272 216.981C145.235 213.651 145.346 211.58 144.605 210.766C143.827 209.989 141.382 212.32 136.825 218.313C133.045 223.085 129.489 227.969 128.822 229.19C127.71 230.966 127.043 231.188 125.487 230.189C124.376 229.634 120.708 223.529 117.373 216.87C114.039 210.1 109.482 202.109 107.259 199.112C105.147 196.115 102.924 192.897 102.479 192.009C101.924 191.121 103.257 192.12 105.258 194.229C107.37 196.337 110.593 200.333 112.483 203.108C114.372 205.882 118.04 212.431 120.597 217.869C123.042 223.196 125.487 227.525 125.932 227.525C126.488 227.525 128.155 225.638 129.711 223.307C131.378 221.088 135.157 216.315 138.381 212.764C143.16 207.436 143.827 206.215 142.604 204.661C141.937 203.663 137.269 200.222 132.379 197.003C127.488 193.785 120.597 188.124 117.04 184.351C113.594 180.577 110.927 177.247 111.26 176.693C111.594 176.249 112.705 176.804 113.705 177.913C114.817 178.912 116.04 179.467 116.595 179.023C117.04 178.468 117.373 177.026 117.373 175.694C117.373 173.807 116.707 173.141 114.928 173.141C113.594 173.141 112.816 172.919 113.039 172.586C113.261 172.364 114.706 171.92 116.262 171.698C117.818 171.365 119.93 171.587 120.93 172.142C122.042 172.697 122.931 173.807 122.931 174.473C123.042 175.25 121.819 177.358 117.929 182.353L122.375 186.238C124.82 188.346 130.823 192.675 135.713 195.782C140.604 199.001 145.383 202.553 146.272 203.663C147.161 204.772 147.94 207.658 147.828 210.211C147.717 212.764 147.384 216.759 146.939 219.201C146.161 223.196 146.383 223.973 152.83 230.3L154.609 225.86C155.609 223.418 158.499 219.201 161.166 216.426C163.834 213.651 167.057 209.434 168.502 206.992C170.836 202.886 170.947 202.109 169.725 197.003C168.947 194.007 168.28 189.567 168.169 187.236C167.946 183.574 167.613 183.13 165.723 183.685C164.501 184.129 160.722 184.684 157.387 185.017C154.053 185.35 148.718 185.128 145.717 184.351C142.604 183.685 137.936 181.576 135.157 179.689C131.267 177.026 130.489 176.027 131.489 175.028C132.601 174.029 133.379 174.14 134.824 175.583C135.935 176.582 139.27 178.468 142.382 179.8C146.717 181.687 149.496 182.131 155.164 181.798C160.611 181.354 164.056 180.355 169.503 177.469C173.615 175.361 178.728 171.365 181.507 168.146C184.285 165.15 188.176 159.045 190.287 154.828C192.399 150.61 194.4 144.617 195.4 135.96L190.065 135.849C187.064 135.849 183.619 135.405 182.396 134.961C180.617 134.295 180.062 134.739 179.284 136.959C178.839 138.513 177.283 140.289 175.727 140.954C174.171 141.62 172.059 141.731 170.947 141.398C169.947 141.065 167.946 140.178 166.501 139.512C165.168 138.735 164.056 137.514 164.056 136.848C164.056 136.071 164.501 135.405 165.168 135.405C165.835 135.405 167.946 136.293 170.058 137.403C173.504 139.068 174.06 139.068 175.727 137.625C176.727 136.737 177.505 135.183 177.505 134.295C177.505 133.407 176.394 131.632 175.171 130.411C173.949 129.19 172.837 127.858 172.948 127.414C172.948 126.859 173.726 126.748 174.615 127.081C175.949 127.525 176.172 126.97 175.616 124.639C175.171 122.863 174.282 120.866 173.615 120.089C172.948 119.312 171.614 118.646 170.725 118.646C169.836 118.646 167.835 119.645 166.279 120.755C164.723 121.865 163.056 124.528 162.611 126.637C162.056 128.746 160.833 131.632 159.721 133.185C158.61 134.739 155.609 136.848 153.164 137.958C150.607 138.957 147.05 139.845 145.161 139.845C143.271 139.845 140.048 139.068 137.936 138.18C135.824 137.292 133.045 134.85 131.823 132.963C130.6 130.966 129.6 128.413 129.6 127.414C129.6 126.304 128.933 125.416 128.155 125.416C127.488 125.527 126.043 124.75 125.154 123.751C123.82 122.309 121.041 121.976 111.483 122.087C104.369 122.087 99.5895 122.531 99.5895 123.196C99.5895 123.862 100.145 124.306 100.701 124.306C101.257 124.306 102.368 125.416 103.035 126.859C103.85 128.487 103.887 129.671 103.146 130.411C102.405 131.151 101.442 130.522 100.256 128.524C98.8115 125.971 97.7 125.416 94.032 125.416C90.4752 125.416 89.1414 126.082 87.2519 128.524C85.3624 130.855 85.0289 132.741 85.3624 137.07C85.6958 140.954 86.8073 144.173 89.3638 147.947C91.6979 151.276 94.032 153.385 95.9216 153.829C97.7 154.273 99.8118 154.051 100.701 153.496C101.59 152.941 103.035 152.608 103.702 152.83C104.48 152.941 105.147 154.162 105.147 155.383C105.147 156.604 107.481 160.155 110.371 163.152C113.372 166.26 115.373 169.145 114.928 169.589C114.484 170.033 112.038 169.034 109.593 167.37C107.148 165.594 104.369 162.819 103.48 160.932C102.146 158.269 101.146 157.603 98.1446 157.603C95.6993 157.603 93.254 156.493 90.1418 153.94C87.6965 151.942 84.5843 148.058 83.2505 145.283C81.8056 142.619 80.6941 138.735 80.6941 136.848C80.6941 134.85 79.6937 131.853 78.3599 130.189C77.1373 128.413 75.8035 124.639 75.5812 121.532C75.2478 118.535 74.1363 114.206 73.2471 112.098C72.3579 109.989 71.9133 107.325 72.2467 106.326C72.6913 104.994 72.0244 103.774 70.1349 102.664C68.5788 101.776 66.3558 99.1121 65.2443 96.8923C64.0217 94.4506 62.5767 87.7913 61.7987 81.576C61.1318 75.4717 60.9095 68.4795 61.2429 66.0377C61.6875 63.596 63.0213 59.1565 64.1328 56.0488C65.2443 52.9412 68.1342 48.5017 70.6906 46.0599C73.1359 43.6182 75.1366 40.9545 75.1366 40.2886C75.1366 39.5116 74.5809 38.8457 74.0251 38.8457C73.4694 38.8457 71.5798 40.6215 69.8014 42.8413C66.9116 46.7259 66.6893 46.7259 62.5767 45.616C60.0203 44.8391 57.9084 43.2852 57.0193 41.6204C56.0189 39.5117 56.0189 38.2908 56.9081 36.404C57.6861 34.9612 58.0196 31.6315 57.6861 28.8568C57.2415 24.9723 57.6861 23.1964 59.4645 20.8657C60.7983 19.0899 62.4656 17.758 63.1325 17.758C63.9105 17.758 64.9109 16.3152 65.3555 14.4284C65.9112 12.6526 67.245 10.0999 68.4676 8.87902C69.8014 7.54717 72.1356 6.65927 74.2474 6.65927C76.8039 6.65927 78.9157 5.66038 81.2498 3.32963C83.3617 1.22087 85.6958 0 87.5854 0V0ZM196.401 115.76C197.068 118.868 197.846 122.309 198.068 123.196C198.513 124.639 198.735 124.639 199.624 123.196C200.18 122.309 200.736 119.534 200.736 117.092C200.736 114.206 200.069 111.987 198.846 110.766C197.734 109.656 196.512 108.768 195.956 108.768C195.512 108.768 195.178 108.99 195.178 109.323C195.178 109.656 195.734 112.542 196.401 115.76V115.76ZM110.927 172.031C111.371 172.031 111.816 172.475 111.816 173.141C111.816 173.807 110.482 174.917 108.815 175.694C107.148 176.36 104.48 179.356 102.702 182.353C101.034 185.239 99.923 187.902 100.368 188.235C100.923 188.679 100.59 188.79 99.7007 188.568C98.8115 188.346 97.9223 187.68 97.7 187.014C97.4777 186.348 99.2561 183.13 101.59 179.8C103.924 176.471 106.37 173.696 107.037 173.696C107.703 173.696 108.704 173.363 109.148 172.919C109.593 172.364 110.371 172.031 110.927 172.031V172.031ZM101.257 189.9L99.0338 191.565C97.8111 192.564 94.5878 194.451 91.809 195.893C89.0303 197.225 79.8049 201.221 71.2464 204.661C62.6879 208.102 52.4621 213.097 48.4607 215.76C44.4594 218.535 39.3465 223.085 37.1235 226.082C34.9005 228.968 31.3437 235.183 29.2319 239.734C27.0089 244.284 23.0075 255.272 20.3399 264.151C17.5612 273.03 13.0041 289.456 10.2253 300.777C7.33543 312.098 5.22359 321.31 5.33474 321.421C5.55704 321.532 11.448 322.42 18.4504 323.529C25.4528 324.528 35.4562 326.637 40.6803 328.191C45.9043 329.634 51.2395 331.632 52.5733 332.519C54.0182 333.407 55.2409 333.962 55.4632 333.74C55.6855 333.629 56.6858 324.75 57.6861 314.095C59.4645 296.226 59.4645 294.229 56.1301 284.684L58.353 286.903C60.4649 289.012 60.6872 289.012 61.2429 287.125C61.5764 286.127 62.2433 285.461 62.9102 285.794C63.4659 286.127 64.0217 290.455 64.0217 295.449C64.0217 300.555 63.5771 308.879 63.0213 314.095C62.4656 319.312 61.5764 325.749 61.1318 328.524C60.3537 333.185 60.4649 333.518 62.4656 332.852C63.5771 332.408 76.0258 329.079 90.1418 325.194C107.259 320.644 116.484 317.647 117.929 316.204C119.596 314.539 120.93 314.095 123.487 314.65C125.376 315.094 128.6 314.872 130.711 314.317C132.823 313.651 135.935 312.875 137.603 312.542C139.381 312.209 140.715 312.209 140.715 312.653C140.715 313.208 137.936 314.428 134.379 315.427C130.823 316.426 125.821 317.869 118.485 319.645V324.861C118.596 327.858 119.485 332.63 120.486 335.627C121.486 338.624 123.264 341.62 124.265 342.286C125.821 343.285 127.71 342.73 133.49 339.845C137.491 337.958 141.937 336.293 143.494 336.293C145.05 336.293 149.162 334.961 159.054 330.411L165.946 333.407C169.836 334.961 173.726 336.293 174.615 336.293C175.505 336.293 176.505 335.627 176.727 334.85C177.061 334.184 176.505 332.408 175.616 330.966C174.727 329.634 171.726 327.747 168.724 326.859C165.835 325.971 162.056 325.194 160.166 325.194C158.017 325.194 157.276 324.824 157.943 324.084C158.721 323.307 160.833 323.307 164.612 324.084C167.613 324.75 171.837 326.193 173.726 327.414C175.949 328.746 177.616 330.855 178.061 332.63C178.506 334.702 178.135 336.293 176.95 337.403C175.393 338.846 174.393 338.735 167.946 335.96C163.945 334.295 160.055 332.963 159.277 332.963C158.61 332.963 155.275 334.073 152.052 335.516C148.829 336.848 146.272 338.18 146.272 338.513C146.272 338.846 152.386 341.176 159.833 343.729C167.391 346.282 176.283 348.613 179.617 348.835C182.952 349.057 187.731 348.946 190.176 348.391C192.622 347.947 199.402 347.059 205.182 346.393C210.961 345.727 233.413 343.174 254.976 340.732C276.428 338.291 294.879 336.293 295.768 336.293C296.658 336.293 298.769 335.183 300.325 333.74C302.66 331.742 303.549 329.19 305.327 320.2C306.55 314.095 310.218 293.674 313.552 274.695C316.887 255.716 319.332 240.067 318.999 239.734C318.665 239.401 314.553 239.29 309.884 239.512C305.216 239.734 295.546 240.289 288.544 240.954C281.541 241.509 269.204 242.73 261.312 243.729C253.309 244.617 239.638 246.615 230.746 248.169C221.854 249.612 213.74 251.165 212.629 251.387C211.628 251.72 209.961 253.052 209.072 254.384C208.183 255.827 205.182 264.373 202.403 273.585C199.624 282.686 195.067 299.778 192.288 311.321C189.398 322.863 186.508 334.628 184.174 342.397L184.397 337.958C184.508 335.183 184.063 333.074 182.952 332.186C181.507 330.966 181.507 330.855 183.174 330.744C184.73 330.744 185.508 328.857 186.953 322.087C187.953 317.425 190.399 306.77 192.399 298.557C194.511 290.344 198.179 277.358 200.513 269.7C202.847 262.042 205.515 254.717 206.404 253.385C207.293 252.053 208.961 250.499 210.183 249.944C211.406 249.39 215.296 248.28 218.742 247.614C222.299 246.948 225.077 245.949 224.855 245.505C224.744 245.061 222.632 239.623 220.187 233.629C217.63 227.303 214.073 220.755 211.739 218.202C209.405 215.538 203.959 211.654 198.401 208.768C193.289 205.993 189.732 203.663 190.399 203.441C191.177 203.219 195.178 204.44 199.291 205.993C203.514 207.658 208.627 210.211 210.739 211.765C212.851 213.208 215.963 216.315 217.63 218.535C219.186 220.755 222.41 227.303 224.522 233.074C226.745 238.846 228.968 243.951 229.412 244.395C229.857 244.839 236.415 244.173 244.084 243.063C251.753 241.842 265.313 240.178 274.317 239.179C283.431 238.291 297.991 237.181 306.883 236.626C322.555 235.849 323 235.96 323 238.069C323 239.29 319.777 259.822 315.775 283.574C311.774 307.325 308.106 328.635 307.439 330.744C306.883 332.852 305.327 335.738 303.882 337.07C302.437 338.291 299.325 339.956 296.88 340.511C294.435 341.176 279.652 343.063 235.748 347.725L235.414 360.266C235.303 369.589 234.636 374.029 233.191 377.026C232.191 379.245 228.745 383.019 225.744 385.35C222.632 387.68 217.63 390.122 214.407 390.899C209.405 392.12 208.738 392.675 209.183 394.562C209.516 395.893 209.072 397.336 208.071 398.113C206.515 399.334 206.182 399.112 205.848 397.003C205.515 395.671 204.737 390.011 203.959 384.573C203.181 378.579 202.959 369.811 204.07 350.721L200.958 351.498C199.291 351.942 191.955 352.275 171.281 352.386L155.942 345.949C147.606 342.508 140.048 339.623 139.27 339.623C138.603 339.623 135.824 341.065 133.157 342.952C130.6 344.728 128.044 346.282 127.377 346.282C126.71 346.282 112.927 353.274 96.4773 361.709C80.1383 370.255 62.4656 379.245 47.3492 386.237V390.677C47.3492 393.674 46.9046 395.006 45.9043 394.673C45.2374 394.451 44.6817 392.897 45.0151 387.902L36.4566 388.346C29.343 388.679 27.12 388.346 23.1187 386.348C20.4511 385.017 16.7831 381.798 14.5601 378.69C12.4483 375.805 9.89187 371.254 8.89152 368.479C7.78002 365.372 7.00198 358.823 6.33508 339.068L8.00232 351.831C8.89152 359.045 10.6699 366.815 11.8926 369.589C13.1152 372.364 15.5605 376.36 17.2277 378.468C18.895 380.577 22.1183 383.241 24.3413 384.24C26.6754 385.35 30.5657 386.237 33.1221 386.237C35.7897 386.237 40.6803 385.461 44.0148 384.462C47.3492 383.463 66.2447 374.473 86.0293 364.484C119.263 347.614 121.708 346.171 120.152 344.284C119.263 343.285 117.707 339.845 116.818 336.848C115.928 333.74 115.15 328.968 115.15 325.971C115.15 321.088 114.928 320.755 112.705 321.31C111.26 321.643 96.255 325.527 79.3603 329.967C50.5726 337.403 48.3496 337.847 47.1269 336.071C46.3489 334.961 41.6806 332.852 36.79 331.41C31.8995 329.967 22.3406 327.747 15.6716 326.415C7.44658 324.75 3.11175 324.306 2.3337 325.083C1.5927 325.823 1.77795 326.785 2.88945 327.969C4.33439 329.523 4.33439 329.745 2.66715 329.634C1.55565 329.634 0.444159 329.19 0.11071 328.524C-0.222738 327.858 0.22186 323.529 1.11106 318.757C2.00025 314.095 4.00094 304.994 5.66818 298.557C7.22428 292.12 10.7811 279.245 13.5598 269.922C16.2274 260.71 20.2288 248.724 22.3406 243.285C24.5636 237.958 27.8981 231.188 29.8988 228.191C31.8995 225.194 36.012 220.422 39.1242 217.647C42.2364 214.872 47.2381 211.21 50.2391 209.545C53.2402 207.88 63.6882 203.441 73.4694 199.778C83.2505 196.004 92.4759 192.231 94.032 191.454C95.5881 190.566 97.8111 189.9 101.257 189.9V189.9ZM172.17 300.888C174.282 300.777 176.727 302.22 180.173 305.438C182.952 308.102 185.175 310.544 185.175 310.988C185.175 311.543 182.84 309.878 179.951 307.436C176.95 304.883 173.615 302.886 172.392 302.997C171.17 302.997 164.39 304.772 157.387 306.881C150.385 308.99 144.494 310.544 144.383 310.211C144.16 309.878 146.161 308.879 148.829 307.991C151.385 307.103 157.054 305.105 161.277 303.663C165.612 302.109 170.392 300.888 172.17 300.888V300.888Z" fill="black"/>
<path fill-rule="evenodd" clip-rule="evenodd" d="M170.614 118.757C171.614 118.646 172.948 119.312 173.615 120.089C174.282 120.866 175.171 122.864 175.616 124.528C176.172 126.97 175.949 127.525 174.615 127.081C173.726 126.748 172.948 126.859 172.948 127.414C172.837 127.858 173.949 129.19 175.171 130.411C176.394 131.632 177.505 133.407 177.505 134.295C177.505 135.183 176.727 136.737 175.727 137.625C174.06 139.068 173.504 139.068 170.058 137.403C167.946 136.293 165.835 135.405 165.168 135.405C164.501 135.405 164.056 136.071 164.056 136.848C164.056 137.514 165.168 138.735 166.502 139.512C167.946 140.178 169.947 141.066 170.948 141.399C172.059 141.731 174.171 141.621 175.727 140.955C177.283 140.289 178.839 138.513 179.284 136.959C180.062 134.739 180.618 134.295 182.396 134.961C183.619 135.405 187.064 135.849 195.4 135.96L194.734 141.51C194.4 144.617 192.399 150.611 190.288 154.828C188.176 159.046 184.285 165.15 181.507 168.147C178.728 171.365 173.615 175.361 169.503 177.47C164.056 180.355 160.611 181.354 155.164 181.798C149.496 182.131 146.717 181.687 142.382 179.8C139.27 178.468 135.935 176.582 134.824 175.583C133.379 174.14 132.601 174.029 131.489 175.028C130.489 176.027 131.267 177.026 135.157 179.689C137.936 181.576 142.604 183.685 145.717 184.351C148.718 185.128 154.053 185.35 157.387 185.017C160.722 184.684 164.501 184.129 165.723 183.685C167.613 183.13 167.946 183.574 168.169 187.236C168.28 189.567 168.947 193.896 169.725 197.003C170.948 202.109 170.836 202.886 168.502 206.992C167.057 209.434 163.834 213.652 161.166 216.426C158.499 219.201 155.609 223.418 152.83 230.3L149.496 226.97C146.383 223.973 146.161 223.197 146.939 219.201C147.384 216.759 147.717 212.764 147.828 210.211C147.94 207.658 147.162 204.773 146.272 203.663C145.383 202.553 140.604 199.001 135.713 195.783C130.823 192.675 124.82 188.346 117.929 182.353L120.708 179.245C122.153 177.581 123.264 175.472 123.153 174.695C123.042 173.807 121.264 172.253 119.263 171.032C117.373 169.922 113.372 166.371 110.371 163.263C107.481 160.155 105.147 156.604 105.147 155.383C105.147 154.162 104.48 152.941 103.702 152.83C103.035 152.608 101.59 152.941 100.701 153.496C99.8118 154.051 97.7 154.273 95.9216 153.829C94.0321 153.385 91.6979 151.276 89.3638 147.836C86.8073 144.173 85.6958 140.955 85.3624 137.07C85.0289 132.741 85.3624 130.855 87.2519 128.413C89.1415 126.082 90.4753 125.416 94.0321 125.416C97.7 125.416 98.8115 125.971 100.256 128.413C101.442 130.485 102.405 131.151 103.146 130.411C103.887 129.671 103.85 128.45 103.035 126.748C102.368 125.416 101.257 124.306 100.701 124.306C100.034 124.306 99.5895 123.862 99.5895 123.197C99.5895 122.531 104.369 122.087 111.483 122.087C121.041 121.976 123.82 122.309 125.154 123.751C126.043 124.75 127.488 125.527 128.155 125.416C128.933 125.416 129.6 126.304 129.6 127.303C129.6 128.413 130.6 130.966 131.823 132.852C133.046 134.85 135.824 137.292 137.936 138.18C140.048 139.068 143.271 139.845 145.161 139.845C147.05 139.845 150.607 138.957 153.164 137.847C155.609 136.848 158.61 134.739 159.721 133.185C160.833 131.632 162.056 128.746 162.611 126.637C163.056 124.528 164.723 121.976 166.168 120.755C167.613 119.645 169.614 118.757 170.614 118.757V118.757ZM171.281 182.02C172.281 182.02 172.948 183.019 172.948 184.795C172.948 186.349 172.504 187.569 171.837 187.569C171.17 187.569 170.503 186.793 170.169 185.905C169.836 185.017 169.614 183.796 169.614 183.13C169.614 182.464 170.392 182.02 171.281 182.02ZM171.837 302.997C173.615 302.997 176.394 304.551 179.617 307.325C182.396 309.767 184.841 311.543 185.175 311.21C185.508 310.988 186.397 311.432 187.064 312.431C188.287 313.763 188.176 315.76 186.842 322.42C185.842 327.192 184.619 330.855 183.73 330.855C183.063 330.966 181.284 331.077 179.951 331.188C178.506 331.188 177.394 330.966 177.394 330.411C177.394 329.967 175.727 328.635 173.726 327.414C171.837 326.193 167.613 324.75 164.612 324.084C160.833 323.307 158.721 323.307 158.054 324.084C157.313 324.824 158.054 325.194 160.277 325.194C162.056 325.194 165.835 325.971 168.725 326.859C171.726 327.747 174.727 329.634 175.616 330.966C176.505 332.408 177.061 334.184 176.727 334.85C176.505 335.627 175.505 336.293 174.615 336.293C173.726 336.293 169.836 334.961 159.055 330.411L152.608 333.407C149.162 334.961 145.05 336.293 143.494 336.293C141.937 336.293 137.492 337.958 133.49 339.845C127.71 342.73 125.821 343.285 124.265 342.286C123.264 341.62 121.486 338.624 120.486 335.627C119.485 332.63 118.596 327.858 118.485 319.645L123.153 318.424C125.821 317.869 130.823 316.426 134.379 315.427C137.936 314.428 140.715 312.875 140.715 312.098C140.715 311.432 141.048 310.766 141.493 310.655C142.049 310.655 143.827 310.433 145.717 310.1C147.606 309.878 153.608 308.213 159.055 306.437C164.501 304.662 170.281 303.108 171.837 302.997V302.997ZM113.706 320.866C114.669 320.792 115.15 322.494 115.15 325.971C115.15 328.968 115.929 333.74 116.818 336.848C117.707 339.845 119.263 343.285 120.152 344.284C121.708 346.171 119.263 347.614 85.9181 364.484C66.2447 374.473 47.3493 383.463 44.0148 384.462C40.6803 385.461 35.7897 386.238 33.1221 386.238C30.5657 386.238 26.6755 385.35 24.3413 384.24C22.1183 383.241 18.895 380.577 17.2277 378.468C15.5605 376.36 13.1152 372.364 11.8926 369.589C10.5588 366.482 9.00268 359.046 8.00234 349.834C7.00199 341.842 6.5574 334.406 7.00199 333.407C7.66889 332.187 6.89084 330.855 4.5567 329.079C2.22256 327.303 1.55567 326.082 2.33371 325.194C3.11176 324.306 6.66854 324.639 15.6717 326.415C22.3406 327.747 31.8995 329.967 36.7901 331.41C41.6806 332.852 46.3489 334.961 47.127 336.071C48.3496 337.847 50.4614 337.403 78.2488 330.3C94.5878 326.082 108.926 322.309 110.149 321.754C111.371 321.31 113.039 320.866 113.706 320.866V320.866Z" fill="#AE5D29"/>
<path d="M290.211 240.844C298.769 240.178 308.551 239.512 311.885 239.401C315.219 239.29 318.332 239.401 318.776 239.734C319.221 240.067 316.887 255.827 313.552 274.695C310.218 293.674 306.55 314.096 305.327 320.2C303.549 329.19 302.66 331.743 300.325 333.851C298.769 335.183 296.658 336.293 295.768 336.293C294.879 336.293 276.428 338.291 254.976 340.733C233.413 343.174 210.961 345.727 205.182 346.393C199.402 347.059 192.622 347.947 190.176 348.391C187.731 348.946 182.952 349.057 179.617 348.835C176.283 348.613 167.391 346.282 159.833 343.729C152.385 341.177 146.272 338.846 146.272 338.513C146.272 338.18 148.829 336.848 152.052 335.516C155.275 334.073 158.61 332.963 159.277 332.963C160.055 332.963 163.945 334.295 167.835 336.071C174.282 338.735 175.171 338.846 176.838 337.403C177.839 336.515 178.617 334.628 178.506 333.296C178.506 330.966 178.839 330.855 181.618 331.854C184.285 332.852 184.619 333.518 184.174 342.397L185.619 337.403C186.508 334.628 189.398 322.975 192.288 311.322L192.288 311.321C195.067 299.778 199.624 282.797 202.403 273.585C205.182 264.484 208.183 255.827 209.072 254.495C209.961 253.052 211.628 251.72 212.629 251.387C213.74 251.165 221.854 249.612 230.746 248.169C239.638 246.615 253.087 244.617 260.756 243.729C268.426 242.841 281.652 241.51 290.211 240.844Z" fill="white"/>
<path d="M99.0337 138.402C96.255 137.07 94.032 135.627 94.032 135.183V135.072C94.032 134.628 94.8101 134.295 95.6993 134.295C96.5885 134.295 98.8114 135.072 100.701 135.96C102.591 136.848 104.035 138.402 104.035 139.29C104.035 140.621 103.146 140.51 99.0337 138.402Z" fill="black"/>
<path d="M166.279 154.384C165.057 153.718 164.167 152.497 164.278 151.498C164.39 150.277 164.945 149.944 166.168 150.499C167.168 151.054 168.724 151.276 169.614 151.276C170.503 151.165 172.948 150.832 174.838 150.499C177.616 150.055 178.506 150.388 178.506 151.609C178.506 152.497 177.505 153.718 176.283 154.384C175.06 155.05 172.837 155.494 171.281 155.494C169.725 155.494 167.502 155.05 166.279 154.384Z" fill="black"/>
<path d="M71.4687 255.716C69.6903 244.839 68.023 234.517 67.8007 232.63L67.3561 229.301L69.0234 232.852C69.9126 234.85 71.691 241.398 72.9136 247.281C74.0251 253.274 75.4701 262.042 75.9147 266.815C76.4704 272.364 76.3592 275.361 75.6924 275.361C75.0255 275.361 73.1359 266.482 71.4687 255.716Z" fill="black"/>
<path d="M88.0299 264.262C87.8076 263.929 87.363 257.825 87.0296 250.61C86.8073 243.507 86.9184 237.625 87.4742 237.625C88.0299 237.625 88.808 238.957 89.2526 240.621C89.6972 242.397 90.1418 248.058 90.1418 253.385C90.1418 258.601 89.6972 263.374 89.2526 263.929C88.808 264.373 88.2522 264.595 88.0299 264.262Z" fill="black"/>
<path d="M156.276 312.653C156.609 312.32 159.054 311.543 161.833 310.988C164.612 310.433 169.169 309.989 172.059 309.878C175.838 309.767 178.506 310.544 181.284 312.209C183.396 313.651 185.175 315.094 185.175 315.538C185.175 316.093 184.952 316.426 184.619 316.426C184.285 316.426 182.396 315.316 180.395 313.984C178.394 312.653 175.282 311.543 173.504 311.543C171.614 311.432 166.946 311.876 162.945 312.32C158.943 312.874 155.942 312.985 156.276 312.653Z" fill="black"/>
<path d="M177.95 321.976C176.727 320.866 174.171 319.756 172.392 319.423C169.391 318.979 169.391 318.979 173.17 318.757C175.505 318.757 177.616 319.09 177.95 319.756C178.283 320.422 180.062 321.865 182.062 323.196C185.175 325.083 185.286 325.416 182.952 324.75C181.396 324.306 179.173 323.085 177.95 321.976Z" fill="black"/>
<path d="M119.485 375.583C121.486 372.031 125.932 365.261 129.378 360.488C132.712 355.716 135.713 352.053 135.824 352.386C136.047 352.719 134.157 357.048 131.489 362.042C128.933 366.926 124.709 373.696 122.042 377.025C119.485 380.355 116.929 382.797 116.484 382.464C116.04 382.242 117.373 379.134 119.485 375.583Z" fill="black"/>
<path d="M107.259 97.1144C110.371 92.8969 114.372 87.2365 116.373 84.5728L119.93 79.8003L122.486 82.575C125.043 85.3497 125.71 85.4607 134.379 85.1277C139.381 84.9057 144.272 84.2398 145.161 83.6849C146.05 83.2409 149.607 82.908 152.941 83.1299C157.498 83.3519 159.388 83.0189 160.499 81.6871C161.166 80.6882 162.5 80.2442 163.278 80.5772C163.945 81.0212 167.168 81.5761 170.169 81.7981C173.282 82.02 176.727 82.242 177.95 82.242C179.172 82.242 182.285 82.464 189.621 83.2409V93.2298C189.621 98.7792 189.176 103.441 188.509 103.774C187.842 104.107 185.73 103.774 183.841 103.108C181.84 102.442 179.061 102.109 177.728 102.553C176.283 102.886 175.171 103.996 175.171 104.884C175.171 105.771 176.171 106.992 179.617 108.768L177.394 111.543C175.505 113.874 174.06 114.428 168.28 114.761C161.833 115.094 161.055 114.872 158.832 112.209C156.72 109.767 156.609 109.101 157.943 107.88C158.832 107.214 159.388 105.993 159.054 105.438C158.721 104.773 156.609 104.329 154.386 104.329C152.052 104.329 147.495 105.216 144.16 106.326C140.715 107.436 135.157 110.655 130.822 114.096C123.598 119.867 123.375 119.867 116.262 119.756C112.261 119.756 106.814 119.312 104.035 118.979C100.256 118.424 98.9226 117.647 98.7003 115.982C98.478 114.761 99.0337 111.765 100.034 109.323C100.923 106.881 104.258 101.332 107.259 97.1144Z" fill="#AE5D29"/>
<path d="M180.173 118.202C179.839 117.314 180.84 114.761 182.396 112.653C183.952 110.544 186.064 108.768 187.175 108.657C188.176 108.657 189.621 109.323 190.287 110.1C190.954 110.877 192.288 115.76 193.288 120.977C194.289 126.193 195.178 130.633 195.178 130.966C195.178 131.299 193.844 132.187 192.177 132.963C190.102 133.925 188.139 134.073 186.286 133.407C184.73 132.852 182.396 130.966 180.951 129.19C179.506 127.414 178.394 125.305 178.506 124.528C178.506 123.529 179.728 123.418 182.618 123.862C186.175 124.528 187.064 124.195 188.731 121.976C189.843 120.533 190.732 118.979 190.732 118.424C190.732 117.98 190.065 117.647 189.287 117.647C188.509 117.647 187.064 118.535 185.953 119.645C184.841 120.755 183.396 121.199 182.396 120.644C181.507 120.2 180.506 119.09 180.173 118.202Z" fill="#AE5D29"/>
<path d="M134.268 117.092C135.157 115.871 137.491 113.985 139.603 112.875C141.715 111.876 145.494 110.988 147.939 110.988C150.718 110.877 153.497 111.765 155.387 113.208C157.276 114.428 158.721 116.87 159.166 118.979C159.499 120.977 159.499 124.306 159.166 126.193C158.832 128.191 156.943 131.299 155.164 133.185C153.275 134.961 150.162 136.848 148.162 137.181C146.161 137.514 142.715 137.292 140.381 136.626C137.714 135.849 135.491 134.073 133.935 131.743C132.267 129.079 131.823 127.081 132.267 123.751C132.601 121.31 133.49 118.313 134.268 117.092Z" fill="#AE5D29"/>
<path d="M206.293 351.387C207.182 351.054 211.406 350.278 215.741 349.723C219.964 349.168 225.633 348.724 228.189 348.613C232.747 348.502 232.969 348.613 232.413 351.498C232.08 353.274 231.079 359.046 230.079 364.595C228.523 373.474 227.856 375.028 224.299 378.801C221.965 381.132 218.297 384.018 215.963 385.239C213.74 386.349 211.072 387.347 210.183 387.347C209.294 387.347 207.96 386.127 207.404 384.573C206.738 383.019 205.848 375.028 205.404 366.815C204.737 354.051 204.848 351.831 206.293 351.387Z" fill="#AE5D29"/>
<path d="M166.501 33.2964C169.391 31.1876 173.837 28.5239 176.505 27.525C179.173 26.5261 181.951 25.7492 182.84 25.8602C183.952 26.0822 184.397 27.414 184.174 29.9667C184.063 32.0755 182.618 36.515 180.951 39.8446C179.284 43.2853 176.171 47.1698 173.837 48.8347C170.725 51.0544 168.724 51.7203 165.279 51.3874C162.167 51.1654 160.722 50.4995 160.722 49.3896C160.722 48.5017 161.389 47.7248 162.167 47.7248C162.834 47.7248 165.835 46.7259 168.836 45.505C171.726 44.2842 174.06 42.5084 174.06 41.6204C174.06 40.7325 173.282 39.9556 172.392 39.9556C171.503 39.9556 169.058 40.7325 167.168 41.7314C165.168 42.7303 162.611 44.3951 161.611 45.394C159.721 47.0588 159.61 47.0588 158.832 44.9501C158.499 43.7292 158.832 41.5095 159.721 39.9556C160.611 38.4018 163.723 35.4051 166.501 33.2964Z" fill="#9FD8E5"/>
<path d="M94.3655 39.4007C96.255 39.0677 99.4783 38.7348 101.257 38.5128C103.146 38.2908 106.814 38.2908 109.593 38.6238C112.372 38.8458 116.373 39.6227 118.485 40.1776C120.597 40.8435 124.265 42.2864 126.599 43.3963C128.822 44.6171 130.489 46.06 130.156 46.6149C129.822 47.2808 127.599 47.3918 124.932 47.0588C122.264 46.6149 118.818 46.6149 117.151 47.0588C115.373 47.3918 114.15 48.3907 114.372 49.1676C114.706 50.0555 116.484 50.3885 120.263 50.0555C123.264 49.8335 126.71 50.2775 128.044 50.9434C129.378 51.7203 130.378 53.4961 130.489 55.2719C130.711 58.0466 130.378 58.3796 125.487 59.1565C122.486 59.6005 117.485 59.9334 114.372 59.9334C111.038 59.9334 106.703 59.0455 104.48 58.0466C102.257 56.9368 99.3672 54.606 97.9223 52.7192C96.5885 50.8324 94.3655 47.2808 90.6975 39.9556L94.3655 39.4007Z" fill="#9FD8E5"/>
<path d="M145.717 46.06C145.383 45.1721 144.827 43.6182 144.383 42.7303C143.938 41.5095 144.494 41.0655 146.606 41.0655C148.273 41.0655 150.607 41.6204 151.83 42.1754C153.052 42.7303 154.831 44.8391 155.72 46.6149C156.609 48.5017 157.387 50.4995 157.387 51.0544C157.387 51.6093 156.276 52.3863 154.942 52.7192C153.497 53.0522 148.94 54.939 144.827 56.9368C137.269 60.4884 137.158 60.4884 135.602 58.2686C134.713 57.0477 134.046 54.717 134.046 53.0522C134.046 51.2764 134.824 48.5017 135.713 46.6149C136.713 44.8391 138.158 43.2853 139.048 43.2853C139.937 43.2853 141.382 44.2842 142.16 45.505C142.827 46.7259 144.16 47.7248 144.938 47.7248C145.605 47.7248 146.05 46.9479 145.717 46.06Z" fill="#9FD8E5"/>
<path d="M179.395 51.4984C178.839 51.2764 179.617 49.6116 180.951 47.7248C182.285 45.949 183.619 44.3951 183.952 44.3951C184.285 44.3951 185.286 45.616 186.064 47.1698C186.731 48.7237 187.398 50.7214 187.398 51.6093C187.398 52.9412 186.508 53.1632 183.841 52.6082L183.841 52.6082C181.84 52.1643 179.839 51.7203 179.395 51.4984Z" fill="#9FD8E5"/>
<path d="M88.4745 82.464C90.9198 79.2453 96.3662 73.6959 100.701 70.2553L108.481 63.818L119.041 63.596C124.82 63.3741 129.6 63.596 129.6 64.151C129.6 64.5949 127.71 66.1487 125.487 67.7026C123.264 69.2564 119.374 73.03 116.818 76.0267C114.261 79.1343 109.593 85.3496 106.592 89.9001C103.48 94.4506 99.7006 100.888 98.0334 104.107C96.4773 107.214 94.8101 112.098 94.3655 114.872C93.6986 118.424 92.9205 119.978 91.2533 120.422C90.0306 120.644 88.3634 120.977 87.6965 120.977C86.9185 120.977 86.2516 119.645 86.2516 117.98C86.2516 116.204 87.0296 112.098 88.03 108.768C88.9191 105.438 91.4756 100 93.5874 96.8924C95.6993 93.6737 97.1442 90.4551 96.8108 89.9001C96.4773 89.2342 94.9212 89.9001 93.3651 91.343C91.809 92.6748 89.1414 96.0045 87.5854 98.7792C86.0293 101.554 84.5843 105.549 84.362 107.658C84.2509 109.767 83.3617 112.32 82.4725 113.208C81.1387 114.65 80.6941 114.539 79.0268 112.098C77.8042 110.1 77.4708 108.213 78.0265 105.438C78.3599 103.33 79.916 98.5572 81.4721 94.8946C82.9171 91.232 86.1404 85.5716 88.4745 82.464Z" fill="#9FD8E5"/>
<path d="M148.162 125.083C149.273 124.972 150.829 123.418 151.607 121.754C152.385 120.089 153.719 118.757 154.608 118.757C155.498 118.757 156.276 119.645 156.276 120.755C156.387 121.754 155.387 123.973 154.053 125.749C152.719 127.636 150.829 128.746 149.051 128.746C147.495 128.746 145.494 128.413 144.494 127.969C143.494 127.414 141.826 125.638 140.937 123.973C139.937 122.197 139.492 120.533 139.937 120.311C140.381 120.089 141.937 121.088 143.494 122.641C145.05 124.195 147.161 125.305 148.162 125.083Z" fill="black"/>
</svg>
