<svg width="1038" height="418" viewBox="0 0 1038 418" fill="none" xmlns="http://www.w3.org/2000/svg">
<g clip-path="url(#clip0_55_2)">
<path d="M841.127 49.0791L875.089 15.16C876.196 14.0172 877.519 13.1061 878.982 12.4797C880.444 11.8534 882.017 11.5243 883.608 11.5117C885.199 11.499 886.777 11.8031 888.249 12.4061C889.721 13.0092 891.059 13.8991 892.184 15.0242C893.309 16.1492 894.199 17.4869 894.802 18.9593C895.405 20.4316 895.709 22.0093 895.697 23.6003C895.684 25.1913 895.355 26.764 894.729 28.2266C894.102 29.6892 893.191 31.0125 892.048 32.1196L858.129 66.1229" stroke="#A32B00" stroke-width="6" stroke-linecap="round" stroke-linejoin="round"/>
<path d="M832.753 61.8725C825.767 61.8725 820.128 67.5537 820.128 74.5817C820.128 80.1787 809.607 80.9783 811.711 83.0825C816.256 87.7117 822.19 91.5833 828.545 91.5833C837.803 91.5833 845.378 84.0083 845.378 74.5817C845.384 72.9182 845.061 71.2699 844.43 69.731C843.798 68.192 842.87 66.7925 841.698 65.6123C840.525 64.4322 839.132 63.4945 837.597 62.8528C836.063 62.2111 834.416 61.878 832.753 61.8725Z" stroke="#A32B00" stroke-width="6" stroke-linecap="round" stroke-linejoin="round"/>
<path d="M833.56 177.856C834.84 179.477 836.888 182.507 839.704 186.944C843.032 192.235 844.696 196.715 844.696 200.384C844.696 203.371 843.715 205.632 841.752 207.168C839.789 208.619 837.485 209.344 834.84 209.344C832.365 209.344 829.848 208.32 827.288 206.272C824.813 204.224 822.211 201.451 819.48 197.952C816.579 194.112 814.659 191.381 813.72 189.76C812.611 190.187 811.373 190.613 810.008 191.04C809.411 197.44 808.216 202.091 806.424 204.992C804.632 207.893 801.901 209.344 798.232 209.344C794.477 209.344 791.491 207.808 789.272 204.736C787.053 201.664 785.432 196.885 784.408 190.4C783.469 183.915 783 175.339 783 164.672C783 154.517 783.299 146.368 783.896 140.224C784.579 133.995 786.029 129.088 788.248 125.504C790.467 121.835 793.795 120 798.232 120C801.901 120 804.632 121.28 806.424 123.84C808.301 126.4 809.496 129.941 810.008 134.464C810.605 138.901 810.904 144.875 810.904 152.384V160.448L811.288 160.192C816.237 156.864 820.589 154.261 824.344 152.384C828.184 150.507 831.64 149.568 834.712 149.568C838.211 149.568 840.941 150.763 842.904 153.152C844.952 155.456 845.976 158.059 845.976 160.96C845.976 164.032 844.952 166.848 842.904 169.408C840.856 171.968 837.741 174.784 833.56 177.856Z" fill="#BC6747"/>
<path d="M121.519 171.764L107.925 221.604" stroke="#BC6747" stroke-width="6" stroke-linecap="round" stroke-linejoin="round"/>
<path d="M50.2359 154.245C49.316 153.325 48.5864 152.233 48.0885 151.031C47.5907 149.83 47.3345 148.541 47.3345 147.241C47.3345 145.94 47.5907 144.652 48.0885 143.45C48.5864 142.248 49.316 141.156 50.2359 140.236C51.1558 139.316 52.2478 138.586 53.4497 138.089C54.6515 137.591 55.9397 137.334 57.2406 137.334C58.5415 137.334 59.8296 137.591 61.0315 138.089C62.2333 138.586 63.3254 139.316 64.2452 140.236L83.0006 158.987C83.4381 159.424 84.0315 159.67 84.6502 159.67C85.2689 159.67 85.8623 159.424 86.2999 158.987L90.7052 154.581C92.8143 152.472 95.6747 151.288 98.6572 151.288C101.64 151.288 104.5 152.472 106.609 154.581L111.015 158.987C111.452 159.424 111.698 160.018 111.698 160.636C111.698 161.255 111.452 161.848 111.015 162.286L72.2906 201.015C71.853 201.452 71.2596 201.698 70.6409 201.698C70.0222 201.698 69.4288 201.452 68.9912 201.015L64.5859 196.609C62.4771 194.5 61.2924 191.64 61.2924 188.657C61.2924 185.675 62.4771 182.814 64.5859 180.705L68.9912 176.3C69.4287 175.862 69.6744 175.269 69.6744 174.65C69.6744 174.032 69.4287 173.438 68.9912 173.001L50.2359 154.245Z" stroke="#BC6747" stroke-width="6" stroke-linecap="round" stroke-linejoin="round"/>
<path d="M75.3335 198C87.9802 206.419 91.4802 216.527 93.7575 228.721C93.8313 229.125 94.0094 229.503 94.274 229.818C94.5386 230.133 94.8806 230.373 95.2665 230.516C95.6523 230.658 96.0685 230.697 96.4741 230.629C96.8797 230.562 97.2607 230.39 97.5795 230.13L139.033 195.97C139.77 195.276 140.262 194.361 140.434 193.364C140.605 192.367 140.448 191.34 139.985 190.44C133.223 180.57 116.363 165.333 108 165.333" stroke="#BC6747" stroke-width="6" stroke-linecap="round" stroke-linejoin="round"/>
<path d="M114.25 328.167C115.4 328.167 116.333 327.234 116.333 326.083C116.333 324.933 115.4 324 114.25 324C113.099 324 112.167 324.933 112.167 326.083C112.167 327.234 113.099 328.167 114.25 328.167Z" fill="#A32B00" stroke="#A32B00" stroke-width="6" stroke-linecap="round" stroke-linejoin="round"/>
<path d="M130.917 344.833C132.067 344.833 133 343.901 133 342.75C133 341.599 132.067 340.667 130.917 340.667C129.766 340.667 128.833 341.599 128.833 342.75C128.833 343.901 129.766 344.833 130.917 344.833Z" fill="#A32B00" stroke="#A32B00" stroke-width="6" stroke-linecap="round" stroke-linejoin="round"/>
<path d="M93.4168 332.333C94.5674 332.333 95.5002 331.401 95.5002 330.25C95.5002 329.099 94.5674 328.167 93.4168 328.167C92.2662 328.167 91.3335 329.099 91.3335 330.25C91.3335 331.401 92.2662 332.333 93.4168 332.333Z" fill="#A32B00" stroke="#A32B00" stroke-width="6" stroke-linecap="round" stroke-linejoin="round"/>
<path d="M85.0833 353.167C86.2339 353.167 87.1667 352.234 87.1667 351.083C87.1667 349.933 86.2339 349 85.0833 349C83.9327 349 83 349.933 83 351.083C83 352.234 83.9327 353.167 85.0833 353.167Z" fill="#A32B00" stroke="#A32B00" stroke-width="6" stroke-linecap="round" stroke-linejoin="round"/>
<path d="M108 307.333C85.0835 307.333 66.3335 326.083 66.3335 349C66.3335 371.917 85.0835 390.667 108 390.667C111.858 390.667 114.867 387.558 114.867 383.633C114.867 381.812 114.117 380.154 113.046 378.946C111.838 377.742 111.221 376.229 111.221 374.258C111.205 373.341 111.374 372.43 111.718 371.58C112.062 370.73 112.573 369.957 113.221 369.309C113.87 368.66 114.642 368.149 115.493 367.805C116.343 367.461 117.254 367.292 118.171 367.308H126.488C139.2 367.308 149.633 356.879 149.633 344.167C149.521 324.05 130.754 307.333 108 307.333Z" stroke="#A32B00" stroke-width="6" stroke-linecap="round" stroke-linejoin="round"/>
<path d="M772.461 33.5251L772.418 33.5211" stroke="#BC6747" stroke-width="6" stroke-linecap="round" stroke-linejoin="round"/>
<path d="M754.33 40.5589L754.286 40.5548" stroke="#BC6747" stroke-width="6" stroke-linecap="round" stroke-linejoin="round"/>
<path d="M736.197 47.5927L736.154 47.5886" stroke="#BC6747" stroke-width="6" stroke-linecap="round" stroke-linejoin="round"/>
<path d="M770.836 50.8444L770.793 50.8403" stroke="#BC6747" stroke-width="6" stroke-linecap="round" stroke-linejoin="round"/>
<path d="M752.704 57.8781L752.66 57.8741" stroke="#BC6747" stroke-width="6" stroke-linecap="round" stroke-linejoin="round"/>
<path d="M769.21 68.1636L769.167 68.1595" stroke="#BC6747" stroke-width="6" stroke-linecap="round" stroke-linejoin="round"/>
<path d="M702.372 35.6813L719.691 37.3072L718.065 54.6264L700.746 53.0005L702.372 35.6813Z" stroke="#BC6747" stroke-width="6" stroke-linecap="round" stroke-linejoin="round"/>
<path d="M700.746 53.0005L691.273 60.8472L687.209 104.145C686.965 106.743 688.534 108.638 691.132 108.882L717.111 111.32C719.709 111.564 721.603 109.995 721.847 107.397L725.912 64.0989L718.065 54.6264" stroke="#BC6747" stroke-width="6" stroke-linecap="round" stroke-linejoin="round"/>
<path d="M724.692 77.0883L690.867 65.177" stroke="#BC6747" stroke-width="6" stroke-linecap="round" stroke-linejoin="round"/>
<path d="M722.66 98.7373L688.835 86.826" stroke="#BC6747" stroke-width="6" stroke-linecap="round" stroke-linejoin="round"/>
<path d="M618.83 131.69C615.204 131.124 610.859 128.805 605.795 124.732C600.828 120.588 593.716 113.864 584.46 104.559C579.767 99.7672 576.703 95.8774 575.27 92.8898C573.934 89.831 573.549 86.4889 574.115 82.8635C574.628 79.5754 576.036 76.6428 578.339 74.0658C580.725 71.502 584.885 68.0923 590.818 63.8366C597.921 58.7271 605.038 54.3541 612.17 50.7174C619.386 47.0939 625.101 45.6113 629.317 46.2695C632.689 46.7961 635.411 48.1711 637.482 50.3946C639.638 52.6312 640.446 55.4779 639.906 58.9347C639.524 61.3797 638.55 63.4731 636.982 65.2148C635.512 66.8854 633.445 68.5059 630.782 70.0765C628.203 71.6602 623.906 74.0122 617.891 77.1323C613.02 79.5673 608.366 81.993 603.929 84.4095C602.422 85.2106 601.61 85.9906 601.491 86.7494C601.373 87.5082 601.922 88.4145 603.139 89.4682C611.065 96.2333 616.899 101.463 620.641 105.156C624.48 108.778 627.207 112.054 628.822 114.984C630.438 117.913 631.022 120.812 630.574 123.678C630.127 126.545 628.753 128.705 626.453 130.16C624.237 131.628 621.696 132.138 618.83 131.69Z" fill="#A32B00"/>
<path d="M961.333 55.4497C964.531 48.2399 970.954 43.9697 980.601 42.6392C989.823 41.3674 996.929 43.6278 1001.92 49.4202C1007.05 55.193 1010.24 62.602 1011.49 71.6471C1012.52 79.1375 1012.97 87.5738 1012.81 96.9558C1012.64 106.197 1011.78 114.597 1010.22 122.157C1009.43 125.866 1007.66 129.279 1004.91 132.394C1002.28 135.349 998.552 137.159 993.728 137.824C988.904 138.49 984.757 137.766 981.285 135.652C977.793 133.397 975.165 130.591 973.401 127.234C969.873 120.52 966.795 112.879 964.168 104.313C961.521 95.6046 959.701 87.6466 958.707 80.4388C957.382 70.8284 958.257 62.4987 961.333 55.4497ZM1015.34 181.29C1011.54 186.278 1006.67 189.183 1000.71 190.004C994.749 190.826 989.268 189.35 984.266 185.575C979.264 181.8 976.353 176.945 975.535 171.009C974.716 165.073 976.204 159.612 979.998 154.624C983.791 149.636 988.668 146.731 994.626 145.91C1000.58 145.088 1006.07 146.564 1011.07 150.339C1016.07 154.114 1018.98 158.969 1019.8 164.905C1020.62 170.841 1019.13 176.302 1015.34 181.29Z" fill="#BC6747"/>
<path d="M224.731 334.072C208.945 336.624 195.419 335.172 184.153 329.718C172.855 324.06 166.109 314.445 163.915 300.872C162.016 289.122 165.67 278.969 174.879 270.412C184.087 261.856 196.382 256.335 211.764 253.848C217.431 252.932 222.775 252.588 227.796 252.816C232.987 252.809 236.591 253.265 238.609 254.186C237.79 249.122 234.994 245.312 230.22 242.758C225.413 240.001 218.658 239.326 209.955 240.733C206.11 241.354 203.022 242.165 200.692 243.165C198.361 244.166 195.877 245.503 193.24 247.176C190.603 248.85 188.12 250.187 185.789 251.187C183.661 252.155 180.674 252.949 176.829 253.571C170.353 254.618 165.031 253.815 160.864 251.162C156.664 248.307 154.008 243.436 152.894 236.548C151.617 228.647 153.37 221.504 158.153 215.118C163.138 208.699 169.769 203.47 178.046 199.43C186.29 195.187 194.764 192.362 203.467 190.955C220.67 188.174 235.564 189.093 248.148 193.711C260.901 198.094 270.862 205.111 278.029 214.762C285.399 224.38 290.115 235.571 292.178 248.334C293.292 255.222 293.716 261.701 293.451 267.772C293.389 273.811 292.709 278.598 291.412 282.134C294.638 284.107 297.221 286.6 299.162 289.612C301.305 292.592 302.655 295.804 303.212 299.247C304.161 305.122 302.956 310.514 299.596 315.423C296.438 320.299 291.621 323.26 285.145 324.307C280.287 325.092 276.226 325.021 272.961 324.094C269.696 323.166 266.098 321.461 262.166 318.979C257.597 322.835 252.392 325.963 246.549 328.363C240.909 330.73 233.637 332.633 224.731 334.072ZM225.842 302.399C230.092 301.712 233.284 300.261 235.418 298.045C237.755 295.796 238.71 293.355 238.284 290.722C237.859 288.088 236.183 286.072 233.257 284.674C230.534 283.243 227.047 282.872 222.797 283.559C218.546 284.246 215.253 285.713 212.917 287.962C210.783 290.178 209.929 292.603 210.354 295.236C210.78 297.87 212.355 299.902 215.078 301.333C218.004 302.731 221.592 303.086 225.842 302.399Z" fill="#A32B00"/>
<path d="M482.435 320.18C466.483 321.309 453.142 318.654 442.409 312.213C431.662 305.568 425.803 295.388 424.832 281.673C423.991 269.8 428.539 260.014 438.476 252.316C448.413 244.618 461.153 240.218 476.695 239.118C482.421 238.712 487.775 238.847 492.755 239.523C497.926 239.98 501.475 240.758 503.402 241.856C503.04 236.738 500.596 232.694 496.069 229.722C491.528 226.547 484.861 225.27 476.067 225.893C472.181 226.168 469.033 226.699 466.623 227.487C464.212 228.275 461.619 229.384 458.843 230.815C456.067 232.246 453.473 233.356 451.063 234.144C448.857 234.917 445.811 235.441 441.925 235.716C435.381 236.18 430.152 234.904 426.239 231.89C422.312 228.67 420.102 223.581 419.609 216.621C419.044 208.637 421.428 201.679 426.763 195.747C432.303 189.8 439.375 185.185 447.98 181.901C456.571 178.412 465.263 176.357 474.057 175.734C491.44 174.503 506.191 176.751 518.312 182.476C530.623 187.982 539.916 195.861 546.191 206.115C552.671 216.354 556.367 227.922 557.281 240.818C557.773 247.778 557.616 254.269 556.81 260.293C556.207 266.301 555.102 271.009 553.493 274.414C556.53 276.668 558.881 279.382 560.544 282.555C562.412 285.715 563.469 289.035 563.716 292.514C564.136 298.451 562.453 303.713 558.668 308.302C555.086 312.875 550.024 315.394 543.48 315.857C538.571 316.205 534.533 315.771 531.364 314.555C528.195 313.339 524.763 311.319 521.069 308.495C516.174 311.928 510.71 314.578 504.676 316.445C498.847 318.298 491.433 319.543 482.435 320.18ZM486.374 288.733C490.669 288.429 493.978 287.269 496.301 285.253C498.83 283.222 499.999 280.876 499.811 278.215C499.623 275.554 498.134 273.396 495.345 271.742C492.76 270.074 489.321 269.392 485.026 269.696C480.732 270 477.32 271.167 474.792 273.198C472.468 275.214 471.401 277.552 471.589 280.214C471.778 282.875 473.164 285.039 475.749 286.708C478.538 288.362 482.08 289.037 486.374 288.733Z" fill="#A32B00"/>
<path d="M338.305 303C329.81 303 324.102 298.052 321.181 288.156C318.394 278.26 317 264.604 317 247.188C317 239.271 317.332 232.674 317.996 227.396C318.792 221.986 320.584 217.434 323.372 213.74C326.292 209.913 330.739 208 336.712 208C340.429 208 343.681 208.858 346.469 210.573C349.389 212.288 351.248 214.729 352.044 217.896C354.965 215.257 358.748 213.278 363.394 211.958C368.04 210.639 373.018 209.979 378.327 209.979C382.575 209.979 386.889 211.035 391.27 213.146C395.783 215.257 399.5 218.16 402.42 221.854C405.473 225.417 407 229.309 407 233.531C407 237.753 405.473 241.514 402.42 244.812C399.5 247.979 395.584 249.563 390.673 249.563C389.08 249.563 387.553 249.365 386.093 248.969C384.765 248.573 383.571 248.177 382.509 247.781C379.854 246.726 377.73 246.198 376.137 246.198C370.96 246.198 366.381 248.243 362.398 252.333C358.549 256.292 356.624 261.438 356.624 267.771C356.624 274.764 356.358 280.569 355.827 285.187C355.296 289.806 353.704 293.962 351.049 297.656C348.394 301.219 344.146 303 338.305 303Z" fill="#BC6747"/>
<path d="M633.923 204.262C633.145 208.631 630.556 211.247 626.156 212.11C621.77 212.89 615.999 212.686 608.843 211.499C608.385 213.584 607.737 216.979 606.9 221.684C606.048 226.473 605.778 229.935 606.091 232.071C606.257 233.574 606.723 234.61 607.488 235.18C608.337 235.765 609.629 236.298 611.364 236.78C611.937 236.969 612.545 237.207 613.187 237.494C613.928 237.713 614.746 237.989 615.64 238.321C617.497 239.085 618.823 240.404 619.616 242.279C620.424 244.07 620.604 246.225 620.155 248.746C619.647 251.602 617.78 253.567 614.555 254.64C611.331 255.712 607.156 255.793 602.031 254.881C597.327 254.043 593.071 251.899 589.265 248.448C585.474 244.913 583.191 240.693 582.418 235.788C581.62 230.532 582.447 221.015 584.899 207.237C579.048 206.023 574.436 204.422 571.063 202.434C567.788 200.378 566.473 197.544 567.116 193.931C567.923 189.394 570.142 186.669 573.771 185.755C577.416 184.757 582.396 184.777 588.712 185.814C590.16 179.138 592.205 173.738 594.846 169.614C597.502 165.406 601.224 163.729 606.013 164.581C610.885 165.448 613.662 168.109 614.343 172.564C615.107 177.034 614.755 182.909 613.286 190.188C620.946 191.465 626.47 193.055 629.859 194.958C633.331 196.876 634.686 199.977 633.923 204.262Z" fill="#BC6747"/>
<path d="M732.867 254.384C722.064 259.041 711.45 260.475 701.026 258.685C690.539 256.748 681.013 251.953 672.449 244.3C663.97 236.435 657.001 226.174 651.544 213.516C646.214 201.152 644.024 190.576 644.974 181.789C645.924 173.001 649.951 167.076 657.055 164.014C669.634 158.591 678.684 162.282 684.204 175.087C685.346 177.737 686.288 180.124 687.028 182.248C687.705 184.225 688.287 185.982 688.773 187.518C690.719 193.66 692.454 198.498 693.977 202.031C696.769 208.507 700.226 212.864 704.349 215.1C708.473 217.337 712.458 217.627 716.306 215.968C720.302 214.245 722.86 211.223 723.979 206.9C725.184 202.366 724.358 196.788 721.503 190.164C719.472 185.454 717.379 181.208 715.221 177.425C714.502 176.164 713.529 174.314 712.303 171.876C711.013 169.29 709.892 166.894 708.94 164.686C703.356 151.733 706.854 142.545 719.433 137.122C726.536 134.06 733.535 135.232 740.428 140.638C747.407 145.834 753.592 154.687 758.986 167.198C767.425 186.774 769.563 204.354 765.401 219.937C761.175 235.374 750.33 246.856 732.867 254.384Z" fill="#A32B00"/>
<path d="M903.311 189.759C894.601 189.538 887.019 187.209 880.565 182.77C874.114 178.213 869.197 172.033 865.813 164.228C862.551 156.309 861.049 147.246 861.308 137.041C861.56 127.072 863.37 119.281 866.735 113.667C870.101 108.052 874.648 105.317 880.375 105.463C890.517 105.719 895.457 111.01 895.195 121.334C895.141 123.47 895.033 125.367 894.872 127.026C894.713 128.565 894.56 129.927 894.41 131.111C893.813 135.845 893.478 139.637 893.406 142.485C893.273 147.706 894.247 151.709 896.325 154.493C898.404 157.276 900.994 158.708 904.096 158.786C907.318 158.868 909.976 157.629 912.07 155.07C914.287 152.395 915.463 148.387 915.598 143.047C915.695 139.25 915.604 135.744 915.327 132.531C915.235 131.46 915.155 129.915 915.087 127.894C915.022 125.755 915.012 123.796 915.057 122.016C915.321 111.573 920.524 106.48 930.666 106.737C936.393 106.882 940.736 109.842 943.694 115.616C946.774 121.275 948.186 129.148 947.931 139.235C947.531 155.018 943.513 167.503 935.878 176.691C928.246 185.759 917.391 190.115 903.311 189.759Z" fill="#A32B00"/>
<path d="M264.576 118.043C272.301 121.514 277.963 125.775 281.564 130.823C285.245 135.901 287.278 141.011 287.664 146.152C288.049 151.293 287.448 156.026 285.86 160.352C284.449 164.197 282.434 167.457 279.816 170.132C277.198 172.807 274.389 174.64 271.39 175.629C268.39 176.619 265.689 176.673 263.286 175.791C258.96 174.203 257.532 171.406 259.003 167.401C259.297 166.6 259.696 165.883 260.201 165.25C260.816 164.567 261.316 164.069 261.704 163.757C262.121 163.364 262.398 163.103 262.537 162.972C263.897 161.744 264.943 160.628 265.675 159.624C266.487 158.649 267.173 157.401 267.731 155.879C267.937 155.318 268.107 154.608 268.241 153.748C263.846 158.044 258.599 161.072 252.499 162.832C252.424 163.532 252.342 164.002 252.254 164.242C251.519 166.245 250.29 167.612 248.567 168.343C246.924 169.103 245.222 169.16 243.459 168.513C241.537 167.808 239.999 166.425 238.846 164.366C234.29 164.148 229.649 163.171 224.923 161.437C220.757 159.908 217.32 157.51 214.61 154.243C211.981 151.005 210.337 147.311 209.679 143.161C209.05 138.93 209.544 134.612 211.161 130.206C213.514 123.798 217.57 119.06 223.332 115.993C229.093 112.927 235.932 111.756 243.847 112.479L245.58 107.388C239.39 104.935 234.516 102.737 230.956 100.794C227.427 98.7709 224.94 96.6309 223.496 94.3738C222.161 92.066 222.008 89.5102 223.038 86.7064C224.096 83.8225 225.906 81.9871 228.467 81.2002C231.138 80.3626 234.499 80.3691 238.55 81.2197C242.711 82.0196 248.01 83.5557 254.448 85.8279C258.437 80.6564 263.035 79.0262 268.242 80.9375C273.529 82.8782 275.675 86.9382 274.679 93.1176C282.741 96.1675 288.966 98.7708 293.356 100.927C297.826 103.114 301.008 105.463 302.903 107.977C304.828 110.411 305.202 113.23 304.026 116.434C302.85 119.638 300.686 121.571 297.535 122.232C294.493 122.843 290.56 122.535 285.738 121.311C280.915 120.086 274.323 117.985 265.963 115.007C265.728 115.648 265.265 116.66 264.576 118.043ZM257.864 135.214C256.348 139.838 255.313 143.276 254.76 145.528C258.075 143.926 260.721 141.671 262.698 138.76C261.23 137.312 259.618 136.13 257.864 135.214ZM229.906 137.087C228.995 139.57 229.16 141.721 230.401 143.54C231.752 145.309 233.818 146.613 236.601 147.452C236.835 142.357 237.65 136.793 239.046 130.761C236.77 131.016 234.833 131.714 233.233 132.854C231.662 133.913 230.553 135.324 229.906 137.087Z" fill="#BC6747"/>
<path d="M394.895 103.506C390.944 104.874 385.87 106 379.674 106.881C373.53 107.655 367.89 107.667 362.754 106.917C357.589 106.087 354.435 104.018 353.29 100.712C352.061 97.1646 352.295 94.0584 353.991 91.3939C355.74 88.6209 358.388 86.62 361.936 85.3912C366.048 83.9669 371.055 82.91 376.957 82.2204C382.859 81.5309 388.231 81.6571 393.073 82.5992C397.914 83.5412 400.894 85.6249 402.011 88.8502C404.524 96.1073 402.152 100.993 394.895 103.506ZM393.544 171.569C388.948 173.16 384.986 173.584 381.658 172.841C378.33 172.097 376.233 170.475 375.367 167.975C374.585 165.718 374.895 163.353 376.296 160.881C377.75 158.3 380.495 156.446 384.53 155.32C385.283 155.149 386.749 154.687 388.926 153.933C392.958 152.536 396.298 150.838 398.946 148.837C401.675 146.808 402.606 144.544 401.741 142.044C400.791 139.302 399.018 137.704 396.422 137.248C393.798 136.712 390.753 137.045 387.286 138.246C384.705 139.139 382.668 140.296 381.173 141.717C379.678 143.138 378.148 144.977 376.582 147.236C374.964 149.602 373.367 151.51 371.791 152.959C370.297 154.379 368.219 155.551 365.558 156.472C361.768 157.785 358.324 157.488 355.225 155.581C352.207 153.646 349.93 150.461 348.394 146.026C345.294 137.076 343.764 129.659 343.803 123.775C343.815 117.811 346.643 113.852 352.287 111.897C356.157 110.556 359.357 110.667 361.885 112.23C364.385 113.712 366.095 115.784 367.017 118.444C367.436 119.654 367.872 121.174 368.325 123.003C368.834 124.994 369.312 126.635 369.759 127.925C370.497 126.405 372.43 124.426 375.559 121.988C378.769 119.522 382.43 117.577 386.542 116.152C395.17 113.164 402.967 112.992 409.933 115.636C416.9 118.281 421.779 123.635 424.572 131.698C427.7 140.729 426.2 148.654 420.073 155.472C413.998 162.181 405.155 167.547 393.544 171.569Z" fill="#A32B00"/>
<path d="M498.44 147.848C492.211 147.848 487.091 147.037 483.08 145.416C479.069 143.709 477.064 140.808 477.064 136.712C477.064 133.213 478.344 130.568 480.904 128.776C483.549 126.899 487.048 125.96 491.4 125.96C496.861 125.96 501.64 124.68 505.736 122.12C509.832 119.475 511.88 115.976 511.88 111.624C511.88 106.589 510.088 102.92 506.504 100.616C503.005 98.312 498.312 97.16 492.424 97.16C485.171 97.16 477.704 97.8 470.024 99.08C468.659 99.336 467.336 99.464 466.056 99.464C462.131 99.464 458.973 98.44 456.584 96.392C454.195 94.344 453 91.3147 453 87.304C453 80.4773 456.797 75.7413 464.392 73.096C472.072 70.3653 480.947 69 491.016 69C498.781 69 506.248 70.152 513.416 72.456C520.669 74.76 526.728 78.856 531.592 84.744C536.541 90.5467 539.016 98.3973 539.016 108.296C539.016 116.488 537.096 123.613 533.256 129.672C529.501 135.645 524.509 140.168 518.28 143.24C512.136 146.312 505.523 147.848 498.44 147.848Z" fill="#BC6747"/>
</g>
<defs>
<clipPath id="clip0_55_2">
<rect width="418" height="1038" fill="white" transform="translate(1038 6.10352e-05) rotate(90)"/>
</clipPath>
</defs>
</svg>
