<svg width="1096" height="515" viewBox="0 0 1096 515" fill="none" xmlns="http://www.w3.org/2000/svg">
<path d="M897.227 260.273L898.272 241.864L882.818 252L877.272 242.364L893.772 234.091L877.272 225.818L882.818 216.182L898.272 226.318L897.227 207.909H908.272L907.272 226.318L922.727 216.182L928.272 225.818L911.727 234.091L928.272 242.364L922.727 252L907.272 241.864L908.272 260.273H897.227Z" fill="white"/>
<path d="M823.045 302.409C818.621 302.409 814.636 301.621 811.091 300.045C807.576 298.439 804.788 296.076 802.727 292.955C800.697 289.833 799.682 285.985 799.682 281.409C799.682 277.47 800.409 274.212 801.863 271.636C803.318 269.061 805.303 267 807.818 265.455C810.333 263.909 813.166 262.742 816.318 261.955C819.5 261.136 822.788 260.545 826.182 260.182C830.273 259.758 833.591 259.379 836.136 259.045C838.682 258.682 840.53 258.136 841.682 257.409C842.863 256.651 843.454 255.485 843.454 253.909V253.636C843.454 250.212 842.439 247.561 840.409 245.682C838.379 243.803 835.454 242.864 831.636 242.864C827.606 242.864 824.409 243.742 822.045 245.5C819.712 247.258 818.136 249.333 817.318 251.727L801.954 249.545C803.166 245.303 805.166 241.758 807.954 238.909C810.742 236.03 814.151 233.879 818.182 232.455C822.212 231 826.667 230.273 831.545 230.273C834.909 230.273 838.257 230.667 841.591 231.455C844.924 232.242 847.97 233.545 850.727 235.364C853.485 237.151 855.697 239.591 857.363 242.682C859.06 245.773 859.909 249.636 859.909 254.273V301H844.091V291.409H843.545C842.545 293.348 841.136 295.167 839.318 296.864C837.53 298.53 835.273 299.879 832.545 300.909C829.848 301.909 826.682 302.409 823.045 302.409ZM827.318 290.318C830.621 290.318 833.485 289.667 835.909 288.364C838.333 287.03 840.197 285.273 841.5 283.091C842.833 280.909 843.5 278.53 843.5 275.955V267.727C842.985 268.151 842.106 268.545 840.863 268.909C839.651 269.273 838.288 269.591 836.773 269.864C835.257 270.136 833.757 270.379 832.273 270.591C830.788 270.803 829.5 270.985 828.409 271.136C825.954 271.47 823.757 272.015 821.818 272.773C819.879 273.53 818.348 274.591 817.227 275.955C816.106 277.288 815.545 279.015 815.545 281.136C815.545 284.167 816.651 286.455 818.863 288C821.076 289.545 823.894 290.318 827.318 290.318Z" fill="white"/>
<path d="M786.034 207.909V301H769.58V207.909H786.034Z" fill="white"/>
<path d="M736.205 271.636V231.182H752.659V301H736.705V288.591H735.977C734.402 292.5 731.811 295.697 728.205 298.182C724.629 300.667 720.22 301.909 714.977 301.909C710.402 301.909 706.356 300.894 702.841 298.864C699.356 296.803 696.629 293.818 694.659 289.909C692.689 285.97 691.705 281.212 691.705 275.636V231.182H708.159V273.091C708.159 277.515 709.371 281.03 711.796 283.636C714.22 286.242 717.402 287.546 721.341 287.546C723.765 287.546 726.114 286.955 728.386 285.773C730.659 284.591 732.523 282.833 733.977 280.5C735.462 278.136 736.205 275.182 736.205 271.636Z" fill="white"/>
<path d="M611.807 301V207.909H628.261V242.727H628.943C629.791 241.03 630.988 239.227 632.534 237.318C634.079 235.379 636.17 233.727 638.807 232.364C641.443 230.97 644.807 230.273 648.898 230.273C654.291 230.273 659.155 231.652 663.488 234.409C667.852 237.136 671.307 241.182 673.852 246.546C676.428 251.879 677.716 258.424 677.716 266.182C677.716 273.849 676.458 280.364 673.943 285.727C671.428 291.091 668.004 295.182 663.67 298C659.337 300.818 654.428 302.227 648.943 302.227C644.943 302.227 641.625 301.561 638.988 300.227C636.352 298.894 634.231 297.288 632.625 295.409C631.049 293.5 629.822 291.697 628.943 290H627.988V301H611.807ZM627.943 266.091C627.943 270.606 628.579 274.561 629.852 277.955C631.155 281.349 633.019 284 635.443 285.909C637.898 287.788 640.867 288.727 644.352 288.727C647.988 288.727 651.034 287.758 653.488 285.818C655.943 283.849 657.791 281.167 659.034 277.773C660.307 274.349 660.943 270.455 660.943 266.091C660.943 261.758 660.322 257.909 659.079 254.546C657.837 251.182 655.988 248.546 653.534 246.636C651.079 244.727 648.019 243.773 644.352 243.773C640.837 243.773 637.852 244.697 635.398 246.546C632.943 248.394 631.079 250.985 629.807 254.318C628.564 257.652 627.943 261.576 627.943 266.091Z" fill="white"/>
<path d="M557.67 302.409C553.246 302.409 549.261 301.621 545.716 300.045C542.201 298.439 539.413 296.076 537.352 292.955C535.322 289.833 534.307 285.985 534.307 281.409C534.307 277.47 535.034 274.212 536.488 271.636C537.943 269.061 539.928 267 542.443 265.455C544.958 263.909 547.791 262.742 550.943 261.955C554.125 261.136 557.413 260.545 560.807 260.182C564.898 259.758 568.216 259.379 570.761 259.045C573.307 258.682 575.155 258.136 576.307 257.409C577.488 256.651 578.079 255.485 578.079 253.909V253.636C578.079 250.212 577.064 247.561 575.034 245.682C573.004 243.803 570.079 242.864 566.261 242.864C562.231 242.864 559.034 243.742 556.67 245.5C554.337 247.258 552.761 249.333 551.943 251.727L536.579 249.545C537.791 245.303 539.791 241.758 542.579 238.909C545.367 236.03 548.776 233.879 552.807 232.455C556.837 231 561.291 230.273 566.17 230.273C569.534 230.273 572.882 230.667 576.216 231.455C579.549 232.242 582.595 233.545 585.352 235.364C588.11 237.151 590.322 239.591 591.988 242.682C593.685 245.773 594.534 249.636 594.534 254.273V301H578.716V291.409H578.17C577.17 293.348 575.761 295.167 573.943 296.864C572.155 298.53 569.898 299.879 567.17 300.909C564.473 301.909 561.307 302.409 557.67 302.409ZM561.943 290.318C565.246 290.318 568.11 289.667 570.534 288.364C572.958 287.03 574.822 285.273 576.125 283.091C577.458 280.909 578.125 278.53 578.125 275.955V267.727C577.61 268.151 576.731 268.545 575.488 268.909C574.276 269.273 572.913 269.591 571.398 269.864C569.882 270.136 568.382 270.379 566.898 270.591C565.413 270.803 564.125 270.985 563.034 271.136C560.579 271.47 558.382 272.015 556.443 272.773C554.504 273.53 552.973 274.591 551.852 275.955C550.731 277.288 550.17 279.015 550.17 281.136C550.17 284.167 551.276 286.455 553.488 288C555.701 289.545 558.519 290.318 561.943 290.318Z" fill="white"/>
<path d="M520.659 207.909V301H504.205V207.909H520.659Z" fill="white"/>
<path d="M456.784 302.364C449.966 302.364 444.057 300.864 439.057 297.864C434.057 294.864 430.178 290.667 427.421 285.273C424.693 279.879 423.33 273.576 423.33 266.364C423.33 259.151 424.693 252.833 427.421 247.409C430.178 241.985 434.057 237.773 439.057 234.773C444.057 231.773 449.966 230.273 456.784 230.273C463.602 230.273 469.511 231.773 474.511 234.773C479.511 237.773 483.375 241.985 486.102 247.409C488.86 252.833 490.239 259.151 490.239 266.364C490.239 273.576 488.86 279.879 486.102 285.273C483.375 290.667 479.511 294.864 474.511 297.864C469.511 300.864 463.602 302.364 456.784 302.364ZM456.875 289.182C460.572 289.182 463.663 288.167 466.148 286.136C468.633 284.076 470.481 281.318 471.693 277.864C472.936 274.409 473.557 270.561 473.557 266.318C473.557 262.045 472.936 258.182 471.693 254.727C470.481 251.242 468.633 248.47 466.148 246.409C463.663 244.348 460.572 243.318 456.875 243.318C453.087 243.318 449.936 244.348 447.421 246.409C444.936 248.47 443.072 251.242 441.83 254.727C440.617 258.182 440.011 262.045 440.011 266.318C440.011 270.561 440.617 274.409 441.83 277.864C443.072 281.318 444.936 284.076 447.421 286.136C449.936 288.167 453.087 289.182 456.875 289.182Z" fill="white"/>
<path d="M382.909 302.364C375.939 302.364 369.955 300.833 364.955 297.773C359.985 294.712 356.152 290.485 353.455 285.091C350.788 279.667 349.455 273.424 349.455 266.364C349.455 259.273 350.818 253.015 353.545 247.591C356.273 242.136 360.121 237.894 365.091 234.864C370.091 231.803 376 230.273 382.818 230.273C388.485 230.273 393.5 231.318 397.864 233.409C402.258 235.47 405.758 238.394 408.364 242.182C410.97 245.939 412.455 250.333 412.818 255.364H397.091C396.455 252 394.939 249.197 392.546 246.955C390.182 244.682 387.015 243.545 383.046 243.545C379.682 243.545 376.727 244.455 374.182 246.273C371.636 248.061 369.652 250.636 368.227 254C366.833 257.364 366.136 261.394 366.136 266.091C366.136 270.848 366.833 274.939 368.227 278.364C369.621 281.758 371.576 284.379 374.091 286.227C376.636 288.045 379.621 288.955 383.046 288.955C385.47 288.955 387.636 288.5 389.546 287.591C391.485 286.651 393.106 285.303 394.409 283.545C395.712 281.788 396.606 279.651 397.091 277.136H412.818C412.424 282.076 410.97 286.455 408.455 290.273C405.939 294.061 402.515 297.03 398.182 299.182C393.849 301.303 388.758 302.364 382.909 302.364Z" fill="white"/>
<path fill-rule="evenodd" clip-rule="evenodd" d="M167 403L167 113L177 113L177 403L167 403Z" fill="white"/>
<path fill-rule="evenodd" clip-rule="evenodd" d="M223 370L223 160L233 160L233 370L223 370Z" fill="white"/>
<path fill-rule="evenodd" clip-rule="evenodd" d="M257 345L257 185L267 185L267 345L257 345Z" fill="white"/>
<path d="M279 207H305V323H279V207Z" fill="white"/>
</svg>
