<svg width="1385" height="1696" viewBox="0 0 1385 1696" fill="none" xmlns="http://www.w3.org/2000/svg">
<path fill-rule="evenodd" clip-rule="evenodd" d="M626.452 8.56746C608.961 13.2082 583.974 22.1326 571.124 28.2012C558.274 34.2698 536.5 45.6931 522.936 53.5466C509.371 61.0431 486.526 70.3246 472.962 73.8943C456.899 77.8211 435.125 79.963 412.28 79.963C388.483 79.725 365.876 76.9881 344.459 71.7525C326.969 67.4687 309.478 63.185 305.908 62.4711C300.197 60.6862 299.84 74.6083 300.911 322.351L301.625 583.658C317.688 630.779 326.969 654.697 332.68 667.548C338.391 680.399 346.244 695.035 350.171 700.747C353.74 706.101 356.953 711.099 356.953 712.17C356.953 713.241 349.1 713.955 339.105 713.955C329.467 713.955 310.549 716.454 297.342 719.31C279.851 723.236 269.142 727.877 259.505 736.088L246.297 747.868C243.442 874.952 243.799 917.789 244.869 924.572C246.654 933.496 253.793 943.134 269.499 958.484C281.636 970.265 307.336 990.613 326.969 1003.82C346.244 1016.67 379.798 1035.23 401.572 1045.23C423.346 1054.87 450.474 1065.93 462.254 1070.22C474.033 1074.15 502.232 1081.64 524.72 1086.64C547.208 1091.64 576.835 1097.35 590.757 1099.49C604.678 1101.28 637.517 1104.13 663.932 1105.2C692.488 1106.63 729.611 1105.92 754.955 1103.42C778.514 1101.28 817.065 1095.21 840.623 1090.57C864.182 1085.93 898.807 1077 917.368 1070.93C935.93 1064.86 968.769 1051.3 990.544 1040.95C1012.32 1030.95 1044.44 1012.39 1061.93 1000.61C1079.42 988.471 1102.98 969.908 1114.41 959.555C1128.33 946.347 1135.47 936.352 1138.32 926.357C1140.82 917.075 1141.53 884.947 1140.11 831.757C1138.32 772.856 1136.54 749.296 1132.97 743.584C1130.11 738.943 1121.9 732.161 1114.76 728.591C1107.27 725.021 1091.56 720.024 1079.78 717.882C1068 715.74 1051.58 713.955 1043.02 713.955C1034.81 713.955 1028.38 712.884 1029.09 711.456C1029.45 709.671 1037.3 693.964 1046.59 676.472C1055.51 658.98 1066.57 633.992 1071.21 621.141C1078.71 599.365 1079.42 589.727 1081.92 472.995C1083.35 404.455 1084.78 283.44 1084.78 204.191C1085.14 125.299 1084.42 60.6862 1083.35 60.6862C1082.28 60.6862 1077.64 62.4711 1072.64 64.2559C1067.65 66.3978 1059.44 68.8967 1054.08 69.9676C1048.37 71.0385 1029.45 74.2513 1011.96 77.1071C990.9 80.6769 970.197 81.3909 951.279 79.963C935.573 78.892 913.085 74.6083 901.305 71.0385C889.526 67.4687 870.25 58.5443 858.471 51.7617C846.692 44.9792 827.416 34.2698 815.637 28.5582C803.857 22.8466 778.157 13.9221 758.524 8.92444C732.824 2.49884 713.905 0 690.703 0C669.286 0.237985 647.869 3.09381 626.452 8.56746V8.56746ZM647.869 19.2768C661.79 16.7779 684.992 15.35 699.627 16.064C714.262 16.7779 738.535 19.9907 753.17 23.2035C769.233 26.4163 792.792 35.3408 812.067 45.3361C829.558 54.2606 854.545 67.1118 867.395 73.8943C880.245 80.3199 901.662 88.1734 915.583 91.0293C929.505 93.8851 954.134 96.3839 970.911 96.3839C987.688 96.3839 1015.89 93.1711 1033.38 89.6013C1050.87 86.0316 1066.57 83.5327 1068.36 84.2467C1069.79 84.9606 1070.14 195.267 1069.43 329.133C1068 557.242 1067.65 574.734 1061.22 597.937C1057.29 611.859 1048.73 635.777 1041.94 651.484C1035.52 667.191 1021.96 692.179 1011.96 706.815C1002.32 721.451 983.761 744.655 970.911 758.22C958.061 771.785 934.859 792.49 919.153 804.984C903.447 817.121 873.82 838.183 853.117 852.105C832.414 865.67 796.361 888.16 772.802 902.082C749.244 916.004 721.401 931.354 692.488 945.99L670.357 934.924C657.864 928.855 630.378 913.148 608.604 900.297C586.83 887.446 552.563 866.027 531.859 852.105C511.156 838.54 482.243 817.835 467.608 806.769C452.973 795.703 430.842 776.069 418.348 763.575C406.212 751.081 386.937 727.163 375.514 710.385C364.092 693.607 349.457 667.191 343.031 651.484C336.606 635.777 328.396 611.502 324.827 597.937C319.116 575.805 318.045 545.462 313.047 80.3199L321.614 82.8188C326.255 84.6037 343.745 88.1734 360.522 91.3862C381.939 95.67 401.929 96.7409 428.343 95.313C453.33 94.2421 473.676 91.0293 489.025 85.6746C501.875 81.3909 528.29 68.8967 547.922 57.8304C567.555 46.7641 592.541 34.6268 603.25 31.057C613.959 27.1303 633.948 22.1326 647.869 19.2768V19.2768ZM317.331 729.305C329.824 727.52 340.176 726.449 340.533 726.806C340.89 726.806 338.034 738.943 326.612 778.925L312.334 776.783C304.481 775.712 290.916 771.071 281.993 766.431C273.069 761.79 265.573 755.364 264.859 752.152C264.383 748.106 269.142 743.822 279.137 739.3C287.704 735.374 304.838 730.733 317.331 729.305V729.305ZM1041.59 728.948C1041.23 727.163 1049.8 727.163 1060.51 728.234C1071.21 729.662 1086.21 732.875 1094.06 735.374C1101.91 737.515 1111.55 741.799 1115.48 744.298C1121.9 748.939 1121.9 750.01 1117.26 755.364C1114.41 758.934 1103.7 765.36 1094.06 769.643C1084.07 774.284 1072.29 778.211 1067.29 778.211C1059.44 778.568 1057.29 775.712 1050.15 755.007C1045.87 742.156 1041.94 730.376 1041.59 728.948ZM261.289 771.785L274.497 778.568C281.636 782.138 303.053 788.563 321.971 792.49C341.247 796.417 359.808 801.057 363.021 802.842C366.59 804.27 370.517 808.554 371.945 811.767C374.086 815.693 372.302 819.263 366.59 822.833C361.95 826.046 350.527 828.188 338.034 828.188C319.473 828.188 316.974 829.259 307.693 839.968C302.339 846.394 289.846 863.172 280.208 877.451C270.213 891.373 261.289 903.153 259.505 903.153C258.077 903.153 257.006 891.373 257.006 877.451C257.006 863.172 258.077 833.542 259.148 811.41L261.289 771.785ZM1104.77 780.353C1114.41 775.712 1122.97 771.785 1123.33 771.428C1124.04 771.428 1124.4 801.414 1124.4 905.295L1101.2 873.167C1088.35 855.318 1074.07 838.183 1069.79 834.613C1064.08 829.973 1055.87 828.188 1041.23 828.188C1027.67 828.426 1019.1 826.76 1015.53 823.19C1012.67 819.977 1010.18 816.051 1010.18 814.266C1010.18 812.124 1014.46 807.84 1019.81 804.27C1025.52 801.057 1042.66 796.06 1058.36 793.561C1074.07 790.705 1094.77 784.993 1104.77 780.353ZM359.451 841.396C365.163 840.682 370.517 839.968 371.945 839.611C373.015 839.254 373.372 843.538 372.302 848.892C371.588 854.247 369.803 859.245 369.089 859.602C368.375 859.959 363.735 857.817 358.737 854.247C354.097 850.677 349.814 846.751 349.814 845.323C349.814 843.895 354.097 842.11 359.451 841.396V841.396ZM1009.46 850.677C1008.75 841.039 1009.11 840.682 1036.95 843.181L1028.02 852.105C1023.03 856.746 1016.96 860.673 1014.46 860.673C1012.32 860.673 1009.82 856.032 1009.46 850.677V850.677ZM294.129 883.162C309.478 862.815 322.328 846.394 323.399 846.394C324.113 846.394 337.32 856.032 352.312 868.169C367.661 880.306 389.078 895.656 399.787 902.796C410.496 909.579 430.485 921.359 444.406 928.855C457.97 936.352 487.597 948.846 509.371 956.7C531.502 964.553 566.127 974.548 586.116 978.475C610.746 983.473 639.659 986.329 672.856 987.043C700.341 987.4 737.107 986.686 754.955 984.901C772.445 983.473 802.429 978.118 820.991 973.478C839.553 968.837 871.678 958.128 892.382 949.917C913.085 942.064 942.712 927.784 958.418 918.503C974.124 909.222 999.11 892.444 1013.75 881.02C1028.38 869.954 1044.8 857.103 1050.15 852.462C1055.51 848.178 1060.51 845.323 1061.22 846.394C1061.93 847.108 1075.14 864.599 1090.13 884.59C1105.13 904.581 1117.26 924.572 1117.26 928.498C1117.26 932.425 1110.48 942.064 1101.91 949.917C1093.7 957.771 1069.07 976.333 1047.66 990.969C1025.88 1005.61 991.614 1024.88 970.911 1033.81C950.208 1042.73 918.796 1054.51 901.305 1060.22C883.458 1065.93 848.119 1074.15 822.776 1078.79C782.44 1086.28 765.306 1087 690.703 1087C617.885 1087 598.253 1085.57 560.416 1078.79C535.786 1074.5 496.521 1064.51 472.962 1056.65C449.403 1048.8 415.493 1035.23 398.002 1027.02C380.155 1018.46 352.312 1002.39 335.535 990.969C318.759 979.546 296.628 962.768 286.276 953.844C273.783 942.778 267.358 934.567 267.001 928.855C267.001 923.501 277.709 906.009 294.129 883.162V883.162ZM133.143 1530.01C121.364 1536.07 110.655 1545 104.23 1554.28C98.5189 1562.49 91.7368 1575.7 89.2382 1583.55C86.3825 1591.76 85.3117 1606.4 86.3825 1619.25C87.4534 1631.03 91.3799 1647.09 95.6633 1654.95C99.5898 1662.8 106.729 1672.44 111.012 1677.08C115.653 1681.36 125.647 1687.08 132.786 1690.29C140.282 1693.5 154.917 1696 164.912 1696C175.264 1695.64 188.471 1693.5 194.539 1690.29C202.035 1686.72 206.319 1686 208.817 1688.86C210.602 1690.65 214.529 1692.43 216.67 1692.43C219.883 1692.43 221.311 1685.29 221.311 1669.23C221.311 1652.81 219.883 1646.02 216.67 1646.02C214.529 1646.02 209.174 1652.81 204.891 1661.37C199.537 1672.8 193.825 1677.79 181.689 1683.15C168.839 1688.5 164.198 1689.22 155.274 1685.65C149.206 1683.51 141.353 1676.37 137.427 1669.94C132.072 1661.02 130.288 1650.31 129.217 1621.03C128.146 1600.33 129.574 1575.34 131.716 1565.7C133.857 1554.64 139.212 1544.28 144.923 1538.93C151.705 1532.15 157.773 1530.01 169.552 1530.01C181.332 1530.01 187.4 1532.15 194.182 1538.93C199.537 1543.57 205.248 1552.85 207.033 1559.28C209.174 1565.7 212.03 1571.06 214.172 1571.06C215.956 1571.06 218.455 1569.27 219.526 1567.49C220.597 1565.35 220.597 1554.99 219.526 1544.28C218.098 1530.01 216.313 1524.65 212.387 1524.65C209.531 1524.65 206.676 1526.08 205.962 1528.22C205.605 1530.72 201.321 1530.01 194.539 1526.44C188.471 1523.58 176.692 1521.08 167.768 1521.08C157.416 1520.72 144.923 1524.29 133.143 1530.01V1530.01ZM315.903 1526.08C307.693 1529.29 294.843 1538.57 285.562 1548.57C276.638 1557.85 267.358 1572.13 265.216 1579.98C262.717 1587.84 260.575 1602.11 260.575 1612.11C260.575 1623.18 263.788 1636.38 268.785 1647.81C273.426 1657.45 282.706 1670.3 289.489 1676.37C296.271 1682.43 308.05 1689.57 315.903 1692.07C324.113 1694.57 339.819 1696.36 352.312 1695.29C369.446 1694.22 377.299 1691.72 389.078 1683.51C397.645 1677.44 409.068 1664.59 414.422 1654.95C420.133 1644.95 425.844 1628.89 426.915 1619.25C428.343 1607.11 427.272 1594.62 423.346 1580.7C419.419 1566.06 413.351 1555.71 402.286 1544.64C393.005 1534.65 381.939 1527.51 373.015 1525.01C365.163 1522.87 352.312 1521.08 344.459 1521.08C336.606 1521.08 323.756 1523.58 315.903 1526.08V1526.08ZM334.822 1531.08C340.176 1530.36 349.1 1530.72 355.168 1531.79C362.307 1533.22 368.732 1537.86 374.086 1546.07C379.798 1554.64 382.296 1564.28 382.653 1578.2C383.01 1588.91 383.01 1611.04 382.653 1627.1C382.296 1644.6 379.798 1661.02 376.585 1667.44C373.729 1673.15 367.661 1680.29 363.021 1683.51C358.737 1686.36 350.884 1688.86 345.173 1688.86C339.819 1688.86 331.252 1686.36 325.541 1683.86C320.186 1681.01 313.761 1674.22 310.906 1668.51C307.693 1662.44 305.194 1643.17 304.124 1621.03C303.41 1600.33 303.767 1576.41 304.838 1568.2C305.908 1559.63 310.906 1548.57 315.903 1542.5C320.9 1536.79 329.467 1531.43 334.822 1531.08ZM1022.67 1524.65C1016.6 1526.44 1006.25 1532.5 999.467 1537.86C992.685 1543.57 983.048 1556.06 978.05 1565.7C971.268 1579.27 969.483 1588.91 969.483 1608.54C969.483 1622.11 971.625 1639.95 974.481 1647.81C976.979 1655.66 984.475 1667.44 990.187 1674.22C996.255 1680.65 1006.61 1688.5 1012.67 1691C1019.1 1693.86 1033.38 1696 1044.09 1696C1054.79 1696 1069.79 1693.5 1076.93 1690.29C1084.42 1687.08 1094.77 1680.29 1100.48 1675.3C1107.62 1667.8 1110.12 1662.09 1110.12 1652.09C1110.12 1641.74 1111.55 1638.17 1117.26 1637.1C1121.19 1636.03 1124.4 1633.53 1124.4 1631.74C1124.4 1629.25 1109.77 1628.53 1085.85 1628.89C1062.65 1629.6 1048.01 1631.39 1048.37 1633.53C1048.73 1635.31 1054.08 1637.46 1060.15 1637.81C1070.86 1638.88 1070.86 1638.88 1069.79 1659.23C1069.07 1678.15 1068.36 1679.94 1058.36 1684.58C1051.94 1687.43 1043.02 1688.5 1035.88 1687.43C1029.81 1686 1021.96 1681.36 1019.1 1677.08C1016.24 1672.8 1012.32 1654.59 1010.18 1637.1C1008.03 1616.39 1008.03 1594.98 1010.18 1578.2C1012.32 1561.42 1016.24 1547.85 1020.53 1542.5C1024.45 1537.86 1032.31 1532.5 1038.38 1531.08C1044.44 1529.29 1055.87 1529.65 1063.72 1531.79C1073.71 1534.29 1080.14 1538.57 1085.14 1546.78C1089.06 1553.21 1092.28 1561.06 1092.28 1564.63C1092.28 1568.2 1094.77 1571.06 1097.63 1571.06C1101.91 1571.06 1102.98 1566.06 1102.98 1547.85V1524.65C1082.28 1525.01 1066.57 1524.29 1054.79 1523.22C1043.02 1522.15 1028.38 1522.87 1022.67 1524.65ZM0 1287.26C0 1290.47 3.21257 1292.62 8.92382 1292.62H17.8476V1442.55C3.21257 1442.55 0 1444.33 0 1447.9C0 1452.18 9.63772 1453.26 64.2515 1453.26C128.503 1453.26 128.503 1453.26 128.503 1445.04C128.503 1440.76 129.574 1428.62 131.359 1418.27C133.5 1402.92 132.786 1399.35 128.503 1399.35C125.647 1399.35 122.078 1403.99 120.65 1409.35C119.579 1414.7 113.511 1424.34 107.443 1430.77C97.4481 1441.12 94.2355 1442.55 76.7448 1442.55H57.1124V1292.62C71.7475 1292.62 74.9601 1290.47 74.9601 1287.26C74.9601 1282.62 68.5349 1281.91 37.48 1281.91C6.42515 1281.91 0 1282.62 0 1287.26H0ZM139.212 1286.9C139.212 1290.12 142.781 1292.97 147.064 1293.33C153.133 1294.04 160.629 1304.04 178.476 1335.81C200.964 1376.15 201.678 1377.93 202.749 1405.42C203.106 1420.77 202.392 1435.41 200.964 1437.91C199.18 1440.05 194.182 1442.55 189.185 1443.62C184.188 1444.33 179.904 1446.83 179.19 1448.97C178.833 1451.83 190.613 1453.26 219.526 1453.26C253.793 1453.26 260.575 1452.18 260.575 1447.9C260.575 1443.97 257.363 1442.55 250.581 1443.26L240.943 1444.33L239.158 1372.94C275.924 1302.61 281.993 1294.04 288.061 1293.33C292.701 1292.97 296.271 1290.12 296.271 1287.26C296.271 1282.98 291.273 1281.91 271.284 1281.91C251.295 1281.91 246.297 1282.98 246.297 1287.26C246.297 1290.83 249.867 1292.62 257.006 1292.62C262.717 1292.62 267.714 1293.33 267.714 1294.4C267.714 1295.11 260.932 1309.75 252.365 1326.53C244.156 1342.95 236.303 1356.87 234.518 1356.87C233.09 1356.87 224.166 1342.59 214.529 1325.46L197.038 1294.4C211.673 1291.54 215.956 1289.05 215.956 1286.9C215.956 1285.12 199.893 1282.98 177.762 1282.62C145.28 1281.55 139.568 1282.26 139.212 1286.9ZM335.535 1287.26C335.535 1290.12 339.105 1292.97 343.388 1293.33C351.598 1294.4 351.598 1294.4 352.312 1365.8C353.026 1418.27 351.955 1438.26 348.743 1441.83C346.601 1444.33 341.604 1446.12 338.034 1446.12C334.822 1446.12 332.68 1447.54 333.751 1449.69C334.822 1451.47 347.672 1453.26 362.307 1453.26C381.939 1453.26 388.721 1451.83 388.007 1448.61C387.294 1446.12 383.367 1444.33 379.084 1444.33C374.8 1444.33 369.803 1442.55 367.661 1440.76C365.519 1438.26 364.449 1414.7 364.806 1374.72L365.876 1312.25C446.191 1421.13 471.534 1452.9 473.676 1452.9C477.246 1453.26 478.673 1434.34 479.03 1373.65L480.101 1294.4C492.595 1292.97 496.164 1290.12 496.164 1287.26C496.164 1282.98 491.167 1281.91 471.177 1281.91C451.188 1281.91 446.191 1282.98 446.191 1287.26C446.191 1290.83 449.76 1292.62 456.899 1292.62H467.608C467.608 1367.22 466.537 1385.43 464.395 1383.64C462.968 1381.5 444.763 1357.59 424.417 1330.81L387.294 1281.55C340.89 1281.55 335.535 1282.98 335.535 1287.26ZM546.138 1287.26C546.138 1290.47 550.064 1292.97 555.775 1293.33L565.77 1294.4V1444.33C550.421 1445.4 546.138 1447.54 546.138 1449.69C546.138 1451.83 562.2 1453.26 587.187 1453.26C621.455 1453.26 628.237 1452.18 628.237 1447.9C628.237 1443.62 625.381 1442.9 615.743 1444.33L603.25 1446.12V1371.15C620.027 1371.15 627.88 1374.01 631.806 1378.29C635.733 1382.22 638.945 1389.36 638.945 1394.35C638.945 1399.71 641.087 1403.28 644.299 1403.28C648.583 1403.28 649.654 1396.85 649.654 1367.58C649.654 1340.45 648.583 1331.88 645.013 1332.95C642.872 1333.67 639.659 1339.38 637.874 1345.45C636.447 1351.52 633.234 1357.23 630.735 1358.3C628.594 1359.01 621.098 1360.44 614.672 1361.87L603.25 1364.01V1292.62C633.591 1292.62 646.798 1294.76 652.152 1297.26C658.221 1300.11 664.646 1308.32 668.215 1316.89C671.785 1325.1 676.068 1331.88 678.21 1331.88C679.995 1331.88 681.78 1325.81 681.78 1318.32C681.78 1310.82 680.709 1299.75 679.281 1293.33L676.425 1281.55C555.775 1281.91 546.138 1282.62 546.138 1287.26V1287.26ZM724.614 1286.9C724.614 1290.83 728.183 1292.62 735.322 1292.62H746.031V1442.55C731.396 1443.62 726.399 1446.12 725.685 1448.61C724.971 1452.18 734.252 1453.26 763.879 1453.26C787.794 1453.26 803.143 1451.83 803.143 1449.69C803.143 1447.54 798.146 1444.69 792.435 1443.26L781.726 1440.76V1292.62C795.647 1291.19 800.288 1289.05 800.645 1287.26C801.002 1285.12 786.367 1282.98 763.165 1282.62C730.682 1281.55 724.971 1282.26 724.614 1286.9ZM852.046 1284.4C850.618 1285.83 850.618 1288.33 851.332 1289.76C852.403 1291.19 857.043 1292.62 862.041 1292.62H870.964L869.18 1443.97C855.972 1443.97 851.332 1446.12 850.618 1448.61C849.904 1452.18 865.253 1453.26 919.153 1453.26C971.268 1453.26 989.116 1451.83 990.544 1448.61C991.614 1446.12 991.971 1432.91 991.614 1419.34L990.544 1394.35C975.195 1427.2 968.769 1435.05 961.63 1438.26C955.919 1441.12 941.998 1443.97 930.576 1444.69L910.229 1446.12V1371.15C924.15 1371.15 931.289 1374.36 935.216 1378.29C939.142 1382.22 942.355 1389.36 942.355 1394.35C942.355 1399.71 944.497 1403.28 947.709 1403.28C951.993 1403.28 953.063 1396.85 953.063 1367.58C953.063 1340.45 951.993 1331.88 948.423 1332.95C946.281 1333.67 943.069 1339.02 941.284 1344.73C939.856 1350.45 936.644 1356.16 934.145 1357.59C932.003 1359.01 925.578 1360.08 919.867 1360.08L910.229 1360.44V1292.62C939.142 1292.26 952.35 1294.04 958.418 1295.83C965.914 1298.33 970.911 1303.68 975.195 1313.68C978.764 1321.53 983.048 1328.31 985.189 1328.31C986.974 1328.31 988.759 1323.67 988.759 1318.32C988.759 1312.96 987.331 1302.61 985.903 1295.11L983.404 1281.55C883.458 1281.55 853.117 1282.98 852.046 1284.4V1284.4ZM1051.23 1284.05C1049.44 1285.48 1048.37 1287.97 1048.73 1289.4C1049.08 1291.19 1054.08 1292.62 1060.15 1292.62H1070.86L1069.07 1444.33C1055.51 1444.33 1051.23 1446.12 1050.51 1448.61C1049.8 1452.18 1063.72 1453.26 1112.62 1453.26H1176.16C1180.09 1432.55 1181.51 1419.34 1181.51 1411.13C1181.51 1402.21 1180.09 1396.85 1177.94 1397.92C1175.8 1398.64 1171.16 1406.85 1167.24 1415.77C1163.31 1424.34 1156.53 1433.98 1151.89 1436.83C1147.6 1439.69 1135.82 1442.55 1126.19 1443.26L1108.34 1444.33L1106.55 1292.62C1121.19 1292.62 1124.4 1290.47 1124.4 1287.26C1124.4 1282.62 1117.98 1281.91 1089.42 1281.91C1070.14 1281.91 1053.01 1282.98 1051.23 1284.05ZM1221.13 1286.55C1220.78 1290.83 1223.63 1292.62 1231.49 1292.62H1242.2V1442.55C1227.56 1443.62 1222.56 1446.12 1221.85 1448.61C1221.13 1452.18 1234.34 1452.9 1280.75 1452.18C1340.36 1451.47 1341.07 1451.11 1353.92 1441.47C1362.13 1435.41 1370.7 1423.63 1376.77 1411.13C1384.98 1392.93 1386.05 1387.57 1384.26 1364.01C1383.19 1346.88 1379.98 1331.88 1375.34 1322.96C1371.05 1315.1 1363.92 1305.11 1359.28 1300.83C1354.99 1296.54 1346.07 1291.19 1340.36 1288.69C1334.29 1286.19 1305.38 1283.69 1275.75 1282.62C1227.56 1280.84 1221.85 1281.55 1221.13 1286.55V1286.55ZM1277.89 1292.62H1295.74C1305.38 1292.62 1317.51 1294.04 1322.51 1296.19C1327.51 1297.97 1333.57 1304.04 1336.43 1309.39C1339.29 1314.75 1342.5 1332.24 1343.93 1347.95C1345 1363.65 1344.64 1387.57 1342.5 1401.49C1340 1415.77 1336.07 1428.98 1332.15 1432.91C1328.93 1436.12 1320.37 1440.76 1313.59 1442.19C1306.8 1443.97 1295.74 1444.33 1277.89 1440.76V1366.51V1292.62ZM464.038 1528.22C464.038 1530.36 467.965 1531.79 472.962 1531.79H481.886V1685.29C467.965 1685.29 464.038 1687.08 464.038 1688.86C464.038 1691 487.597 1692.43 528.29 1692.43H592.541C595.04 1671.73 596.111 1660.3 596.825 1653.52C597.539 1646.74 596.111 1640.67 594.326 1639.95C592.184 1639.6 587.187 1647.09 582.547 1656.73C576.478 1670.3 571.481 1676.01 562.2 1679.94C555.418 1682.79 543.282 1685.29 535.429 1685.29H521.151V1531.79C535.072 1531.79 538.998 1530.36 538.998 1528.22C538.998 1526.08 524.006 1524.65 501.518 1524.65C478.673 1524.65 464.038 1526.08 464.038 1528.22ZM624.667 1528.22C624.667 1530.36 629.307 1531.79 635.376 1531.79H646.084V1685.29C629.307 1685.29 624.667 1687.08 624.667 1688.86C624.667 1691 648.226 1692.43 688.919 1692.43C724.257 1692.43 753.884 1691.36 754.598 1689.93C755.312 1688.15 756.383 1676.72 757.097 1663.87C757.453 1651.02 756.383 1640.31 754.598 1639.95C752.813 1639.6 747.816 1647.09 743.175 1656.73C737.107 1670.3 732.11 1676.01 722.829 1679.94C716.047 1682.79 703.911 1685.29 696.058 1685.29H681.78V1531.79C695.701 1531.79 700.341 1530.36 701.412 1528.22C702.483 1526.08 688.919 1524.65 663.932 1524.65C640.016 1524.65 624.667 1526.08 624.667 1528.22ZM785.296 1528.22C785.296 1530.01 789.222 1531.79 794.22 1531.79H803.143V1685.29C789.222 1685.29 785.296 1687.08 785.296 1688.86C785.296 1691 810.639 1692.43 853.831 1692.43H922.723C926.649 1671.73 928.077 1659.59 928.077 1652.45C928.077 1644.24 926.292 1639.24 923.793 1639.95C921.652 1640.31 918.082 1646.02 915.94 1652.45C913.799 1658.87 908.444 1667.8 904.518 1672.08C900.591 1676.37 891.668 1681.36 884.886 1682.79C878.103 1684.22 865.967 1685.29 857.4 1685.29H842.408V1613.9C856.329 1613.9 863.468 1615.68 867.395 1617.46C871.321 1619.61 875.248 1626.03 876.319 1631.74C877.39 1638.17 880.245 1642.45 883.458 1642.45C887.741 1642.45 888.455 1636.74 887.741 1609.61C887.384 1587.12 885.599 1576.77 882.387 1575.7C879.888 1575.34 878.103 1576.77 878.103 1579.27C878.103 1581.41 875.605 1587.12 872.035 1591.76C868.466 1596.05 860.256 1600.69 853.831 1602.47L842.051 1604.97V1537.14C863.111 1533.58 875.605 1533.58 883.101 1534.65C893.809 1536.43 899.164 1540 904.518 1548.21C908.801 1554.64 913.799 1562.49 916.297 1566.06C919.867 1571.77 920.581 1568.92 919.867 1549.64L919.153 1526.44C808.498 1525.01 785.296 1525.72 785.296 1528.22V1528.22ZM1156.53 1528.22C1156.53 1530.36 1160.45 1531.79 1165.45 1531.79H1174.37V1685.29C1160.45 1685.29 1156.53 1687.08 1156.53 1688.86C1156.53 1691 1181.87 1692.43 1226.13 1692.43H1295.74C1295.74 1679.94 1296.81 1667.8 1298.24 1657.45C1300.38 1643.52 1300.02 1638.88 1296.45 1638.88C1293.95 1638.88 1288.96 1645.67 1285.39 1654.23C1281.82 1662.44 1275.03 1672.44 1270.75 1676.37C1265.04 1681.36 1255.76 1683.86 1237.91 1685.29L1213.64 1687.08V1613.9C1231.49 1613.54 1238.63 1615.68 1240.77 1618.18C1243.27 1620.68 1246.12 1627.1 1247.19 1632.81C1248.26 1638.17 1250.76 1642.45 1252.9 1642.45C1255.05 1642.45 1256.47 1628.89 1256.47 1608.54C1256.47 1588.19 1255.05 1574.63 1252.9 1574.63C1250.76 1574.63 1249.33 1577.13 1249.33 1579.98C1249.33 1582.84 1245.41 1589.26 1240.41 1594.26C1235.77 1599.26 1227.56 1603.19 1222.56 1603.19H1213.64V1535.36C1259.69 1535 1266.47 1536.43 1271.11 1541.43C1274.32 1545 1280.03 1553.57 1283.6 1560.35L1290.38 1572.84C1292.17 1547.85 1291.45 1537.14 1290.38 1532.86C1288.6 1524.65 1287.89 1524.65 1222.56 1524.65C1180.8 1524.65 1156.53 1526.08 1156.53 1528.22ZM657.864 72.4664C655.722 74.9653 653.58 79.606 652.509 82.4618C651.439 85.3176 645.727 88.8874 639.302 90.6723C632.877 92.1002 627.523 95.67 627.166 99.5967C626.452 102.81 627.166 109.592 628.594 114.59C630.378 121.015 629.307 125.299 624.31 129.94C620.384 133.153 617.528 139.578 617.528 144.219C617.528 148.503 618.956 154.571 620.741 157.427C623.239 161.354 622.168 164.21 616.814 168.136C610.746 172.42 609.675 175.99 611.103 187.77C612.531 199.193 611.817 203.12 606.462 206.69C602.536 208.832 599.68 214.186 599.68 218.113C599.68 222.04 601.108 228.466 603.25 232.392C606.106 238.461 605.392 240.246 596.825 243.459C587.901 246.671 587.187 248.099 589.329 260.237C591.827 272.017 590.757 273.802 582.19 278.085C573.623 282.369 572.909 284.511 574.694 298.433C576.122 311.284 575.408 314.497 570.053 315.925C565.056 317.71 563.985 321.637 564.699 335.916C565.413 350.195 564.699 353.765 560.059 353.765C557.203 353.765 552.563 355.907 550.421 358.405C547.922 360.547 546.138 368.044 546.138 374.469C546.138 381.252 544.353 385.893 541.497 385.893C538.998 385.893 534.358 388.391 531.146 391.961C527.576 395.531 524.72 402.671 524.72 408.382C524.72 415.879 522.579 418.378 515.797 419.805C508.657 421.233 506.873 423.732 506.873 432.3C506.873 440.153 505.088 443.009 500.448 443.009C497.235 443.009 491.524 445.508 487.954 449.078C483.314 453.361 481.886 459.43 482.6 467.997C483.671 480.135 483.314 480.492 471.891 479.778C463.324 479.064 459.041 480.849 455.115 486.917C451.902 491.558 450.474 498.341 451.545 503.695C453.33 511.906 452.616 512.62 441.907 512.62C432.27 512.62 430.128 514.048 427.629 524.4C425.131 533.324 423.346 535.466 417.635 534.038C413.708 532.967 407.997 534.395 404.784 536.894C401.215 539.75 399.43 546.889 399.787 557.242C399.787 566.88 403.713 581.873 409.782 594.367L419.419 615.429C404.07 628.28 399.787 633.278 399.787 635.063C399.787 636.491 403.356 642.559 407.997 648.271L416.564 658.98L439.052 642.916C459.755 655.054 473.676 660.765 483.671 662.907C496.878 665.763 504.731 666.12 514.012 662.907C523.293 660.051 527.219 656.125 530.075 647.2C532.573 638.633 536.5 634.706 545.067 632.207C551.492 630.065 558.274 625.781 560.059 622.569C561.486 618.999 562.557 613.287 561.843 610.074C560.773 605.077 562.557 603.649 570.053 603.649C575.408 603.649 583.261 601.507 587.187 599.008C591.114 596.152 595.04 591.155 596.468 587.228C597.539 583.658 597.539 577.233 596.111 573.306C594.326 567.594 596.825 564.024 607.89 555.457C621.455 545.462 622.168 544.034 620.384 530.469C618.599 516.903 618.956 515.832 631.449 509.05C642.515 502.624 644.299 500.125 645.013 486.917C645.727 478.35 647.512 471.567 649.654 471.567C651.439 471.567 656.079 467.64 659.291 462.286C664.646 454.789 665.003 451.933 661.076 444.437C657.15 436.94 657.864 434.799 666.074 426.231C674.284 418.021 675.354 414.094 673.57 403.742C671.785 394.103 672.856 389.462 678.21 384.108C682.136 380.181 686.063 373.398 687.134 369.115C688.205 364.474 687.134 357.334 684.992 353.051C681.779 346.268 682.136 344.483 686.777 342.341C689.989 340.557 694.63 335.202 697.485 329.847C701.769 321.637 701.769 318.424 698.199 310.927C693.916 303.074 694.63 300.575 701.769 289.509C706.409 282.726 710.336 274.159 710.336 270.946C710.336 267.376 708.194 261.664 705.695 257.738C702.126 252.026 702.483 249.527 709.622 240.96C713.905 235.248 717.475 226.681 717.475 221.683C717.475 216.685 715.69 211.331 713.548 209.189C711.05 206.69 712.12 202.049 717.118 193.125C721.044 186.342 724.614 178.132 724.257 175.276C724.257 172.42 722.115 167.065 719.26 163.853C715.333 159.212 714.619 155.642 717.475 150.288C719.26 146.361 721.044 140.292 721.044 137.079C721.044 133.51 718.903 128.512 715.69 126.37C712.477 123.514 711.05 119.23 712.477 115.661C713.548 112.091 713.548 105.665 712.477 101.382C710.693 94.956 707.48 93.1711 698.556 93.1711C689.275 93.1711 686.063 91.0293 681.78 81.3909C678.567 74.9653 673.213 69.6106 668.929 68.8966C664.646 68.1827 660.005 69.9676 657.864 72.4664V72.4664ZM511.513 122.8C504.731 137.079 503.303 137.793 485.099 140.649L465.823 143.505C494.379 171.706 494.379 171.706 490.81 189.555C488.668 199.193 488.311 207.404 489.739 207.404C491.167 207.404 499.02 204.191 506.873 200.264L521.151 193.125C543.282 204.191 550.778 207.404 552.206 207.404C553.634 207.404 553.634 198.836 552.206 188.484C549.35 170.278 549.35 169.564 562.914 156.713L576.478 143.505C538.998 138.15 537.571 137.079 530.432 122.443C526.148 114.233 521.865 107.45 520.794 107.45C519.723 107.45 515.44 114.233 511.513 122.8V122.8ZM514.369 137.793C516.51 132.796 519.366 128.869 520.794 128.869C521.865 128.869 524.72 132.796 527.219 137.793C530.432 144.219 535.429 147.432 558.631 151.001L548.993 160.283C541.14 168.493 540.069 172.063 544.353 194.553L532.573 188.484C522.222 183.129 520.08 183.129 499.734 193.125L501.875 179.917C503.66 168.136 502.589 165.638 483.671 151.358L496.878 148.86C506.516 147.432 511.513 144.219 514.369 137.793V137.793ZM1008.39 127.798C998.396 133.153 972.339 145.647 950.208 156.356L910.229 175.276C924.15 147.789 927.006 138.507 925.935 137.079C924.864 135.294 913.085 133.51 899.878 133.153L876.319 131.725C855.615 180.631 838.482 221.683 824.561 254.882C810.639 287.724 800.288 317.353 801.002 320.923C802.073 324.136 811.353 335.202 821.705 344.84C832.413 354.836 848.833 368.044 858.471 374.469C868.109 380.895 884.529 389.462 894.88 393.032C905.232 396.959 927.006 402.314 943.069 405.169C959.489 408.025 986.617 411.238 1003.75 412.309C1030.17 414.094 1035.16 413.737 1035.16 409.096C1035.16 405.526 1028.86 402.433 1016.24 399.815C1005.89 397.316 988.759 392.318 978.05 388.391C967.342 384.465 948.423 375.183 935.93 367.687C923.793 359.833 914.156 353.051 914.513 351.98C915.227 350.909 940.927 350.195 971.625 350.195C1014.46 350.195 1028.02 349.124 1028.02 345.911C1028.02 343.055 1011.96 336.273 989.473 329.49C968.413 323.065 941.641 312.355 929.862 305.573L908.444 293.435C958.061 270.589 985.903 258.452 1001.97 251.669L1031.59 239.532C1031.59 203.477 1030.17 193.125 1028.74 193.125C1027.31 193.482 993.399 209.189 953.063 228.466C912.728 248.099 879.531 263.449 879.174 263.092C878.817 263.092 880.602 255.953 882.744 247.742L887.027 232.749C983.761 187.77 1015.53 173.134 1020.17 170.635C1027.31 167.065 1028.74 163.139 1030.17 142.434C1030.88 128.869 1030.17 118.16 1028.74 118.517C1027.31 118.517 1018.03 122.8 1008.39 127.798V127.798ZM954.848 163.496C988.045 147.075 1016.6 133.153 1018.03 133.153C1019.81 132.796 1020.53 138.864 1019.1 161.354L878.103 227.038L872.392 248.456C869.18 260.237 865.967 272.017 865.253 274.516C864.182 276.658 865.253 278.799 867.395 278.799C869.18 278.799 904.161 262.735 944.854 243.102C985.546 223.468 1020.17 207.404 1021.6 207.404C1023.03 207.404 1024.45 212.759 1024.45 219.184C1024.45 229.537 1022.67 231.321 1007.68 238.461C998.039 242.745 964.129 258.095 931.646 272.731C899.164 287.367 867.395 301.289 860.97 304.145C854.545 307.001 849.19 310.213 849.19 311.998C849.547 313.426 862.041 324.493 877.033 336.63C892.382 348.767 915.94 365.902 929.862 374.469C943.426 383.394 960.559 392.675 967.342 395.174C975.195 398.03 977.336 399.815 972.696 399.815C968.769 400.172 950.208 396.959 931.646 392.675C911.657 388.748 888.812 380.895 876.676 374.112C864.896 367.687 844.907 353.051 808.498 319.138L814.209 305.216C817.422 297.719 831.343 264.163 845.264 230.607C858.828 197.409 872.749 163.853 875.962 156.713C881.316 143.862 882.387 143.148 897.736 143.148C906.66 143.148 913.799 143.862 913.799 144.933C913.799 146.004 908.801 156.356 903.09 168.136C897.022 179.917 892.738 190.269 893.095 191.34C893.809 192.411 921.295 179.917 954.848 163.496V163.496ZM878.103 306.644C884.886 303.431 893.095 300.575 895.951 300.218C898.807 300.218 910.229 305.216 920.938 311.641C931.646 318.067 949.851 326.277 960.916 329.847C972.339 333.06 981.62 336.63 981.62 337.701C981.62 338.772 962.701 339.486 939.499 339.486C897.736 339.486 897.736 339.486 882.387 328.062C874.177 321.637 867.038 315.568 866.681 314.14C866.324 313.069 871.321 309.499 878.103 306.644V306.644ZM389.792 149.574C382.653 165.638 381.939 166.352 364.449 169.207C354.454 170.635 346.244 172.777 346.244 174.562C346.244 175.99 351.598 182.772 358.38 189.555C369.803 201.335 370.16 203.12 368.018 218.827C366.59 229.537 367.304 235.962 369.446 235.962C371.231 235.962 378.727 232.392 385.509 228.109L398.002 220.612C421.561 232.392 429.414 235.962 430.842 235.962C432.27 235.962 432.27 227.752 430.842 217.399C427.986 198.836 428.343 198.122 441.55 185.271L455.115 172.063C417.992 168.136 417.278 167.779 408.711 150.288C403.713 140.649 399.073 132.439 398.359 132.439C397.645 132.439 393.719 139.935 389.792 149.574ZM393.005 164.567C394.79 158.855 397.288 153.857 398.359 153.857C399.073 153.857 402.286 158.855 405.141 164.567C408.711 172.063 413.708 175.99 421.204 177.061C426.915 178.132 431.913 179.917 431.913 181.702C431.913 183.129 428.7 187.413 424.774 191.34C419.062 196.695 417.635 201.335 421.204 221.683L409.068 215.614C396.931 209.546 396.217 209.546 376.942 223.468L379.084 210.974C380.868 200.621 379.441 196.695 362.307 179.56L375.514 177.418C386.223 175.633 389.792 173.134 393.005 164.567V164.567ZM488.311 248.456C480.815 263.449 478.673 264.877 462.968 267.376C453.687 268.804 446.191 270.589 446.191 271.66C446.191 272.731 451.902 279.156 459.041 285.939C471.534 298.433 471.534 298.79 467.965 316.282C466.18 326.277 464.752 334.488 465.109 335.202C465.466 335.559 472.962 331.989 481.886 326.991L497.949 318.067L531.859 335.916C527.933 299.861 528.647 297.362 538.641 285.225C544.71 277.728 549.707 270.946 549.707 269.875C549.707 268.804 541.854 267.376 532.573 266.305C516.867 264.52 515.083 263.449 508.657 249.884C504.731 241.674 500.448 234.534 499.02 233.463C497.592 232.749 492.952 239.532 488.311 248.456V248.456ZM494.736 256.667C496.878 248.813 497.235 248.813 502.232 259.166C505.445 265.234 509.728 270.946 511.87 272.374C514.012 273.802 519.366 275.23 523.649 275.23C528.29 275.23 531.859 276.301 531.859 278.085C531.859 279.513 528.647 283.797 524.72 287.724C519.009 293.078 517.581 297.719 519.009 306.644C520.08 312.712 519.723 318.067 518.295 318.067C516.867 318.067 512.227 315.568 507.587 312.712C500.448 308.072 498.306 308.072 478.317 318.067L480.101 306.644C481.886 297.005 480.458 293.078 462.254 275.23H471.891C476.889 275.23 483.671 272.731 486.883 269.875C490.096 267.019 493.665 260.951 494.736 256.667ZM380.155 264.52C376.228 272.731 371.588 275.587 362.307 277.015C355.525 278.085 349.814 280.584 349.814 282.369C349.814 284.511 353.74 288.438 358.737 291.294C366.59 296.291 367.304 298.076 364.806 310.927C363.378 318.781 363.378 325.206 364.806 325.206C366.233 325.206 372.302 322.708 378.37 319.852C387.651 315.211 390.149 315.211 399.787 319.852C405.498 322.708 411.209 325.206 412.28 325.206C413.351 325.206 412.28 319.495 410.496 312.712C406.926 301.289 407.64 299.504 418.348 289.866L430.128 279.513C401.929 275.587 399.073 273.802 396.217 264.52C394.076 258.809 390.863 253.811 389.078 253.811C387.294 253.811 383.01 258.809 380.155 264.52V264.52ZM382.296 279.156C386.58 272.374 386.58 272.374 391.22 279.156C394.076 282.726 399.073 285.939 402.286 285.939C407.997 285.582 408.354 286.296 403 292.008C399.787 295.577 398.002 300.932 399.073 303.788C400.501 307.715 399.43 308.429 395.147 306.644C391.577 304.859 385.866 305.573 381.939 307.358C375.871 310.213 374.8 309.856 375.514 304.502C376.228 300.575 374.086 295.22 371.231 291.651C366.233 286.296 366.59 285.582 371.945 285.939C375.514 285.939 380.155 282.726 382.296 279.156V279.156ZM742.461 318.781C739.606 321.28 737.821 325.206 738.178 327.705C738.535 330.204 734.965 334.131 729.968 335.916C721.401 339.129 721.044 340.913 722.829 358.405C723.9 368.401 724.971 381.966 724.971 387.678C724.971 393.746 727.113 400.886 730.325 403.742C733.538 406.954 734.965 412.309 733.538 417.307C732.467 422.661 734.252 427.659 739.606 433.371C743.889 437.654 747.102 444.794 746.745 449.435C746.388 453.718 749.244 460.501 753.17 464.428C757.453 468.711 759.238 474.066 758.167 477.993C756.74 481.92 758.881 486.56 764.949 491.201C770.899 495.961 773.278 500.72 772.089 505.48C771.018 509.764 773.516 515.475 777.8 519.759C782.083 523.686 785.296 530.468 785.296 535.109C785.296 539.393 788.508 545.105 792.435 547.603C796.361 549.745 799.574 555.1 799.217 559.027C799.217 562.953 802.429 569.379 806.713 573.306C810.639 577.233 813.852 582.23 813.852 584.015C813.495 586.157 816.351 590.441 819.92 593.654C823.49 597.223 828.844 600.079 831.7 600.079C834.912 600.079 837.054 603.649 837.054 609.718C837.054 616.857 839.553 620.784 846.692 623.997C852.76 626.852 856.686 631.493 856.686 635.777C856.686 639.704 860.613 645.415 865.61 648.271C870.607 651.127 876.319 653.269 878.817 652.555C881.316 651.841 884.886 654.697 887.027 658.623C889.169 662.907 894.88 666.477 900.591 667.191C906.66 667.548 910.943 670.404 912.014 675.044C913.085 680.399 916.654 682.184 924.507 682.184C930.219 682.184 940.213 679.685 946.638 676.472C953.064 673.259 961.273 668.262 964.486 665.763C969.126 662.193 972.696 661.836 978.05 664.335C983.761 667.191 985.903 666.477 989.473 658.623C993.399 650.413 993.042 648.628 986.26 643.63C980.549 638.99 979.478 635.777 981.62 630.422C983.404 626.495 984.832 617.214 984.832 610.074C984.832 602.578 984.475 594.011 983.404 591.155C982.334 588.299 978.05 585.8 973.41 585.8C969.126 585.443 963.772 583.301 961.987 580.445C959.846 577.947 955.205 575.091 951.279 574.377C947.352 574.02 943.069 570.093 941.998 566.166C940.927 561.883 936.644 558.67 931.289 557.956C926.292 557.242 920.224 552.601 916.297 546.533C912.371 539.75 908.087 536.537 904.875 537.608C901.662 538.679 899.521 537.251 899.521 534.038C899.521 531.182 896.308 527.613 892.382 526.185C888.455 524.4 884.529 520.473 883.458 517.26C882.387 513.691 878.46 509.764 874.534 508.336C870.607 506.551 866.681 501.91 865.61 497.627C864.539 492.986 860.613 488.702 856.686 487.631C851.927 486.441 849.547 482.872 849.547 476.922C849.547 471.924 847.049 467.284 844.193 466.213C841.337 465.142 838.839 461.215 838.839 457.288C838.839 453.361 835.626 446.936 831.7 443.009C827.773 439.082 824.561 433.371 824.561 430.515C824.561 427.659 821.348 424.446 817.421 423.375C812.067 421.947 810.282 418.735 810.282 410.881C810.282 404.455 808.141 399.458 804.928 398.387C801.716 397.316 799.574 392.318 799.574 385.893C799.574 378.753 797.789 375.183 794.22 375.183C790.65 375.183 788.865 371.614 788.865 364.474C788.865 358.048 786.724 353.051 783.511 351.98C780.298 350.909 778.157 345.911 778.157 339.486C778.157 333.417 776.015 328.776 773.516 328.419C771.018 328.062 767.448 328.062 765.663 328.419C763.522 328.776 759.952 325.563 757.453 321.637C754.955 317.71 751.742 314.497 750.314 314.497C748.53 314.497 744.96 316.282 742.461 318.781ZM393.719 357.691C390.149 365.902 383.724 374.112 379.084 375.54C374.8 377.325 366.233 378.753 360.522 378.753C354.454 378.753 349.814 380.538 349.814 382.323C349.814 384.465 355.525 390.176 362.307 395.888C374.8 405.169 375.157 406.24 373.015 424.446C371.945 434.442 371.945 443.009 373.015 443.009C374.086 443.009 381.225 439.796 389.078 435.869L403.356 428.73C427.986 441.224 435.839 444.08 436.91 443.009C437.981 441.938 437.624 433.728 436.196 424.446C433.697 408.382 434.411 406.597 445.12 395.888C451.545 389.462 456.899 383.394 456.899 382.323C456.899 381.252 449.403 379.467 439.766 378.039C424.417 375.54 422.275 374.112 414.779 359.119C410.496 350.195 405.498 343.055 403.713 343.055C401.929 343.055 397.645 349.838 393.719 357.691V357.691ZM404.07 359.119L410.852 372.684C416.564 383.751 419.419 385.893 440.836 385.893L432.627 393.746C427.629 399.458 424.774 406.24 424.774 428.73L414.065 423.375C404.427 418.735 402.286 418.735 394.433 423.375C389.435 426.231 384.795 428.73 383.724 428.73C382.653 428.73 383.01 423.018 384.438 416.236C386.937 405.526 385.866 403.028 379.084 398.387C374.8 395.531 371.231 391.604 371.231 389.462C371.231 387.678 375.514 385.893 380.868 385.893C388.721 385.893 392.291 383.394 397.288 372.684L404.07 359.119ZM601.822 622.212C598.967 626.852 583.618 662.55 567.912 701.818C540.069 770 538.998 774.284 540.069 797.845L540.783 822.833C586.473 829.973 610.746 836.041 623.953 841.039C637.16 846.037 657.15 855.675 668.572 862.458C679.638 869.24 690.703 874.952 692.488 874.952C694.63 874.952 703.911 869.954 713.191 863.885C722.472 858.174 742.461 848.535 757.81 842.467C772.802 836.755 798.503 829.973 814.923 827.474L844.193 822.833C846.335 773.927 845.264 770.357 817.065 700.033C801.002 659.694 785.296 623.997 782.083 620.427C778.871 616.857 773.516 614.001 770.304 614.001C766.734 614.358 747.459 620.07 727.469 627.209L690.703 640.061C636.803 620.07 617.885 614.358 613.959 614.358C610.389 614.358 604.678 617.928 601.822 622.212V622.212ZM609.675 627.566C613.959 622.212 616.457 622.569 641.801 631.85C657.15 637.562 673.927 643.987 689.276 649.699L688.919 810.696L670.357 799.987C660.005 794.275 642.872 786.064 631.806 781.781C621.098 777.497 598.966 771.428 553.99 762.504L579.334 697.891C593.612 662.55 607.176 630.779 609.675 627.566V627.566ZM728.183 636.848C744.96 630.422 761.737 625.068 765.663 625.068C769.59 624.711 774.587 626.852 776.729 629.351C778.871 631.85 791.364 661.122 804.928 694.678C818.135 727.877 829.558 757.149 830.272 759.648C831.343 762.861 825.631 765.003 813.138 766.431C802.786 767.502 782.797 772.499 768.519 777.14C754.241 781.781 732.824 790.348 721.044 796.417C709.265 802.128 698.913 807.126 697.842 807.126C697.128 807.126 696.415 771.428 697.842 648.271L728.183 636.848ZM346.601 911.363C341.961 917.789 332.68 930.64 326.255 940.279L314.118 957.057C340.533 975.976 345.173 977.404 346.958 974.191C348.386 971.693 346.601 965.981 342.675 961.697L335.535 953.487C362.664 912.434 364.092 908.151 360.165 904.224C355.882 899.94 353.74 901.368 346.601 911.363ZM1006.61 916.361C999.824 921.359 994.47 926.714 995.184 928.855C995.541 930.64 1003.39 942.777 1012.67 956.343C1021.96 969.551 1029.81 980.974 1030.52 982.045C1030.88 983.116 1038.73 979.189 1047.66 973.121C1059.44 965.267 1062.65 960.983 1060.51 957.057C1057.65 952.416 1055.87 952.416 1047.3 958.127C1037.66 964.553 1036.59 964.553 1031.59 958.841C1026.95 953.487 1027.31 952.416 1034.45 945.99C1038.73 942.421 1042.3 937.78 1042.3 935.638C1042.3 933.853 1039.45 932.782 1036.23 933.496C1032.66 934.21 1026.95 935.995 1023.74 937.066C1019.46 938.494 1016.6 937.066 1015.17 933.139C1013.39 928.855 1015.17 924.929 1020.53 921.359C1024.81 918.503 1028.38 913.862 1028.38 911.72C1028.02 909.222 1026.24 907.08 1023.74 907.437C1021.24 907.437 1013.75 911.364 1006.61 916.361V916.361ZM383.01 960.626C374.443 976.333 367.661 989.899 367.661 990.969C367.661 992.04 374.086 995.967 381.939 999.894C389.792 1003.82 398.002 1007.03 399.787 1007.03C401.929 1007.03 403.356 1004.89 403.356 1002.75C403.356 1000.25 399.43 995.61 394.433 992.754C386.58 988.114 386.223 986.686 390.149 980.617C393.719 974.905 395.86 974.548 403.356 978.475C410.139 981.688 413.351 981.688 415.85 978.475C418.348 975.619 417.278 972.764 412.28 969.194C408.354 966.338 404.07 963.839 402.286 963.125C400.858 962.768 400.858 959.555 402.286 955.986C404.427 951.345 407.283 949.917 412.28 951.702C416.207 952.773 421.918 954.201 424.417 954.558C427.272 954.915 430.128 953.844 430.842 951.702C431.556 949.917 424.774 944.562 415.85 940.279C407.283 935.638 399.43 932.068 399.073 932.068C398.359 932.068 391.22 944.919 383.01 960.626V960.626ZM970.911 939.208C966.271 942.064 966.271 945.276 970.197 963.125C972.339 974.548 974.124 984.187 973.767 984.901C973.053 985.615 965.914 978.475 957.704 969.551C948.423 959.912 940.213 954.201 937.001 955.272C934.145 956.343 931.646 958.127 931.646 959.912C931.646 961.34 941.284 973.121 953.063 986.686C964.843 999.894 976.979 1010.6 979.835 1010.6C983.048 1010.6 986.26 1007.75 987.688 1004.53C988.759 1000.96 988.045 984.187 985.903 967.052C983.405 949.56 980.549 935.638 979.121 935.638C977.693 935.638 974.124 937.423 970.911 939.208ZM442.621 991.326C424.06 1013.46 420.49 1019.17 424.774 1021.67C427.986 1023.45 431.556 1024.88 432.984 1024.88C434.411 1024.88 436.91 1022.38 438.338 1019.17C440.123 1014.89 444.049 1014.17 452.616 1015.6C461.897 1017.39 464.395 1019.53 465.109 1027.38C465.466 1033.09 468.322 1037.73 471.177 1038.45C475.461 1039.16 477.246 1033.09 479.03 1006.32C480.815 982.759 480.458 971.693 477.246 968.48C475.104 965.981 471.534 963.839 469.393 964.196C467.251 964.196 455.115 976.333 442.621 991.326ZM465.823 984.544L466.894 993.111C467.608 997.752 466.894 1002.75 465.109 1004.18C463.681 1005.61 460.112 1005.25 456.899 1003.46C452.259 1000.96 452.616 999.18 458.684 992.397L465.823 984.544ZM902.019 970.265C900.948 972.05 904.161 983.473 909.158 996.324C914.156 1009.18 919.867 1023.1 921.652 1027.74C923.436 1032.38 926.649 1034.88 930.219 1033.81C933.074 1032.74 935.216 1029.17 935.216 1025.95C935.216 1022.38 930.576 1008.46 924.864 994.539C919.51 980.974 912.371 969.194 909.515 968.48C906.66 967.766 903.09 968.837 902.019 970.265V970.265ZM516.51 986.329C515.44 988.828 511.156 1003.11 507.23 1017.74C503.303 1032.38 500.091 1045.94 500.091 1047.37C500.091 1048.8 503.303 1049.87 507.23 1049.87C512.227 1049.87 515.44 1046.3 517.938 1037.38C519.723 1030.59 522.936 1025.6 525.077 1026.67C526.862 1027.74 528.647 1034.88 528.647 1042.73C528.647 1054.15 530.075 1057.37 535.786 1058.8C542.211 1060.58 542.925 1058.8 542.568 1042.02C542.568 1029.17 544.353 1021.31 548.279 1017.74C551.135 1014.89 553.634 1009.18 553.634 1005.25C553.634 1001.32 550.778 995.61 547.208 992.397C543.996 989.185 535.786 985.258 529.718 983.83C521.865 982.402 517.581 983.116 516.51 986.329V986.329ZM526.862 1004.18C528.29 999.537 531.145 996.681 533.644 997.395C535.786 998.109 537.928 1001.32 538.285 1004.53C538.998 1008.1 536.857 1012.03 534.001 1013.46C530.789 1014.89 527.576 1015.24 526.505 1014.17C525.434 1013.1 525.791 1008.82 526.862 1004.18V1004.18ZM852.403 986.686C847.406 990.612 847.762 993.825 855.972 1021.31C860.97 1038.09 865.253 1052.01 865.253 1052.37C865.61 1053.08 873.106 1051.3 882.03 1048.8C891.668 1045.94 898.093 1042.02 898.093 1039.16C898.093 1035.59 894.88 1034.16 887.384 1034.88C877.033 1035.95 876.319 1035.23 870.25 1013.46C866.681 1001.32 862.398 989.185 860.97 986.686C858.828 983.116 857.043 983.116 852.403 986.686ZM574.694 1025.95C572.195 1042.02 571.124 1058.08 572.552 1061.65C573.98 1064.86 576.479 1067.72 578.62 1067.72C580.405 1067.72 582.904 1064.15 583.618 1059.87C584.688 1055.23 586.473 1045.23 587.901 1037.38L590.4 1023.1C603.607 1066.65 606.819 1071.65 612.531 1071.65C618.599 1071.29 620.027 1067.36 623.953 1038.45C627.88 1011.67 627.88 1004.89 623.953 1002.75C621.455 1001.68 618.242 1000.96 616.814 1002.04C615.386 1002.75 613.959 1008.82 613.959 1015.24C613.602 1021.67 612.174 1030.59 610.746 1035.59C608.604 1043.45 607.89 1042.02 603.607 1024.88C601.108 1014.17 597.182 1003.11 595.04 1000.61C592.898 998.109 588.258 995.967 585.045 996.324C580.405 996.324 578.263 1002.75 574.694 1025.95V1025.95ZM754.598 1004.53C750.314 1007.03 744.96 1013.82 742.461 1019.53C740.32 1025.6 739.249 1035.95 740.32 1043.8C741.748 1050.94 746.031 1060.22 749.957 1064.15C753.884 1068.43 761.737 1071.29 768.519 1071.29C775.301 1071.65 782.797 1068.79 786.367 1065.22C789.936 1061.65 793.506 1053.08 794.933 1046.3C796.004 1038.45 794.933 1029.17 791.364 1020.6C787.794 1012.75 781.726 1005.61 776.729 1003.46C771.732 1001.68 766.377 999.894 764.949 999.894C763.522 999.894 758.881 1002.04 754.598 1004.53V1004.53ZM755.669 1022.38C756.74 1017.74 760.309 1014.17 763.522 1014.17C766.734 1013.82 771.375 1015.96 773.873 1018.46C776.372 1020.96 778.514 1029.52 778.871 1037.38C779.228 1045.23 778.514 1053.8 777.086 1056.3C776.015 1058.8 772.802 1060.58 770.304 1060.94C767.805 1060.94 763.879 1058.8 761.737 1056.3C759.238 1053.8 756.74 1047.01 755.669 1040.95C754.598 1035.23 754.598 1026.67 755.669 1022.38ZM678.567 1012.39C678.567 1015.6 681.78 1017.74 687.491 1017.74C696.058 1017.74 696.415 1018.1 696.415 1046.3C696.415 1072.36 696.772 1074.86 703.554 1074.86C709.979 1074.86 710.693 1072.36 710.693 1046.3C710.693 1020.24 711.05 1017.74 717.832 1017.74C721.758 1017.74 724.971 1015.24 724.971 1012.39C724.971 1008.1 719.973 1007.03 701.769 1007.03C683.564 1007.03 678.567 1008.1 678.567 1012.39ZM612.888 657.196C611.46 658.98 611.817 661.479 613.245 662.193C614.672 662.907 623.239 664.335 632.163 665.763C640.73 666.834 654.651 671.118 662.504 675.044C671.071 679.328 677.853 681.113 680.352 678.971C682.493 676.829 678.567 672.903 669.643 668.619C661.79 664.692 648.94 660.408 641.087 658.98C633.234 657.553 623.953 655.768 620.741 655.054C617.528 653.983 613.958 655.054 612.888 657.196V657.196ZM749.957 657.196C741.034 658.623 725.685 663.264 716.047 667.548C704.268 672.546 699.27 676.472 701.769 678.614C703.911 681.113 710.693 679.685 721.401 674.687C729.968 670.404 744.96 666.12 754.241 665.049C764.236 663.621 771.375 660.765 771.375 658.266C771.375 655.768 769.947 653.983 768.519 653.983C767.091 654.34 758.524 655.768 749.957 657.196V657.196ZM603.964 688.967C603.607 691.108 610.746 693.964 620.384 695.035C629.664 696.463 645.37 700.39 655.365 704.317C665.003 707.886 675.354 710.385 678.567 709.671C681.423 708.957 675.354 704.317 664.289 698.962C653.223 693.607 635.376 688.253 624.667 687.182C610.746 685.397 604.321 686.111 603.964 688.967V688.967ZM746.388 688.253C743.175 688.967 732.467 693.25 722.115 697.177C712.12 701.104 703.554 705.744 703.554 707.529C703.554 709.314 705.338 710.742 707.837 710.742C710.336 710.742 720.33 707.886 730.325 703.96C739.963 700.39 755.669 696.106 764.949 695.035C774.23 693.964 782.083 691.465 782.083 689.324C782.083 687.539 775.301 686.111 766.734 686.111C758.524 686.111 749.244 687.182 746.388 688.253ZM589.329 714.312C589.329 716.454 590.4 717.882 591.827 717.882C593.255 717.882 605.749 720.381 619.67 723.593C633.234 726.449 651.796 732.875 660.719 737.872C669.286 742.513 677.139 746.797 677.496 746.44C678.21 746.44 678.567 743.941 678.567 741.085C678.567 738.229 670 732.161 659.648 727.163C649.297 722.522 634.662 716.811 626.809 714.669C618.956 712.527 607.176 710.742 600.751 710.742C594.326 710.742 589.329 712.527 589.329 714.312ZM757.097 714.669C749.957 716.454 735.322 722.522 723.9 727.877C712.477 733.232 703.197 739.657 703.197 742.156C703.554 744.655 704.268 746.44 705.338 746.44C706.052 746.44 710.693 744.298 714.976 741.442C719.616 738.586 731.753 732.875 742.818 729.305C753.527 725.735 769.947 721.451 779.228 720.381C788.508 718.953 796.361 716.454 796.361 714.312C796.361 712.527 790.293 711.099 782.797 711.099C775.658 711.456 763.879 712.884 757.097 714.669V714.669ZM572.195 747.511C572.909 750.01 584.688 752.865 600.037 754.65C614.672 756.435 636.447 761.79 648.226 766.431C660.005 771.428 671.785 776.426 674.64 777.854C678.21 779.639 679.281 778.925 678.21 774.998C677.139 772.142 668.215 766.074 658.578 761.433C648.94 756.792 629.307 750.724 615.029 747.868C600.751 745.012 585.045 742.87 579.691 742.87C573.98 742.87 571.124 744.655 572.195 747.511V747.511ZM764.236 748.582C751.385 751.438 732.467 757.863 722.115 762.504C711.764 767.502 703.554 773.213 703.554 774.998C703.554 777.14 705.338 778.568 708.194 778.568C710.693 778.568 714.262 777.14 716.047 775.355C717.832 773.57 729.968 768.572 742.818 764.289C755.312 760.005 775.301 755.364 787.081 754.293C799.217 752.865 808.498 750.01 809.212 747.511C810.282 744.298 806.713 742.87 798.86 743.227C792.435 743.227 776.729 745.726 764.236 748.582Z" fill="black"/>
</svg>
