<svg width="1038" height="418" viewBox="0 0 1038 418" fill="none" xmlns="http://www.w3.org/2000/svg">
<g clip-path="url(#clip0_45_2)">
<path d="M274.496 240.185L254.872 242.183L261.651 283.429C262.535 288.809 263.971 292.563 265.958 294.692C268.144 296.789 271.529 297.46 276.111 296.707C280.894 295.921 284.513 295.531 286.97 295.536C289.593 295.31 292.43 295.765 295.482 296.9C300.49 298.737 303.879 305.036 305.647 315.796C307.71 328.349 306.182 336.479 301.061 340.185C298.301 342.071 295.759 343.41 293.433 344.201C291.274 344.761 288.003 345.401 283.619 346.121C262.896 349.527 246.385 347.432 234.086 339.835C221.787 332.239 213.804 317.282 210.136 294.965L202.866 250.73C199.178 251.95 195.142 252.92 190.759 253.641C186.375 254.361 182.411 253.274 178.865 250.377C175.519 247.449 173.174 241.899 171.831 233.73C170.489 225.56 170.021 219.6 170.428 215.85C170.802 211.9 171.754 208.981 173.286 207.092C176.048 203.978 179.82 202.028 184.602 201.242L194.662 200.816L189.602 170.031C188.849 165.448 188.392 162.045 188.231 159.82C188.269 157.563 188.873 155.008 190.041 152.156C191.813 146.748 199.075 142.997 211.827 140.901C225.377 138.674 234.052 141.034 237.854 147.981C239.375 151.005 240.708 156.004 241.854 162.978L246.668 192.269C255.304 190.031 261.814 188.552 266.198 187.831C270.781 187.078 274.201 186.721 276.458 186.759C278.882 186.565 281.72 187.02 284.97 188.123C290.577 189.861 294.428 197.107 296.524 209.859C298.587 222.413 297.158 230.526 292.237 234.2C289.477 236.086 286.934 237.425 284.609 238.216C282.45 238.776 279.079 239.432 274.496 240.185Z" fill="#1DB954" fill-opacity="0.62"/>
<path d="M274.496 240.185L254.872 242.183L261.651 283.429C262.535 288.809 263.971 292.563 265.958 294.692C268.144 296.789 271.529 297.46 276.111 296.707C280.894 295.921 284.513 295.531 286.97 295.536C289.593 295.31 292.43 295.765 295.482 296.9C300.49 298.737 303.879 305.036 305.647 315.796C307.71 328.349 306.182 336.479 301.061 340.185C298.301 342.071 295.759 343.41 293.433 344.201C291.274 344.761 288.003 345.401 283.619 346.121C262.896 349.527 246.385 347.432 234.086 339.835C221.787 332.239 213.804 317.282 210.136 294.965L202.866 250.73C199.178 251.95 195.142 252.92 190.759 253.641C186.375 254.361 182.411 253.274 178.865 250.377C175.519 247.449 173.174 241.899 171.831 233.73C170.489 225.56 170.021 219.6 170.428 215.85C170.802 211.9 171.754 208.981 173.286 207.092C176.048 203.978 179.82 202.028 184.602 201.242L194.662 200.816L189.602 170.031C188.849 165.448 188.392 162.045 188.231 159.82C188.269 157.563 188.873 155.008 190.041 152.156C191.813 146.748 199.075 142.997 211.827 140.901C225.377 138.674 234.052 141.034 237.854 147.981C239.375 151.005 240.708 156.004 241.854 162.978L246.668 192.269C255.304 190.031 261.814 188.552 266.198 187.831C270.781 187.078 274.201 186.721 276.458 186.759C278.882 186.565 281.72 187.02 284.97 188.123C290.577 189.861 294.428 197.107 296.524 209.859C298.587 222.413 297.158 230.526 292.237 234.2C289.477 236.086 286.934 237.425 284.609 238.216C282.45 238.776 279.079 239.432 274.496 240.185Z" fill="#A32B00"/>
<path d="M356.6 309C346.316 309 337.877 306.741 331.284 302.223C324.692 297.577 321.396 290.929 321.396 282.281C321.396 274.794 324.758 268.857 331.482 264.468C338.207 260.079 346.579 257.885 356.6 257.885C360.292 257.885 363.72 258.208 366.884 258.853C370.181 259.369 372.422 260.015 373.609 260.789C373.609 257.562 372.224 254.916 369.456 252.851C366.687 250.657 362.467 249.56 356.798 249.56C354.293 249.56 352.249 249.753 350.667 250.14C349.084 250.528 347.37 251.108 345.524 251.883C343.679 252.657 341.964 253.238 340.382 253.625C338.932 254.013 336.954 254.206 334.449 254.206C330.23 254.206 326.933 253.174 324.56 251.108C322.187 248.914 321 245.623 321 241.234C321 236.2 322.846 231.94 326.538 228.455C330.361 224.97 335.108 222.389 340.778 220.711C346.447 218.903 352.117 218 357.787 218C368.994 218 378.356 220.065 385.871 224.196C393.519 228.197 399.122 233.554 402.682 240.266C406.374 246.978 408.22 254.4 408.22 262.532C408.22 266.921 407.824 270.986 407.033 274.73C406.374 278.473 405.451 281.377 404.264 283.442C406.11 284.991 407.495 286.799 408.418 288.864C409.473 290.929 410 293.059 410 295.253C410 298.996 408.681 302.223 406.044 304.934C403.539 307.645 400.177 309 395.958 309C392.793 309 390.222 308.548 388.244 307.645C386.267 306.741 384.157 305.321 381.916 303.385C378.619 305.321 374.993 306.741 371.038 307.645C367.214 308.548 362.401 309 356.6 309ZM360.556 289.445C363.324 289.445 365.5 288.864 367.082 287.702C368.796 286.54 369.653 285.121 369.653 283.442C369.653 281.764 368.796 280.345 367.082 279.183C365.5 278.021 363.324 277.44 360.556 277.44C357.787 277.44 355.545 278.021 353.831 279.183C352.249 280.345 351.458 281.764 351.458 283.442C351.458 285.121 352.249 286.54 353.831 287.702C355.545 288.864 357.787 289.445 360.556 289.445Z" fill="#A32B00" fill-opacity="0.72"/>
<path d="M844.505 193.919C834.363 192.427 826.371 188.959 820.529 183.517C814.707 177.946 812.427 170.868 813.691 162.281C814.785 154.848 818.968 149.44 826.241 146.059C833.514 142.677 842.092 141.714 851.974 143.168C855.615 143.704 858.949 144.522 861.975 145.622C865.15 146.613 867.267 147.579 868.324 148.52C868.795 145.316 867.816 142.488 865.388 140.036C862.978 137.455 858.977 135.754 853.386 134.931C850.915 134.567 848.871 134.463 847.254 134.618C845.637 134.772 843.862 135.1 841.928 135.601C839.995 136.102 838.22 136.43 836.603 136.585C835.116 136.759 833.137 136.664 830.666 136.301C826.505 135.688 823.405 134.185 821.367 131.79C819.347 129.267 818.657 125.826 819.299 121.469C820.034 116.471 822.477 112.509 826.627 109.585C830.907 106.679 835.966 104.805 841.802 103.962C847.658 102.991 853.381 102.916 858.972 103.739C870.025 105.366 878.955 108.775 885.764 113.967C892.721 119.05 897.464 125.182 899.994 132.363C902.654 139.563 903.39 147.2 902.202 155.274C901.561 159.631 900.577 163.611 899.25 167.213C898.052 170.834 896.718 173.583 895.246 175.462C896.84 177.267 897.941 179.263 898.55 181.447C899.288 183.651 899.497 185.842 899.176 188.021C898.629 191.737 896.858 194.75 893.861 197.058C890.994 199.386 887.48 200.244 883.319 199.632C880.199 199.172 877.729 198.351 875.911 197.166C874.092 195.982 872.219 194.266 870.292 192.019C866.758 193.463 862.975 194.346 858.942 194.669C855.039 195.011 850.227 194.761 844.505 193.919ZM851.264 175.077C853.994 175.479 856.225 175.218 857.955 174.294C859.815 173.39 860.867 172.104 861.113 170.438C861.358 168.772 860.72 167.238 859.199 165.836C857.809 164.453 855.748 163.56 853.018 163.158C850.287 162.757 847.992 163.008 846.131 163.913C844.401 164.837 843.414 166.131 843.168 167.798C842.923 169.464 843.496 170.988 844.887 172.371C846.407 173.773 848.533 174.675 851.264 175.077Z" fill="#A32B00" fill-opacity="0.72"/>
<path d="M509.606 319.251C481.745 324.458 462.177 319.36 450.901 303.954C439.749 288.367 432.534 271.807 429.257 254.275C426.835 241.317 425.589 228.296 425.52 215.213C425.604 202.102 427.526 190.777 431.288 181.238C435.05 171.699 441.217 166.128 449.79 164.526C455.147 163.524 460.053 164.343 464.507 166.981C468.961 169.62 471.787 174.141 472.983 180.544C473.582 183.745 473.874 187.004 473.86 190.32C473.846 193.636 473.669 197.772 473.328 202.726C473.193 203.698 473.008 206.1 472.773 209.93C472.692 213.732 472.797 217.263 473.09 220.521C479.141 215.603 486.453 212.343 495.025 210.741C503.598 209.138 511.914 209.556 519.974 211.994C528.188 214.403 535.331 219.142 541.406 226.211C547.604 233.099 551.758 242.184 553.867 253.466C555.662 263.07 555.138 272.556 552.295 281.924C549.423 291.138 544.276 299.201 536.854 306.11C529.557 312.839 520.474 317.219 509.606 319.251ZM501.474 283.377C505.607 282.604 508.919 280.407 511.411 276.786C514.027 272.983 514.936 268.948 514.138 264.679C513.34 260.41 511.035 256.976 507.222 254.375C503.562 251.746 499.665 250.818 495.532 251.59C491.399 252.363 488.101 254.636 485.638 258.41C483.175 262.184 482.342 266.205 483.14 270.474C483.938 274.742 486.167 278.191 489.827 280.82C493.458 283.297 497.341 284.149 501.474 283.377Z" fill="#A32B00"/>
<path d="M604.5 245C596.355 245 589.215 243.008 583.079 239.025C576.942 234.932 572.2 229.289 568.853 222.098C565.618 214.796 564 206.387 564 196.872C564 187.579 565.506 180.277 568.519 174.966C571.531 169.655 575.715 167 581.07 167C590.554 167 595.295 171.813 595.295 181.438C595.295 183.43 595.24 185.2 595.128 186.749C595.017 188.187 594.905 189.46 594.793 190.566C594.347 194.991 594.124 198.532 594.124 201.187C594.124 206.055 595.128 209.762 597.136 212.306C599.145 214.851 601.599 216.123 604.5 216.123C607.512 216.123 609.967 214.906 611.864 212.472C613.872 209.928 614.876 206.166 614.876 201.187C614.876 197.647 614.709 194.383 614.374 191.396C614.262 190.4 614.151 188.962 614.039 187.081C613.928 185.089 613.872 183.264 613.872 181.604C613.872 171.868 618.614 167 628.097 167C633.452 167 637.581 169.655 640.481 174.966C643.494 180.166 645 187.468 645 196.872C645 211.587 641.541 223.315 634.624 232.055C627.707 240.685 617.665 245 604.5 245Z" fill="#A32B00" fill-opacity="0.72"/>
<path d="M762.91 258.647C749.1 263.887 736.317 265.442 724.558 263.312C712.747 261.04 703.123 254.642 695.688 244.117C692.643 239.805 689.609 234.283 686.585 227.551C683.561 220.819 680.022 212.111 675.967 201.429C668.019 180.485 663.885 162.998 663.566 148.968C663.33 134.745 669.844 125.117 683.107 120.084C691.31 116.97 698.857 117.483 705.746 121.623C712.772 125.71 717.939 132.112 721.246 140.826C724.767 150.104 727.776 160.299 730.273 171.412C732.77 182.525 735.505 196.12 738.478 212.199C745.888 206.17 754.653 201.236 764.771 197.396C775.299 193.401 784.796 192.047 793.263 193.337C801.867 194.574 807.849 199.621 811.209 208.476C814.463 217.051 814.129 224.414 810.207 230.566C806.285 236.718 800.614 241.765 793.194 245.706C785.72 249.507 775.626 253.821 762.91 258.647Z" fill="#A32B00"/>
<path d="M783.127 77.0791L817.089 43.1599C818.196 42.0171 819.519 41.106 820.982 40.4797C822.444 39.8533 824.017 39.5242 825.608 39.5116C827.199 39.499 828.777 39.803 830.249 40.4061C831.721 41.0091 833.059 41.8991 834.184 43.0241C835.309 44.1492 836.199 45.4868 836.802 46.9592C837.405 48.4316 837.709 50.0092 837.697 51.6003C837.684 53.1913 837.355 54.7639 836.729 56.2265C836.102 57.6891 835.191 59.0125 834.048 60.1195L800.129 94.1228" stroke="#A32B00" stroke-width="6" stroke-linecap="round" stroke-linejoin="round"/>
<path d="M774.753 89.8724C767.767 89.8724 762.128 95.5537 762.128 102.582C762.128 108.179 751.607 108.978 753.711 111.082C758.256 115.712 764.19 119.583 770.545 119.583C779.803 119.583 787.378 112.008 787.378 102.582C787.384 100.918 787.061 99.2699 786.43 97.7309C785.798 96.192 784.87 94.7924 783.698 93.6123C782.525 92.4321 781.132 91.4944 779.597 90.8527C778.063 90.2111 776.416 89.878 774.753 89.8724Z" stroke="#A32B00" stroke-width="6" stroke-linecap="round" stroke-linejoin="round"/>
<path d="M121.519 171.764L107.925 221.604" stroke="#BC6747" stroke-width="6" stroke-linecap="round" stroke-linejoin="round"/>
<path d="M50.2359 154.245C49.316 153.325 48.5864 152.233 48.0885 151.031C47.5907 149.83 47.3345 148.541 47.3345 147.241C47.3345 145.94 47.5907 144.652 48.0885 143.45C48.5864 142.248 49.316 141.156 50.2359 140.236C51.1558 139.316 52.2478 138.586 53.4497 138.089C54.6515 137.591 55.9397 137.334 57.2406 137.334C58.5415 137.334 59.8296 137.591 61.0315 138.089C62.2333 138.586 63.3254 139.316 64.2452 140.236L83.0006 158.987C83.4381 159.424 84.0315 159.67 84.6502 159.67C85.2689 159.67 85.8623 159.424 86.2999 158.987L90.7052 154.581C92.8143 152.472 95.6747 151.288 98.6572 151.288C101.64 151.288 104.5 152.472 106.609 154.581L111.015 158.987C111.452 159.424 111.698 160.018 111.698 160.636C111.698 161.255 111.452 161.848 111.015 162.286L72.2906 201.015C71.853 201.452 71.2596 201.698 70.6409 201.698C70.0222 201.698 69.4288 201.452 68.9912 201.015L64.5859 196.609C62.4771 194.5 61.2924 191.64 61.2924 188.657C61.2924 185.675 62.4771 182.814 64.5859 180.705L68.9912 176.3C69.4287 175.862 69.6744 175.269 69.6744 174.65C69.6744 174.032 69.4287 173.438 68.9912 173.001L50.2359 154.245Z" stroke="#BC6747" stroke-width="6" stroke-linecap="round" stroke-linejoin="round"/>
<path d="M75.3333 198C87.9799 206.419 91.4799 216.527 93.7573 228.721C93.8311 229.125 94.0091 229.503 94.2737 229.818C94.5383 230.133 94.8804 230.373 95.2662 230.516C95.652 230.658 96.0683 230.697 96.4739 230.629C96.8795 230.562 97.2605 230.39 97.5793 230.13L139.033 195.97C139.77 195.276 140.262 194.361 140.433 193.364C140.605 192.367 140.448 191.34 139.985 190.44C133.223 180.57 116.363 165.333 108 165.333" stroke="#BC6747" stroke-width="6" stroke-linecap="round" stroke-linejoin="round"/>
<path d="M114.25 328.167C115.401 328.167 116.333 327.234 116.333 326.083C116.333 324.933 115.401 324 114.25 324C113.099 324 112.167 324.933 112.167 326.083C112.167 327.234 113.099 328.167 114.25 328.167Z" fill="#A32B00" stroke="#A32B00" stroke-width="6" stroke-linecap="round" stroke-linejoin="round"/>
<path d="M130.917 344.833C132.067 344.833 133 343.901 133 342.75C133 341.599 132.067 340.667 130.917 340.667C129.766 340.667 128.833 341.599 128.833 342.75C128.833 343.901 129.766 344.833 130.917 344.833Z" fill="#A32B00" stroke="#A32B00" stroke-width="6" stroke-linecap="round" stroke-linejoin="round"/>
<path d="M93.4166 332.333C94.5672 332.333 95.4999 331.401 95.4999 330.25C95.4999 329.099 94.5672 328.167 93.4166 328.167C92.266 328.167 91.3333 329.099 91.3333 330.25C91.3333 331.401 92.266 332.333 93.4166 332.333Z" fill="#A32B00" stroke="#A32B00" stroke-width="6" stroke-linecap="round" stroke-linejoin="round"/>
<path d="M85.0833 353.167C86.2339 353.167 87.1667 352.234 87.1667 351.083C87.1667 349.933 86.2339 349 85.0833 349C83.9327 349 83 349.933 83 351.083C83 352.234 83.9327 353.167 85.0833 353.167Z" fill="#A32B00" stroke="#A32B00" stroke-width="6" stroke-linecap="round" stroke-linejoin="round"/>
<path d="M108 307.333C85.0833 307.333 66.3333 326.083 66.3333 349C66.3333 371.917 85.0833 390.667 108 390.667C111.858 390.667 114.867 387.558 114.867 383.633C114.867 381.812 114.117 380.154 113.046 378.946C111.837 377.742 111.221 376.229 111.221 374.258C111.205 373.341 111.374 372.43 111.718 371.58C112.061 370.73 112.573 369.957 113.221 369.309C113.87 368.66 114.642 368.149 115.493 367.805C116.343 367.461 117.254 367.292 118.171 367.308H126.487C139.2 367.308 149.633 356.879 149.633 344.167C149.521 324.05 130.754 307.333 108 307.333Z" stroke="#A32B00" stroke-width="6" stroke-linecap="round" stroke-linejoin="round"/>
<path d="M720.641 21.5251L720.598 21.5211" stroke="#BC6747" stroke-width="6" stroke-linecap="round" stroke-linejoin="round"/>
<path d="M702.509 28.5589L702.466 28.5548" stroke="#BC6747" stroke-width="6" stroke-linecap="round" stroke-linejoin="round"/>
<path d="M684.376 35.5927L684.333 35.5886" stroke="#BC6747" stroke-width="6" stroke-linecap="round" stroke-linejoin="round"/>
<path d="M719.015 38.8444L718.972 38.8403" stroke="#BC6747" stroke-width="6" stroke-linecap="round" stroke-linejoin="round"/>
<path d="M700.883 45.8781L700.84 45.8741" stroke="#BC6747" stroke-width="6" stroke-linecap="round" stroke-linejoin="round"/>
<path d="M717.389 56.1636L717.346 56.1595" stroke="#BC6747" stroke-width="6" stroke-linecap="round" stroke-linejoin="round"/>
<path d="M650.551 23.6813L667.87 25.3072L666.245 42.6264L648.925 41.0005L650.551 23.6813Z" stroke="#BC6747" stroke-width="6" stroke-linecap="round" stroke-linejoin="round"/>
<path d="M648.925 41.0005L639.453 48.8472L635.388 92.1452C635.144 94.7431 636.714 96.6376 639.311 96.8815L665.29 99.3203C667.888 99.5642 669.783 97.9948 670.026 95.397L674.091 52.0989L666.244 42.6264" stroke="#BC6747" stroke-width="6" stroke-linecap="round" stroke-linejoin="round"/>
<path d="M672.872 65.0883L639.046 53.177" stroke="#BC6747" stroke-width="6" stroke-linecap="round" stroke-linejoin="round"/>
<path d="M670.839 86.7373L637.014 74.826" stroke="#BC6747" stroke-width="6" stroke-linecap="round" stroke-linejoin="round"/>
<path d="M371.887 79.6666C377.166 82.2424 380.568 85.7085 382.092 90.0647C383.692 94.4427 383.346 100.694 381.054 108.818C377.32 122.049 371.101 132.115 362.396 139.014C353.714 145.836 344.566 150.021 334.953 151.569C325.417 153.138 317.492 152.99 311.178 151.125C306.486 149.717 303.051 147.996 300.873 145.961C298.694 143.926 298.107 141.129 299.111 137.57C300.618 132.231 306.406 129.604 316.476 129.689C320.624 129.773 324.593 129.306 328.384 128.288C323.462 123.557 318.943 118.732 314.826 113.811C308.725 117.101 303.704 118.19 299.764 117.078C296.596 116.184 294.38 114.724 293.117 112.696C291.953 110.614 291.764 108.18 292.55 105.394C293.139 103.305 294.033 101.469 295.231 99.8854C296.428 98.302 298.363 96.1749 301.036 93.5041L303.147 91.3433C312.197 82.0351 318.742 75.988 322.782 73.2018C326.007 70.9375 329.219 69.7555 332.417 69.6556C335.615 69.5557 339.565 70.0439 344.267 71.1201L352.645 73.3591C361.917 75.9758 368.331 78.0783 371.887 79.6666ZM336.411 94.9666C334.631 97.1373 332.624 99.3695 330.392 101.663C334.119 105.305 339.186 110.703 345.593 117.857C349.903 113.226 353.256 107.406 355.651 100.396L336.411 94.9666Z" fill="#A32B00"/>
<path d="M441.193 138.56C438.209 139.039 435.588 138.814 433.33 137.885C431.128 136.88 429.815 135.053 429.39 132.404C428.986 129.888 429.591 127.719 431.203 125.898C432.805 124.011 435.284 122.289 438.639 120.732C443.954 118.249 448.311 114.663 451.708 109.975C455.161 105.21 456.404 99.8142 455.437 93.7882L428.81 98.2636C424.699 98.9232 421.213 99.2447 418.354 99.228C415.483 99.145 413.025 98.4526 410.98 97.1505C409.001 95.8379 407.762 93.6254 407.262 90.513C406.37 84.9506 408.787 80.7251 414.514 77.8366C420.23 74.8819 427.697 72.6651 436.915 71.1863C445.469 69.8139 452.495 69.2982 457.991 69.639C463.543 69.903 468.132 71.5782 471.756 74.6647C475.369 77.685 477.718 82.5723 478.802 89.3267C480.151 97.7366 479.252 105.488 476.104 112.582C472.946 119.609 468.228 125.393 461.95 129.932C455.738 134.46 448.819 137.336 441.193 138.56ZM464.497 67.5765C462.64 67.8744 461.197 67.3588 460.167 66.0296C459.193 64.6236 458.467 62.4306 457.989 59.4507C457.575 56.8682 457.626 54.8562 458.143 53.4147C458.716 51.8965 459.931 50.9884 461.788 50.6905C465.302 50.1266 467.49 52.5266 468.351 57.8904C468.818 60.8041 468.743 63.0916 468.125 64.7529C467.563 66.3374 466.354 67.2786 464.497 67.5765ZM476.831 65.5977C474.975 65.8956 473.565 65.3746 472.601 64.0348C471.694 62.6182 471.017 60.5192 470.571 57.738C469.689 52.2417 470.939 49.2223 474.321 48.6798C477.902 48.1053 480.102 50.3675 480.92 55.4664C481.908 61.6248 480.545 65.0019 476.831 65.5977Z" fill="#A32B00" fill-opacity="0.72"/>
<path d="M542.359 68.3757C535.847 71.2947 530.271 73.5468 525.631 75.132C520.96 76.6484 516.713 77.2738 512.89 77.0081C509.104 76.643 506.457 74.7778 504.948 71.4123C503.347 67.8408 503.685 64.5548 505.962 61.5545C508.308 58.5234 511.547 55.8339 515.681 53.486C519.815 51.1381 525.274 48.4431 532.06 45.4012C538.983 42.2978 544.73 39.9689 549.302 38.4144C553.874 36.86 558.071 36.2156 561.894 36.4813C565.718 36.747 568.43 38.6656 570.031 42.2371C571.54 45.6026 571.137 48.8352 568.822 51.935C566.476 54.9661 563.149 57.736 558.841 60.2448C554.502 62.6849 549.008 65.3952 542.359 68.3757ZM566.093 120.219C563.831 121.233 561.887 121.486 560.26 120.978C558.701 120.439 557.537 119.311 556.767 117.594C556.059 116.015 556.003 114.514 556.601 113.091C557.167 111.6 558.17 109.707 559.611 107.411C562.091 103.578 564.015 100.158 565.384 97.152C566.722 94.0775 567.291 91.3067 567.091 88.8395C563.725 90.5132 558.032 93.1476 550.013 96.7427L542.142 100.395C535.493 103.375 529.973 105.108 525.58 105.592C521.225 105.977 518.139 104.143 516.323 100.091C514.906 96.9317 515.147 93.9783 517.043 91.231C518.977 88.3842 521.771 85.8944 525.425 83.7616C529.079 81.6288 533.647 79.3334 539.131 76.8752L543.861 74.7551L548.282 72.7732C555.136 69.7005 560.792 67.536 565.251 66.2798C569.747 64.9242 573.855 64.8149 577.575 65.9518C581.333 66.9892 584.274 69.8775 586.398 74.6166C588.4 79.081 588.936 84.4085 588.006 90.599C587.046 96.7209 584.636 102.544 580.774 108.07C576.95 113.496 572.056 117.545 566.093 120.219Z" fill="#A32B00"/>
<path d="M933.024 60.4606C936.223 53.2507 942.645 48.9805 952.293 47.65C961.514 46.3782 968.621 48.6386 973.612 54.431C978.745 60.2038 981.936 67.6128 983.183 76.6579C984.216 84.1483 984.657 92.5846 984.505 101.967C984.334 111.207 983.468 119.608 981.909 127.168C981.119 130.877 979.349 134.29 976.598 137.405C973.969 140.36 970.243 142.17 965.42 142.835C960.596 143.501 956.448 142.776 952.976 140.663C949.485 138.408 946.857 135.602 945.093 132.245C941.565 125.531 938.487 117.89 935.86 109.323C933.213 100.615 931.393 92.6574 930.399 85.4496C929.073 75.8392 929.949 67.5095 933.024 60.4606ZM987.028 186.301C983.234 191.289 978.358 194.193 972.399 195.015C966.44 195.837 960.96 194.36 955.958 190.586C950.956 186.811 948.045 181.956 947.227 176.02C946.408 170.084 947.895 164.622 951.689 159.635C955.483 154.647 960.359 151.742 966.318 150.92C972.277 150.099 977.757 151.575 982.759 155.35C987.762 159.124 990.672 163.98 991.491 169.916C992.309 175.851 990.822 181.313 987.028 186.301Z" fill="#A32B00"/>
</g>
<defs>
<clipPath id="clip0_45_2">
<rect width="418" height="1038" fill="white" transform="translate(1038 6.10352e-05) rotate(90)"/>
</clipPath>
</defs>
</svg>
