<svg width="2347" height="1237" viewBox="0 0 2347 1237" fill="none" xmlns="http://www.w3.org/2000/svg">
<path d="M0 1236.32V618.576V0.833252H2346.57V1236.32H0Z" fill="white"/>
<path d="M544.801 195.91C559.785 195.91 562.612 195.062 578.162 183.188C593.994 171.314 596.256 170.466 609.261 171.314C616.895 171.879 646.58 177.816 675.135 184.884C713.585 194.214 726.59 198.455 726.59 201.565C726.59 203.827 725.459 207.219 723.763 208.633C721.784 210.612 731.962 219.376 754.862 235.491C776.631 250.758 788.788 260.936 788.223 263.763C787.657 266.025 784.83 268.287 781.72 268.852C778.61 269.135 773.239 270.266 769.846 270.831C763.344 272.245 763.344 272.245 785.961 323.134L772.108 369.218C759.385 411.626 757.972 415.018 751.752 415.018C747.228 415.018 744.59 416.903 743.836 420.673C743.27 423.783 743.836 437.071 744.967 450.358C746.946 472.411 747.794 474.955 755.993 482.023C763.626 488.808 764.192 490.505 760.516 493.615C758.255 495.876 746.946 500.682 735.637 504.358C717.826 510.295 715.281 511.991 716.412 516.798C717.543 519.907 718.956 527.258 720.37 533.195C722.066 542.242 721.501 543.656 717.543 543.656C714.716 543.656 707.365 541.111 701.145 538.002C691.815 533.478 688.988 532.913 685.596 536.022C683.051 537.719 681.072 540.263 681.355 541.677C681.355 542.808 696.904 563.729 716.129 588.326C735.354 612.64 754.579 634.974 758.537 637.802C762.778 640.346 781.155 647.98 799.249 654.199C817.626 660.702 836.568 667.487 841.091 669.749C845.898 671.728 854.379 680.775 871.908 706.22L878.693 690.67C885.761 675.121 885.761 675.121 880.672 659.571C877.845 651.089 872.191 636.671 867.667 627.906C863.144 618.859 851.552 602.462 841.657 591.436C832.044 580.409 816.778 562.881 808.013 552.42C798.966 542.242 787.375 525.562 782.003 515.384C776.631 505.206 770.694 489.374 768.998 480.044C766.453 467.322 766.171 458.557 768.715 444.704C770.411 434.526 774.37 417.846 777.479 407.385C781.438 393.532 785.396 386.746 790.767 382.788C795.291 379.678 806.882 373.459 817.06 368.652C827.238 363.846 837.416 359.888 839.678 359.888C841.94 359.888 855.793 365.542 869.929 372.61C885.761 380.244 896.222 387.029 896.222 389.574C896.222 391.835 893.677 394.663 890.567 396.076C885.196 398.055 885.196 398.338 893.112 406.537C897.635 411.343 903.007 418.694 905.552 423.5C907.813 428.306 911.206 441.029 913.185 451.772C916.295 468.735 916.012 474.672 912.054 492.766C909.51 504.923 903.855 519.625 899.049 527.541C894.526 534.892 888.871 540.546 886.892 539.981C884.913 539.415 883.217 532.913 882.086 508.316L875.018 515.384C871.06 519.342 866.536 521.604 864.557 520.756C862.013 519.342 861.165 513.97 862.013 502.379C863.144 486.829 862.861 485.981 857.772 488.243C854.945 489.656 849.856 490.787 846.746 491.07C842.505 491.353 841.374 489.939 841.94 485.698C842.222 482.588 843.353 476.369 844.201 471.562C845.332 466.756 845.332 459.688 844.201 455.447C843.07 450.641 839.112 445.835 834.023 443.29C829.5 441.029 822.997 439.05 819.888 439.05C816.778 439.05 813.668 441.029 812.82 443.29C811.971 445.552 811.406 454.882 811.406 463.929C811.406 476.086 813.385 484.567 820.17 498.421C826.955 512.557 836.851 524.996 864.84 553.551C884.63 573.907 906.4 598.504 913.185 608.681C919.97 618.859 930.431 637.519 936.368 650.524C944.001 667.204 947.111 677.382 947.111 687.278C947.111 694.628 946.546 703.675 945.981 707.633C945.415 711.592 944.001 718.942 942.588 724.314C941.174 729.403 939.195 734.209 937.782 734.775C936.651 735.34 935.803 737.884 935.803 740.146C935.803 742.408 933.258 747.78 930.148 752.303C926.756 756.544 924.211 763.329 924.494 767.853C924.494 772.094 922.797 776.052 920.253 776.9C917.991 777.748 914.316 778.879 912.337 779.727C910.641 780.575 906.4 782.837 903.29 784.533C900.18 786.512 896.222 790.47 894.243 793.298C892.264 795.842 888.023 798.104 884.913 798.104C880.39 798.104 886.044 807.999 950.787 904.124L947.96 932.396C945.981 955.579 946.263 966.039 950.504 991.767C954.745 1016.93 955.028 1023.43 952.2 1025.98C950.221 1027.67 931.279 1036.44 910.358 1045.77C877.845 1059.9 869.929 1062.45 856.641 1062.16C848.159 1061.88 834.589 1061.32 826.956 1061.03C819.039 1060.75 808.861 1058.77 804.338 1056.51C799.814 1054.25 790.767 1049.44 784.83 1046.05C778.045 1042.37 772.956 1036.72 771.26 1032.2C769.281 1025.41 770.977 1021.17 795.856 984.133L821.301 985.83C843.919 987.526 847.877 986.961 855.793 981.872C863.709 977.065 864.84 975.086 863.426 968.584C862.578 964.06 858.903 950.773 855.793 938.616C850.987 921.935 847.877 915.15 842.505 911.757L842.264 911.62C837.469 908.879 807.794 891.916 719.522 843.339L708.213 848.711C701.993 851.821 685.596 856.627 671.742 859.454C658.172 862.281 645.732 865.674 644.601 867.37C643.47 869.066 638.664 882.354 624.811 923.914L580.989 943.139L535.754 939.464C491.084 935.506 490.519 935.788 482.037 941.726C474.687 946.814 471.859 947.38 462.247 945.118C456.027 943.704 448.959 940.029 446.697 937.202C443.587 933.527 439.912 932.113 433.975 933.244C427.19 934.092 423.514 932.396 416.164 925.61C411.357 920.804 404.855 916.846 402.028 916.846C399.483 916.846 394.96 915.15 392.415 913.171C389.588 911.192 387.609 906.385 387.326 902.145C387.326 897.056 392.132 887.443 400.614 875.852C408.247 865.674 417.294 856.061 421.253 854.365C425.211 852.669 431.43 851.821 435.389 852.669C439.347 853.517 447.545 855.496 453.765 856.909C459.985 858.606 480.906 860.302 500.131 860.868C528.969 861.433 535.471 860.868 537.45 857.475C538.864 855.213 544.236 843.622 549.89 832.03C559.22 811.957 560.916 809.978 583.816 794.711C597.104 785.664 607.848 777.465 607.848 776.334C607.848 774.921 599.083 763.329 588.623 750.041C569.398 726.293 569.115 726.01 536.885 711.591C517.943 703.11 503.524 698.021 502.11 699.435C500.414 700.848 497.021 701.979 494.194 701.979C491.084 701.979 488.823 699.717 488.257 695.759C487.88 691.424 485.524 689.068 481.189 688.691C477.514 688.126 474.404 685.299 473.273 681.623C472.142 676.817 469.88 675.403 464.791 675.969C459.137 676.534 457.723 674.838 455.744 666.639C454.613 660.985 452.634 657.027 450.938 657.875C449.242 658.723 446.415 657.592 444.436 655.896C442.457 653.917 441.043 649.676 441.043 646.283C441.043 642.608 438.216 638.084 434.54 635.823C431.148 633.561 415.881 626.493 400.614 620.273C383.085 612.922 370.928 609.247 366.688 610.378C363.295 611.226 350.573 609.247 338.698 606.137C326.541 602.744 316.081 600.2 315.233 600.2C314.384 600.2 313.819 602.744 313.819 605.854C313.819 609.247 311.84 611.509 308.73 611.509C306.186 611.509 298.552 607.833 291.767 603.027C281.306 595.394 279.327 595.111 275.652 598.786C273.39 601.048 269.997 602.462 268.584 601.613C267.17 600.765 262.081 594.546 257.275 587.478C249.642 576.169 248.228 575.038 243.139 578.43C238.616 581.258 235.506 580.692 224.762 575.603C217.694 571.928 209.213 569.101 205.537 569.101C202.145 569.101 195.925 565.425 191.401 561.185C185.747 555.53 183.768 550.724 183.768 543.09C183.768 536.871 182.354 532.064 180.093 531.499C178.396 530.934 175.569 526.127 174.438 520.756C173.307 515.101 173.59 507.75 175.286 503.51C177.265 497.855 177.265 493.615 175.004 489.374C172.742 484.567 172.742 479.761 175.569 470.431C178.962 459.971 181.223 457.426 190.836 454.034C199.883 450.924 204.689 450.641 216.281 453.468C228.438 456.295 234.375 460.536 286.961 511.709L312.405 516.232C326.541 518.777 343.505 521.604 350.573 522.452C357.641 523.3 366.688 524.714 370.928 525.562C375.452 526.127 378.845 525.562 378.845 523.866C378.845 522.169 369.798 508.599 358.489 493.615C347.463 478.348 337.85 467.604 337.285 469.301C336.719 471.28 333.892 472.976 330.782 472.976C326.541 472.976 324.562 470.431 322.866 461.667C321.17 452.337 319.756 450.358 314.384 450.358C309.013 450.358 307.882 448.379 306.468 437.071C305.337 428.589 302.51 421.804 299.4 419.259C295.442 416.432 292.05 405.971 287.526 384.767C282.437 359.605 280.458 354.234 275.652 353.103C272.542 352.255 266.605 348.296 262.081 344.338C257.84 340.38 254.448 334.161 254.448 330.202C254.448 326.244 251.055 319.742 246.814 315.218C240.595 308.998 239.746 305.889 241.16 298.255C242.291 293.166 242.008 288.643 240.312 287.794C238.898 286.946 237.485 282.988 237.485 278.465C237.202 274.224 239.181 268.852 241.725 266.59C244.27 264.329 245.966 259.805 245.401 256.695C244.835 253.303 246.814 245.669 249.642 239.732C252.469 233.23 259.254 225.596 265.191 221.638C275.086 215.135 276.5 214.853 292.615 218.245C301.945 220.224 311.84 223.052 314.667 224.465C317.777 226.162 325.411 245.104 336.719 279.878C346.332 309.281 355.944 336.422 357.923 340.663C360.185 345.187 379.693 367.521 441.043 433.395L455.179 415.018C466.205 400.6 473.273 394.663 487.126 387.877C496.739 383.071 504.938 378.548 505.503 377.982C505.786 377.417 502.676 373.741 498.435 369.783C491.367 363.563 487.974 362.998 465.922 362.715C452.069 362.715 438.498 361.584 435.389 359.888C430.582 357.344 430.017 355.365 431.713 344.904C432.561 338.401 435.671 330.202 438.781 326.527C441.608 323.134 444.153 321.721 444.718 323.417C445.001 325.679 449.807 325.396 461.399 322.852C470.163 320.59 476.948 318.045 476.1 316.632C475.535 315.501 466.77 314.653 456.592 314.653C440.477 314.653 437.085 313.522 429.451 306.737C424.362 302.496 418.708 295.711 416.729 291.187C414.467 286.946 413.336 282.705 414.185 281.292C415.033 280.161 421.535 282.705 429.169 286.946C441.608 294.297 443.587 294.58 458.006 291.753C468.749 289.773 476.1 290.056 481.472 292.035C485.713 293.449 489.671 294.862 490.519 294.862C491.367 294.862 491.932 292.883 491.932 290.622C491.932 288.36 486.561 283.271 480.058 279.313C471.859 274.507 463.66 272.245 454.613 272.245C443.587 272.245 441.043 273.093 441.043 277.051C440.76 281.575 440.477 281.575 436.802 276.486C434.54 273.376 431.43 263.481 429.734 254.716C427.755 242.842 427.755 236.622 430.017 232.099C431.996 228.423 434.823 224.748 436.519 223.617C438.216 222.486 452.069 221.355 467.336 221.355C494.477 221.355 494.76 221.355 505.503 211.743C511.157 206.654 518.791 200.999 522.466 199.02C525.859 197.324 536.037 195.91 544.801 195.91Z" fill="black"/>
<path d="M1413.6 441.877V349.993V258.109H1441.87V361.302L1462.79 340.946C1483.43 320.59 1484.28 320.307 1513.12 320.307L1488.24 345.469C1469.01 364.977 1463.92 371.762 1466.18 374.589C1467.6 376.568 1480.04 391.553 1493.61 407.95C1506.9 424.348 1517.07 438.484 1516.23 439.898C1515.1 441.029 1508.59 441.877 1488.52 442.159L1443.28 384.485L1441.87 441.877H1413.6Z" fill="black"/>
<path d="M1153.5 294.862V283.554V272.245H1218.52C1254.15 272.245 1283.55 273.093 1283.55 274.507C1283.55 275.637 1282.42 280.726 1277.89 294.862H1229.83V441.877H1204.39V294.862H1153.5Z" fill="black"/>
<path d="M1286.38 328.789L1299.95 323.134C1308.14 319.742 1320.02 317.763 1331.04 317.48C1340.66 317.48 1352.81 319.176 1357.9 321.155C1362.71 323.417 1369.49 328.789 1372.6 333.312C1377.69 340.663 1378.26 346.883 1379.67 441.877H1369.78C1362.71 441.877 1359.03 440.18 1357.06 436.222C1354.23 430.568 1354.23 430.568 1343.77 436.788C1336.42 441.029 1328.5 443.29 1318.89 443.29C1309.84 443.29 1301.64 441.311 1296.84 438.484C1292.6 435.657 1286.94 430.003 1284.4 425.762C1281.57 421.238 1279.59 412.757 1279.59 406.537C1279.87 400.317 1281.85 391.553 1284.11 386.746C1286.38 382.223 1293.44 375.72 1299.38 372.893C1305.6 369.783 1319.74 366.673 1331.04 365.825C1351.12 364.129 1351.4 363.846 1351.12 356.495C1350.84 351.972 1347.73 346.6 1343.2 342.925C1338.96 339.532 1331.89 336.988 1326.8 337.27C1321.72 337.27 1312.67 339.249 1307.01 341.511C1301.08 344.056 1295.99 345.752 1295.7 345.752C1295.14 345.752 1292.88 342.077 1286.38 328.789Z" fill="black"/>
<path d="M1540.54 332.181C1540.26 330.202 1545.63 325.962 1552.41 323.134C1560.9 319.459 1571.36 317.48 1584.64 317.48C1599.63 317.48 1606.7 318.894 1613.76 323.134C1618.57 326.244 1624.51 331.616 1626.49 335.291C1628.75 339.249 1630.45 359.323 1632.71 441.877H1622.25C1614.33 441.877 1610.65 440.463 1608.68 436.222C1605.85 430.568 1605.85 430.568 1596.8 435.94C1591.71 438.767 1583.51 442.159 1578.99 443.29C1574.47 444.139 1565.42 443.856 1559.2 442.159C1552.98 440.746 1544.78 435.94 1540.82 431.982C1535.17 425.762 1533.47 420.956 1533.19 407.668C1532.34 392.118 1532.91 390.139 1541.67 381.375C1546.48 376.286 1555.81 370.631 1562.03 368.652C1568.25 366.956 1580.12 365.542 1588.32 365.542C1602.74 365.542 1603.02 365.542 1602.74 357.344C1602.46 351.972 1599.63 346.883 1594.82 342.925C1590.86 339.815 1583.8 337.27 1578.99 337.27C1574.47 337.553 1565.42 339.249 1559.2 341.511C1549.02 345.187 1547.61 345.187 1544.22 340.663C1542.24 338.119 1540.54 334.161 1540.54 332.181Z" fill="black"/>
<path d="M1668.9 323.983C1670.59 322.852 1676.25 321.155 1680.77 320.025C1685.29 318.611 1700.28 318.045 1713.56 318.328C1734.2 318.894 1739.29 320.025 1748.9 326.244C1755.97 330.768 1762.48 338.401 1766.72 347.448C1771.52 356.778 1773.78 366.391 1773.78 376.851C1773.78 385.333 1771.81 398.338 1768.98 405.971C1765.87 414.736 1760.21 422.652 1752.3 429.154C1745.51 434.526 1734.49 440.463 1727.42 441.877C1720.35 443.573 1709.89 444.421 1693.49 441.877V501.248H1665.22V413.605C1665.22 346.317 1666.07 325.396 1668.9 323.983Z" fill="black"/>
<path d="M1977.65 324.971L1978.47 324.548C1986.96 320.307 1996.57 317.763 2005.33 317.48C2012.68 317.48 2022.01 319.176 2026.54 321.438C2030.78 323.417 2036.43 329.92 2039.26 335.574C2043.22 344.056 2044.06 353.951 2044.06 441.877H2018.62V399.469C2018.62 371.197 2017.49 354.516 2015.23 349.71C2013.25 345.752 2008.44 341.794 2004.48 340.946C2000.53 340.098 1994.31 340.38 1990.35 341.511C1986.39 342.359 1979.04 345.752 1964.9 354.234V441.877H1939.46V320.307H1950.77C1959.81 320.307 1962.36 321.438 1963.49 325.962C1964.87 331.496 1965.17 331.343 1977.65 324.971Z" fill="black"/>
<path d="M2082.8 327.941C2083.93 326.81 2090.15 323.983 2096.37 321.721C2103.72 318.894 2115.31 317.763 2129.45 318.045C2149.24 318.894 2151.78 319.742 2159.98 327.375C2164.79 332.181 2169.03 339.815 2169.87 344.338C2170.44 349.145 2171.85 372.893 2174.12 441.877H2162.81C2153.76 441.877 2151.22 440.746 2150.08 436.222C2148.67 430.568 2148.67 430.568 2139.62 435.94C2134.53 439.05 2125.2 442.442 2118.99 443.573C2110.5 444.987 2104.57 444.139 2094.95 439.615C2086.19 435.657 2080.82 430.851 2077.43 423.783C2074.6 418.128 2072.34 409.364 2072.34 404.558C2072.34 399.469 2074.88 390.987 2077.99 386.181C2081.1 381.092 2087.89 374.589 2092.97 372.045C2097.78 369.501 2111.92 366.673 2124.07 365.825C2144.43 364.129 2145.84 363.563 2145.84 357.909C2145.84 354.234 2142.73 348.296 2138.78 344.338C2133.97 339.532 2128.6 337.27 2121.81 337.27C2116.44 337.27 2107.11 339.249 2101.46 341.511C2095.52 344.056 2090.15 346.035 2089.3 346.035C2088.45 346.035 2086.19 342.359 2084.21 338.119C2082.23 333.878 2081.67 329.354 2082.8 327.941Z" fill="black"/>
<path d="M1807.43 425.762C1803.19 419.259 1802.06 409.929 1801.49 369.218L1800.36 320.307H1826.37V357.909C1826.37 378.265 1827.78 400.034 1829.2 405.971C1830.89 411.626 1834.57 417.846 1837.68 419.259C1840.79 420.956 1846.73 422.086 1851.25 422.086C1855.49 422.086 1863.12 419.542 1877.26 410.778V320.307H1902.7V366.391C1902.7 391.553 1903.84 418.976 1906.95 441.877H1895.07C1886.02 441.877 1882.91 440.746 1882.91 437.636C1882.91 435.374 1881.5 432.83 1880.09 431.982C1878.67 431.133 1872.45 433.395 1866.8 436.788C1859.45 441.029 1851.53 443.29 1841.92 443.29C1832.87 443.29 1824.67 441.311 1819.87 438.484C1815.63 435.657 1809.97 430.003 1807.43 425.762Z" fill="black"/>
<path d="M1159.15 565.425C1167.63 556.378 1177.81 549.593 1189.12 545.07C1201.56 539.981 1211.45 538.002 1227.29 538.002C1238.88 538.002 1254.99 539.981 1278.18 546.483V559.206C1278.18 570.232 1277.33 571.645 1273.09 570.232C1270.54 569.101 1262.34 566.556 1255.56 564.577C1248.49 562.315 1235.77 560.619 1227.29 560.619C1215.7 560.336 1207.78 562.598 1196.19 568.535C1183.18 575.038 1179.22 578.996 1172.72 592.001C1166.78 603.31 1164.81 611.226 1165.09 622.818C1165.09 631.299 1166.5 643.456 1168.48 649.676C1170.46 655.896 1176.4 665.508 1182.05 670.88C1187.42 676.252 1197.04 682.471 1203.26 684.168C1209.48 686.147 1220.5 687.843 1227.85 687.843C1235.2 687.843 1244.53 686.712 1248.49 685.016C1255.28 682.189 1255.56 681.058 1256.97 624.231H1282.42L1283.83 696.325L1275.91 700.283C1271.67 702.262 1261.21 705.654 1252.73 707.633C1243.68 709.612 1228.13 710.743 1215.98 709.895C1203.54 709.047 1189.4 706.22 1182.05 702.827C1174.98 699.717 1164.81 692.932 1159.72 687.56C1154.34 682.189 1147.56 672.859 1144.45 666.639C1140.49 659.006 1138.23 647.697 1137.38 632.713C1136.25 615.467 1137.1 606.42 1141.06 594.546C1144.45 584.65 1150.95 574.19 1159.15 565.425Z" fill="black"/>
<path d="M1344.62 597.373C1345.18 597.373 1351.97 593.98 1359.32 590.022C1369.49 584.65 1375.15 583.237 1382.78 584.368C1388.15 585.498 1393.24 586.629 1393.81 587.195C1394.37 587.76 1392.68 593.415 1390.13 599.917C1385.61 611.226 1385.04 611.509 1374.87 610.095C1367.23 608.681 1361.86 609.812 1346.03 619.99V707.633H1320.58V586.064H1331.89C1341.22 586.064 1343.2 586.912 1343.2 591.718C1343.2 594.828 1343.77 597.373 1344.62 597.373Z" fill="black"/>
<path d="M1422.93 592.566C1428.02 590.022 1435.93 586.912 1440.74 585.781C1445.26 584.368 1456.86 584.085 1466.18 584.65C1475.51 585.498 1485.98 587.76 1489.37 590.305C1493.04 592.566 1498.13 597.938 1500.68 602.179C1504.92 608.681 1505.77 617.729 1507.18 707.633H1496.44C1490.5 707.351 1484.56 705.654 1483.15 703.11C1480.6 699.717 1478.62 699.717 1469.01 704.806C1462.51 707.916 1452.05 710.461 1444.98 710.461C1437.06 710.461 1428.58 708.199 1422.93 704.806C1416.99 701.131 1412.19 694.911 1409.36 687.278C1405.97 677.665 1405.4 672.576 1407.66 663.812C1409.36 657.592 1413.6 649.676 1417.27 646.283C1420.67 642.891 1426.89 638.933 1430.85 637.519C1434.52 636.105 1446.96 634.126 1458.27 632.995C1477.78 631.299 1478.91 631.016 1478.91 624.231C1478.91 620.273 1476.36 614.619 1473.25 611.509C1469.29 607.551 1463.64 605.854 1454.88 605.854C1447.81 605.854 1437.91 607.551 1432.82 609.812C1424.06 613.488 1423.49 613.488 1413.88 597.373L1422.93 592.566Z" fill="black"/>
<path d="M1570.79 595.676C1575.31 593.132 1583.51 589.174 1589.17 587.195C1594.54 584.933 1604.72 583.802 1611.79 584.65C1620.55 585.498 1626.49 588.043 1638.64 600.483L1652.78 593.132C1660.41 589.174 1672.57 585.216 1679.64 584.368C1688.4 583.237 1695.19 584.368 1702.26 588.043C1707.63 590.87 1714.13 597.373 1716.96 603.027C1721.2 611.226 1722.05 620.838 1722.05 707.633H1696.6L1695.75 662.116C1695.19 617.446 1694.91 616.598 1688.12 611.226C1684.16 608.116 1679.07 605.572 1676.81 605.854C1674.27 605.854 1666.63 608.681 1647.13 618.577L1645.71 707.633H1617.44V663.246C1617.44 628.755 1616.59 617.163 1613.48 612.922C1610.65 608.964 1606.13 607.268 1598.5 607.268C1592.56 607.268 1582.95 610.095 1566.55 619.99V707.633H1541.11V586.064L1551.57 586.912C1560.61 587.477 1562.31 588.608 1562.31 593.98C1562.31 600.483 1562.59 600.483 1570.79 595.676Z" fill="black"/>
<path d="M1789.05 595.394C1793.29 592.566 1801.21 588.891 1806.86 586.912C1812.23 584.933 1819.58 583.519 1822.98 583.237C1826.65 583.237 1833.72 585.216 1839.38 587.478C1844.75 589.739 1850.4 594.263 1852.1 597.373C1854.64 603.027 1854.92 603.027 1865.39 595.959C1871.32 592.001 1880.93 587.195 1886.59 585.781C1892.53 584.085 1902.14 583.802 1907.79 584.65C1913.73 585.781 1921.08 588.326 1924.19 590.305C1927.3 592.566 1931.54 597.655 1933.8 602.179C1936.63 607.833 1938.04 623.948 1939.74 707.633H1911.47V663.246C1911.47 628.755 1910.62 617.163 1907.51 612.922C1904.4 608.964 1900.16 607.268 1892.53 607.551C1886.59 607.551 1876.98 610.378 1860.58 619.99V707.633H1835.13L1834.29 662.116C1833.72 617.446 1833.44 616.598 1826.65 611.226C1822.69 608.116 1817.61 605.572 1815.34 605.854C1812.8 605.854 1805.17 608.681 1785.66 618.577L1784.24 707.633H1755.97V586.064H1767.28C1776.89 586.064 1778.59 586.912 1780 593.132C1781.42 600.2 1781.42 600.2 1789.05 595.394Z" fill="black"/>
<path d="M1982.15 592.849C1986.95 590.022 1994.31 586.912 1998.55 585.781C2002.79 584.368 2013.81 583.802 2023.14 584.085C2032.76 584.65 2043.22 586.912 2047.74 589.739C2051.98 592.284 2057.92 597.938 2060.46 602.179C2064.7 608.681 2065.55 617.729 2066.96 707.633H2056.22C2050.28 707.351 2044.35 705.654 2042.93 703.11C2040.39 699.717 2038.41 699.717 2028.8 704.806C2022.29 707.916 2011.83 710.461 2004.77 710.461C1996 710.743 1988.65 708.482 1982.15 704.241C1976.78 700.565 1970.56 693.215 1968.58 687.843C1966.32 682.189 1965.19 673.707 1966.03 668.053C1966.88 662.681 1970.56 654.482 1974.23 649.959C1977.63 645.435 1984.41 640.063 1989.22 638.084C1993.74 636.105 2006.75 633.561 2018.05 632.147C2036.71 630.168 2038.69 629.32 2038.69 623.666C2038.69 619.99 2036.15 614.619 2033.04 611.509C2028.8 607.268 2023.43 605.854 2013.25 605.854C2005.33 605.854 1995.15 607.833 1990.63 610.095C1982.15 614.336 1981.87 614.053 1977.91 605.854C1973.67 597.655 1973.67 597.373 1982.15 592.849Z" fill="black"/>
<path d="M2131.14 594.828C2135.38 591.718 2142.17 588.043 2146.13 586.347C2149.8 584.65 2157.43 584.085 2163.09 584.65C2168.46 585.498 2173.55 586.629 2174.12 586.912C2174.96 587.477 2172.98 593.132 2169.87 599.352C2164.79 610.378 2163.65 610.943 2154.61 609.812C2147.54 608.681 2141.89 610.095 2126.34 619.99V707.633H2100.89V586.064L2111.35 586.912C2120.12 587.477 2122.1 588.608 2123.51 600.2L2131.14 594.828Z" fill="black"/>
<path d="M1416.71 973.39V881.506V789.622H1442.15V863.129L1455.44 856.061C1465.05 850.972 1473.25 848.993 1483.71 848.993C1495.31 848.993 1500.39 850.407 1507.18 856.061C1511.7 860.019 1516.79 867.936 1518.49 873.873C1519.9 879.527 1521.32 904.406 1521.32 973.39H1495.87L1495.02 928.438C1494.46 888.009 1493.89 882.92 1488.8 877.548C1485.41 873.873 1479.76 871.611 1474.67 871.611C1469.86 871.611 1461.1 874.721 1443.57 884.616L1442.15 973.39H1416.71Z" fill="black"/>
<path d="M1835.13 973.39V881.506V789.622H1860.58V973.39H1835.13Z" fill="black"/>
<path d="M1180.64 816.481C1186.01 811.109 1194.49 805.455 1199.58 803.758C1204.67 802.345 1217.11 801.496 1227.29 802.062C1237.18 802.91 1249.06 804.889 1253.3 807.151C1260.08 810.261 1261.21 812.523 1261.21 834.857L1247.08 829.203C1239.16 826.093 1228.13 823.549 1222.2 823.549C1215.98 823.266 1208.63 825.528 1203.82 829.203C1198.73 832.878 1196.19 837.402 1195.9 842.773C1195.9 847.014 1198.45 853.517 1201.28 857.475C1204.1 861.433 1215.98 869.632 1227.29 875.852C1238.31 882.072 1251.88 891.967 1257.26 897.904C1262.34 903.558 1267.43 912.605 1268.56 917.694C1269.41 922.501 1269.41 931.548 1268.56 937.485C1267.43 943.139 1263.19 951.903 1258.95 956.71C1254.71 961.516 1245.38 967.453 1238.6 969.997C1231.24 972.825 1218.52 974.521 1208.91 974.521C1197.6 974.238 1186.86 971.694 1176.96 967.453C1168.76 963.778 1161.98 960.385 1161.98 960.102C1161.98 959.537 1164.52 955.296 1167.07 950.49C1170.18 945.118 1173.57 942.574 1176.4 943.422C1178.66 944.27 1186.29 946.814 1193.36 949.359C1200.99 952.186 1209.76 953.6 1215.98 952.469C1221.35 951.621 1229.27 948.511 1233.51 945.118C1238.78 941.349 1241.42 936.919 1241.42 931.83C1241.42 927.307 1239.44 921.087 1237.18 917.694C1234.64 914.019 1223.05 905.537 1210.89 898.752C1199.01 891.967 1184.88 881.789 1179.79 876.134C1174.42 870.197 1169.89 861.433 1169.05 855.496C1167.92 849.559 1167.92 840.512 1169.05 835.706C1169.89 830.617 1174.98 821.852 1180.64 816.481Z" fill="black"/>
<path d="M1307.3 869.632C1312.67 863.695 1321.15 856.627 1326.52 854.082C1332.18 850.972 1342.64 848.993 1353.1 848.993C1362.43 848.993 1374.02 850.124 1379.11 851.821C1387.59 854.365 1388.44 855.779 1388.44 865.957C1388.44 872.176 1388.15 877.265 1387.59 877.265C1387.31 877.265 1382.22 875.569 1376.28 873.025C1370.63 870.763 1361.58 868.784 1356.49 868.784C1351.4 868.784 1343.2 871.328 1338.11 874.438C1333.02 877.548 1326.8 883.485 1323.98 887.726C1320.87 892.815 1319.17 900.731 1319.17 911.192C1319.17 921.558 1321.06 929.851 1324.83 936.071C1327.93 941.16 1334.44 947.097 1339.53 949.359C1344.62 951.621 1352.53 953.6 1357.34 953.6C1361.86 953.6 1370.06 951.621 1375.71 949.359C1385.33 945.118 1385.61 945.401 1388.44 952.186C1389.85 956.144 1391.26 960.668 1391.26 962.081C1391.26 963.778 1385.04 967.17 1377.69 969.715C1370.34 972.542 1357.34 974.521 1348.86 974.521C1338.11 974.521 1329.63 972.542 1322 968.018C1315.78 964.626 1307.86 957.841 1304.19 952.752C1300.79 947.663 1296.55 939.181 1295.14 933.809C1293.44 928.438 1292.31 918.825 1292.31 912.605C1292.31 906.385 1293.44 896.49 1295.14 890.836C1296.55 884.899 1302.21 875.286 1307.3 869.632Z" fill="black"/>
<path d="M1562.31 869.349C1565.7 864.543 1573.34 857.758 1579.56 854.648C1586.62 851.255 1596.52 849.276 1607.54 849.276C1619.42 848.993 1627.9 850.972 1636.95 855.496C1643.73 858.889 1652.5 866.239 1655.89 871.611C1659.57 876.983 1663.81 888.574 1665.5 897.056C1667.76 908.647 1667.76 916.281 1665.5 926.741C1663.81 934.657 1659.28 945.684 1655.32 951.621C1651.65 957.275 1643.17 964.909 1636.38 968.301C1628.18 972.542 1619.14 974.521 1607.54 974.521C1594.26 974.521 1587.75 972.825 1577.86 967.453C1568.25 962.081 1563.16 956.144 1557.22 944.835C1551.57 933.527 1549.3 925.328 1549.3 914.019C1549.3 905.537 1551 893.946 1552.7 888.574C1554.39 883.202 1558.63 874.438 1562.31 869.349Z" fill="black"/>
<path d="M1704.8 866.239C1709.04 860.868 1716.67 854.93 1722.05 852.951C1727.42 850.972 1739.29 849.276 1748.06 848.993C1757.1 848.993 1767.85 850.407 1772.09 852.103C1776.33 853.8 1783.68 858.323 1787.92 862.564C1792.44 866.805 1798.66 875.286 1801.49 881.506C1804.88 888.857 1806.58 899.317 1806.86 911.192C1806.86 925.328 1805.17 932.961 1799.79 943.704C1795.84 951.621 1788.49 960.668 1783.4 964.06C1778.31 967.453 1768.13 971.694 1760.78 973.107C1753.43 974.804 1743.25 975.369 1738.16 974.521C1733.07 973.39 1724.31 970.28 1718.37 967.453C1712.72 964.343 1704.24 956.71 1699.99 950.207C1693.77 940.877 1692.08 934.375 1691.23 918.542C1690.66 906.668 1691.51 893.946 1693.77 887.161C1696.04 880.941 1700.84 871.611 1704.8 866.239Z" fill="black"/>
<path fill-rule="evenodd" clip-rule="evenodd" d="M607.282 181.774C610.675 181.774 632.162 186.298 655.062 191.669C678.245 197.041 699.732 202.13 703.124 202.978C707.93 204.109 709.061 205.805 707.93 209.763C706.8 214.004 712.454 219.093 736.202 235.774C752.6 247.365 765.888 257.543 766.171 258.957C766.171 260.088 763.626 260.936 760.516 260.936C757.406 260.936 746.098 256.412 735.072 251.041C724.045 245.669 713.019 241.145 710.192 241.145C707.082 241.145 708.213 242.842 713.868 245.669C718.391 247.931 728.569 254.716 736.485 260.653C748.642 269.7 752.035 274.789 773.804 324.548L763.909 357.06C758.82 374.872 753.166 390.704 752.035 392.4C750.621 394.097 747.511 390.704 744.119 383.919C741.291 377.699 735.072 363.28 730.548 351.972C725.459 338.966 720.653 331.616 718.108 331.616C715.281 331.616 714.904 332.37 716.977 333.877C718.674 335.008 722.915 347.165 726.025 361.301C729.7 377.699 732.244 402.578 733.375 430.568C734.506 462.515 736.202 476.086 739.312 480.892C741.574 484.284 743.553 487.677 743.553 488.525C743.553 489.373 736.768 491.918 728.569 494.462C716.412 498.138 713.585 498.42 711.889 495.31C710.758 493.049 709.061 485.698 708.213 478.63C707.365 471.279 704.255 463.646 701.145 460.253C697.753 456.861 695.208 456.012 695.491 458.274C695.491 459.97 696.622 462.232 698.318 463.08C700.014 463.929 701.145 470.431 701.145 478.065C701.145 485.415 702.276 498.986 703.972 508.316C705.386 517.645 706.234 525.561 705.951 526.127C705.669 526.41 701.711 525.279 697.187 523.3C692.664 521.321 686.726 514.818 683.899 509.164C680.789 503.227 677.962 498.42 677.114 498.42C676.266 498.42 676.549 503.792 677.397 510.577C678.81 519.624 677.679 524.713 673.156 532.347C668.067 541.394 667.784 542.807 671.46 548.745C673.721 552.137 675.418 555.53 674.852 556.378C674.57 556.943 669.198 556.378 662.978 554.682C652.8 552.137 650.538 552.42 641.774 558.922C636.402 563.163 631.596 565.425 631.031 564.294C630.465 562.881 632.162 549.31 634.423 533.76C636.685 518.211 639.512 492.766 640.643 477.216C642.339 455.73 642.057 449.51 639.512 451.206C637.533 452.337 634.706 462.515 633.01 473.824C630.465 490.504 628.203 495.876 620.853 503.509C616.047 508.598 611.24 512.556 609.827 512.556C608.696 512.556 607.282 502.661 606.434 490.787C605.586 478.63 603.607 465.059 602.476 460.253C600.78 454.316 599.931 462.232 599.366 522.452L584.665 546.2C576.466 559.205 566.288 572.21 561.764 575.32C556.675 578.713 554.131 579.278 554.131 577.016C554.131 575.037 556.11 567.121 558.372 559.205C560.916 551.572 562.612 543.09 562.612 540.828C562.33 537.718 561.482 538.001 558.372 542.242C556.11 545.352 553.848 547.331 553.283 546.483C552.717 545.635 549.89 539.132 542.822 518.211L552.717 503.509C558.089 495.31 562.612 486.829 562.612 485.133C562.612 483.154 556.675 487.96 549.042 495.876C541.691 503.792 529.817 513.405 522.184 517.08C514.833 520.755 498.435 526.41 485.43 529.237C472.708 532.347 461.681 534.326 460.833 533.76C459.985 532.912 465.922 522.734 473.838 510.577C486.844 490.222 489.671 487.677 508.33 478.63C524.445 470.714 529.252 467.038 531.513 460.253C533.21 455.447 534.34 451.206 534.34 450.358C534.34 449.51 532.079 452.62 529.252 457.426C525.011 464.211 519.922 467.038 502.393 472.41C488.823 476.086 472.99 478.63 460.833 478.63C449.807 478.63 440.477 477.782 439.912 476.651C439.064 475.237 448.394 466.756 460.268 457.143C472.142 447.814 486.844 437.353 492.498 433.96C498.435 430.568 502.959 427.175 502.393 426.327C502.11 425.479 492.781 427.175 481.472 429.719C470.163 432.547 460.551 433.96 459.702 432.829C458.572 431.416 462.247 424.913 467.053 418.128C474.121 408.515 482.037 402.861 499.566 394.097C512.571 387.594 523.032 380.809 523.032 379.113C523.032 377.134 519.356 372.61 507.482 362.432L548.759 363.28C585.795 364.128 590.884 364.694 596.256 369.783C599.649 372.893 602.476 374.589 602.193 373.458C602.193 372.045 601.062 368.652 599.366 365.542C597.67 362.432 591.733 358.757 585.23 357.06C579.01 355.647 573.921 352.82 573.921 351.406C573.921 349.992 576.748 343.207 586.078 324.548L606.151 326.809C618.591 328.223 628.203 330.768 631.313 333.877C634.706 337.082 636.308 337.553 636.12 335.291C636.12 333.312 634.141 329.637 631.879 327.375C629.617 325.113 623.114 321.72 617.743 320.307C609.827 318.045 607.848 316.066 607.848 310.412C607.848 304.475 609.261 303.344 616.895 302.778C625.094 301.93 626.224 300.799 627.073 293.449C627.638 285.815 629.052 284.684 642.622 281.574C650.538 279.595 660.433 278.747 664.392 279.595C671.46 281.009 671.46 281.009 665.805 276.485C661.282 272.81 656.475 272.245 642.339 273.375C631.031 274.506 622.266 273.941 617.743 271.679C613.785 269.7 610.392 267.438 610.675 266.59C610.675 265.742 611.523 260.936 612.654 255.847C614.916 246.8 615.198 246.8 630.465 246.8C642.622 246.8 647.711 245.386 653.648 240.297C659.303 235.774 661.564 230.967 661.847 222.769C662.413 216.549 661.847 209.763 660.716 208.067C659.585 205.805 653.366 204.392 646.015 204.392C638.947 204.392 628.203 206.936 621.984 210.046C615.764 213.156 610.109 215.135 609.261 214.287C608.413 213.439 610.109 209.763 612.654 205.805C615.481 201.847 619.722 198.172 621.984 197.606C624.245 197.041 623.397 196.476 619.722 196.193C616.329 196.193 610.109 197.889 605.586 200.434C599.083 204.392 596.822 204.674 579.01 197.324L589.754 189.408C595.973 185.167 603.607 181.774 606.999 181.774L607.282 181.774ZM558.654 204.957C560.351 204.674 569.115 206.936 578.445 209.763C590.884 213.722 596.256 217.114 598.801 222.486C600.78 226.444 604.455 229.837 606.717 229.837C608.979 229.837 616.329 226.727 622.832 222.769C629.617 218.81 638.381 215.701 642.622 215.701C647.146 215.701 651.386 217.68 652.517 219.941C653.931 222.486 652.8 226.444 649.125 229.837C644.601 234.643 640.078 235.491 626.507 235.491C616.047 235.208 608.413 236.622 606.434 238.884C604.455 240.863 602.193 249.061 601.345 256.695C600.214 264.611 600.497 272.245 601.628 273.941C603.041 275.637 606.717 278.464 610.109 280.443C613.785 282.14 616.612 285.532 616.612 287.794C616.612 290.621 613.502 292.318 607.282 292.883C599.083 293.448 598.235 294.297 597.387 304.192C596.822 313.804 595.973 314.652 587.492 315.501C579.576 316.066 577.314 318.045 560.068 351.406H502.676C471.294 351.406 444.718 350.558 443.587 349.427C442.739 348.296 442.457 345.186 443.022 342.924C443.87 340.097 452.917 336.705 469.032 333.312C482.603 330.485 495.891 326.809 498.435 325.679C502.676 323.7 503.524 319.176 503.807 282.14L486.561 271.679C472.99 262.915 466.77 260.936 455.462 260.936C442.174 260.936 441.326 260.37 441.326 253.868C441.326 249.156 443.21 246.329 446.98 245.386C450.09 244.538 452.634 242.842 452.634 241.145C452.634 239.732 450.655 238.318 448.394 238.318C446.132 238.318 444.153 237.187 444.153 235.491C444.153 233.795 457.723 232.946 480.906 233.512C501.262 233.795 517.66 233.229 517.66 232.098C517.66 230.685 514.833 229.271 511.157 228.423C505.22 227.009 505.22 226.727 514.833 217.114C523.314 208.915 526.99 207.219 540.278 206.371C548.759 205.805 556.958 205.24 558.654 204.957V204.957ZM288.374 228.423C294.029 229.554 301.379 231.533 304.772 232.946C310.144 234.925 314.667 245.386 349.159 349.992L392.415 397.489C422.666 430.568 438.216 445.269 452.352 448.944L433.975 463.929C424.08 471.845 415.881 480.609 415.881 482.871C415.881 485.133 417.86 487.677 420.122 488.525C422.383 489.373 435.106 489.939 448.394 489.939C461.681 489.939 472.425 490.504 472.425 491.352C472.425 492.201 467.053 501.248 460.551 511.991C454.048 522.452 446.697 533.195 444.436 536.022C440.76 539.98 437.65 540.828 430.017 539.415C424.645 538.284 415.033 535.457 409.096 532.912C400.331 528.954 392.698 520.473 370.363 489.939C354.531 468.169 342.374 448.944 342.374 445.552C342.374 441.876 340.96 439.049 339.547 439.049C337.85 439.049 335.871 440.746 334.74 442.725C333.327 444.704 331.913 441.594 330.499 434.808C329.369 428.589 328.52 418.693 328.52 413.039C328.238 406.819 327.107 402.861 325.411 403.709C323.714 404.557 322.018 408.798 321.17 413.604C320.322 418.411 318.343 422.086 316.929 422.086C315.233 422.086 313.254 415.301 312.405 407.385C311.557 399.186 310.144 389.856 308.165 381.092L304.207 386.746C300.814 391.835 300.248 390.987 297.139 375.437C295.442 366.107 293.18 355.93 292.615 352.82C291.767 349.71 286.112 344.621 279.327 341.511C271.128 337.553 267.17 333.877 266.605 329.637C266.322 324.83 268.301 322.286 281.589 316.349L274.521 315.501C270.563 314.935 263.778 312.956 259.537 310.977C253.882 308.715 251.903 305.888 252.469 301.93C253.034 297.972 255.861 295.993 261.799 295.428C266.322 294.862 271.411 293.449 273.107 292.035C274.804 290.621 270.846 288.642 263.212 287.229C253.882 285.532 250.207 283.271 249.642 279.313C249.076 276.203 250.207 272.527 252.469 271.396C254.448 270.265 261.799 269.983 281.589 272.245L269.432 265.177C261.233 260.37 257.558 256.129 257.558 251.889C257.558 248.213 259.254 242.842 261.516 239.732C265.474 234.077 265.474 234.077 277.065 240.58C283.568 243.973 288.657 245.952 288.657 244.821C288.94 243.407 286.112 240.014 283.003 236.905C279.893 233.795 277.348 230.119 277.631 228.706C277.914 227.575 282.72 227.292 288.374 228.423V228.423ZM432.561 296.558C435.106 297.972 446.697 299.103 458.289 299.103C469.88 299.103 482.32 300.234 485.713 301.365C489.671 302.496 492.215 305.605 492.215 308.998C492.215 312.108 491.367 314.652 489.953 314.652C488.823 314.37 484.865 312.673 480.906 310.412C476.948 308.15 466.205 306.454 456.027 306.171C446.415 306.171 435.954 304.757 432.844 303.344C429.734 301.93 427.472 299.103 427.755 297.407C428.038 295.428 429.734 295.145 432.561 296.558V296.558ZM1693.49 340.097H1708.48C1719.78 339.815 1725.44 341.511 1731.66 346.317C1736.18 349.992 1741.55 357.06 1743.82 362.149C1745.79 366.956 1747.49 375.72 1747.49 381.092C1747.49 386.463 1745.51 395.51 1743.25 400.882C1740.99 406.254 1734.77 413.322 1729.68 416.432C1723.46 420.39 1716.67 422.086 1695.19 420.672L1693.49 340.097ZM844.201 373.175C847.311 374.024 853.248 376.568 857.489 378.547C861.73 380.809 865.405 383.636 865.405 385.332C865.405 387.029 862.295 388.16 858.903 388.16C853.814 388.16 854.662 389.291 863.992 394.945C870.212 398.62 880.39 407.95 886.609 415.583C895.939 426.892 898.484 433.112 901.594 450.358C904.703 467.321 904.703 475.237 902.159 489.939C900.18 500.117 897.918 509.446 896.787 511.143C895.939 512.839 894.243 503.792 892.264 468.735L884.913 482.871C880.955 490.787 876.431 497.007 875.018 497.007C873.604 497.007 872.756 487.677 874.17 454.599L866.819 465.342C862.861 470.997 858.337 475.237 856.924 474.389C855.227 473.541 854.662 470.714 855.793 468.169C856.641 465.342 856.076 456.295 854.379 448.379C851.835 437.07 850.139 433.678 847.029 434.808C844.484 435.657 838.264 432.547 832.893 427.74C825.825 421.803 822.997 420.672 822.997 423.5C822.997 425.761 820.736 427.74 817.908 427.74C815.081 427.458 810.558 430.285 807.448 433.678C802.642 438.766 801.793 443.29 801.793 461.384C802.076 479.195 803.49 485.698 810.275 499.834C815.647 510.86 828.652 527.823 848.159 548.745C864.557 566.273 884.065 588.608 891.698 598.22C899.049 607.833 912.054 629.32 920.536 646.283C931.562 667.77 936.085 679.644 936.085 687.843C936.085 694.062 934.672 699.717 933.258 700.565C931.562 701.413 930.996 705.089 931.845 709.047C932.41 713.005 931.845 716.115 930.431 716.115C928.735 716.115 926.756 721.486 926.19 728.272C925.342 734.774 922.798 742.125 920.536 744.387C917.991 746.648 915.447 752.868 914.881 757.957C913.751 764.742 911.771 767.287 906.4 768.418C902.442 769.266 899.332 770.962 899.332 772.659C899.332 774.355 897.353 775.486 895.091 775.486C892.546 775.486 889.719 777.748 888.306 780.575C886.892 783.119 882.369 785.946 878.128 786.795C873.887 787.643 869.363 786.795 867.95 784.816C865.971 781.988 871.06 776.617 906.4 747.779L914.316 714.418C918.557 695.759 921.667 679.644 921.101 677.947C920.536 676.251 915.73 690.104 900.745 742.125L876.714 759.371C856.641 773.507 851.269 776.051 844.767 774.355C840.526 773.507 837.133 773.224 837.133 774.072C837.133 774.92 841.091 777.182 846.18 779.444C853.531 782.554 864.274 796.407 897.07 844.469C920.253 878.113 938.913 908.364 938.913 912.039C938.913 915.432 937.782 924.196 936.651 931.547C935.52 938.898 933.258 943.987 931.845 942.856C930.148 941.725 930.148 943.987 931.279 949.358C932.693 953.882 936.085 971.128 938.913 987.526C941.74 1003.92 943.153 1018.06 942.022 1018.91C941.174 1019.76 923.646 1027.67 903.573 1036.44C883.217 1045.2 865.688 1052.55 864.557 1052.55C863.426 1052.55 862.578 1050.01 862.578 1046.9C862.578 1043.79 861.165 1041.24 859.751 1041.24C858.055 1041.24 856.076 1043.79 855.51 1046.9C854.662 1050.01 851.835 1052.55 849.008 1052.55C846.18 1052.55 842.505 1051.14 840.526 1049.16C838.547 1047.18 836.851 1042.66 836.851 1039.26C836.851 1035.59 836.003 1032.76 834.872 1032.76C833.741 1032.76 831.196 1036.72 829.217 1041.81C826.107 1050.57 825.259 1050.85 816.495 1048.88C811.406 1047.75 805.752 1045.2 803.49 1043.22C800.38 1040.39 800.38 1038.42 804.338 1032.2C806.6 1027.67 808.013 1024.28 807.448 1024.28C806.6 1024.28 802.076 1027.11 797.27 1030.78C789.071 1036.44 788.223 1036.72 783.699 1032.2C779.459 1027.95 779.741 1026.54 801.793 995.725L822.997 997.421C834.589 998.269 849.573 1000.25 856.076 1001.94C862.578 1003.36 869.646 1003.64 871.625 1002.51C873.887 1001.38 872.191 999.683 858.337 994.028L869.646 986.96C875.866 983.002 883.499 977.065 886.609 973.672C889.719 970.28 891.133 967.17 890.002 966.322C888.871 965.474 885.478 966.039 882.369 967.735C878.128 969.714 876.149 969.714 875.301 967.17C874.452 965.191 871.343 954.165 868.233 943.139C863.709 927.306 863.426 922.217 865.971 921.369C868.515 920.804 867.667 918.542 863.992 914.301C860.882 910.909 826.955 890.27 789.071 868.218C750.904 846.448 718.108 826.658 716.129 824.114C714.15 821.286 712.454 814.218 712.454 807.999C712.454 801.779 709.909 791.318 706.8 784.816C703.69 778.03 700.297 773.224 699.166 774.072C698.035 774.92 698.601 778.878 700.862 783.119C702.841 787.643 703.972 796.69 702.841 815.915L675.983 793.863C649.407 771.81 648.842 771.528 623.68 775.203L602.476 748.345C590.602 733.643 577.314 719.225 572.79 716.115C567.984 713.287 550.738 705.089 534.623 697.738C518.225 690.67 503.807 685.015 502.676 685.015C501.545 685.015 494.477 678.796 487.126 670.879C479.776 663.246 472.142 656.743 470.163 656.743C468.184 656.743 466.77 655.613 466.77 653.916C466.77 652.22 463.661 648.545 460.268 645.435C454.896 640.628 454.613 639.78 458.854 639.78C461.681 639.78 480.624 641.759 501.262 644.304C525.011 647.131 541.408 647.696 545.932 646C549.607 644.587 569.963 630.451 591.167 614.336C612.088 598.503 634.706 580.409 641.209 574.472C647.711 568.252 654.779 564.011 656.758 564.577C658.737 565.142 667.219 567.404 675.983 569.949C690.685 574.189 692.664 575.886 714.15 603.309C726.59 619.424 737.616 634.126 738.747 636.105C740.443 638.932 737.333 640.346 726.59 642.042C718.957 643.173 712.454 644.869 712.454 646.283C712.454 647.414 720.653 648.262 730.265 648.262C743.836 648.262 756.841 651.089 784.83 660.702C804.903 667.487 826.673 675.12 832.893 677.382C839.395 680.209 847.029 686.429 851.552 692.649C855.793 698.586 860.882 707.068 862.861 711.308C865.123 715.549 868.233 718.942 870.212 718.942C872.191 718.942 877.562 713.005 882.369 705.654C886.892 698.021 892.264 688.408 893.677 683.602C895.939 677.665 895.656 671.445 893.395 662.398C891.698 655.33 886.044 641.477 880.955 631.299C875.866 621.121 867.102 606.985 861.447 599.634C855.793 592.001 839.112 572.21 824.411 554.964C806.882 534.891 793.877 516.514 787.375 503.509C779.459 486.546 777.762 479.761 777.762 465.908C778.045 456.578 780.872 437.353 790.485 398.055H805.186C813.385 398.055 820.17 397.207 820.17 396.076C820.17 394.662 816.495 392.966 812.254 392.118C804.621 390.139 804.621 390.139 810.275 386.181C813.385 383.636 821.018 379.395 827.238 376.568C833.458 373.741 841.091 372.045 844.201 373.175V373.175ZM1351.68 385.332V399.468C1351.68 411.06 1350.27 414.453 1345.18 417.845C1341.79 420.107 1334.44 422.086 1329.07 422.086C1323.41 422.086 1316.06 420.107 1312.67 417.845C1307.58 414.453 1306.45 411.343 1307.01 403.144C1307.58 394.945 1309.56 391.552 1314.93 389.008C1318.61 387.029 1328.5 385.332 1351.68 385.332ZM1603.3 385.332V399.468C1603.3 411.06 1601.89 414.453 1596.8 417.845C1593.41 420.107 1585.78 422.086 1579.84 422.086C1573.05 422.086 1567.12 420.107 1563.72 416.432C1560.61 413.322 1558.07 407.95 1558.07 404.557C1558.07 400.882 1558.92 396.641 1560.33 395.228C1561.46 393.531 1564.85 390.704 1567.96 389.008C1571.07 387.029 1580.12 385.332 1603.3 385.332ZM2146.13 385.332V399.468C2146.13 412.474 2145.28 413.887 2137.64 417.845C2132.84 420.107 2124.64 422.086 2119.27 422.086C2111.63 422.086 2107.96 420.107 2103.44 414.453C2100.33 409.929 2097.78 404.84 2098.06 402.861C2098.06 400.882 2101.17 396.076 2105.13 392.4C2110.79 386.463 2114.46 385.332 2146.13 385.332V385.332ZM195.642 464.494C198.469 464.494 203.276 467.321 212.04 477.216V470.997C212.04 465.625 213.453 464.777 218.542 466.19C221.935 467.321 236.354 478.913 250.49 491.918C264.343 505.206 279.044 517.645 283.003 519.624C286.678 521.603 316.081 528.106 348.028 533.76C379.693 539.415 407.682 545.069 410.226 546.483C413.619 548.462 413.619 549.027 409.378 550.441C406.551 551.289 404.572 553.268 404.572 554.964C404.572 556.661 410.226 557.226 419.273 556.095C427.472 555.247 449.525 550.724 468.184 546.2C486.844 541.394 508.613 534.891 516.812 531.499C526.707 527.541 532.644 526.41 534.34 528.106C535.471 529.802 538.581 537.718 541.126 545.917C545.649 560.053 545.649 561.467 539.995 579.844C535.754 593.132 534.906 599.634 536.885 601.613C539.147 603.592 545.932 600.482 558.654 591.718C573.356 581.54 580.141 574.189 592.298 554.964C600.78 541.677 611.523 527.258 625.094 513.97L624.811 521.038C624.811 524.996 622.549 540.263 615.198 581.54L581.272 607.833C562.612 622.252 544.801 634.974 541.691 635.822C538.581 636.67 514.267 634.691 439.912 625.927L398.918 607.268C376.3 597.09 355.662 586.346 352.834 583.802C348.594 579.844 347.745 579.561 347.745 583.236C347.745 585.498 349.442 589.173 351.421 590.87C353.4 592.849 354.248 595.111 353.683 595.959C352.834 596.807 343.222 595.393 332.479 592.849C321.452 590.304 311.275 586.346 309.861 584.367C308.165 582.388 305.903 580.692 304.772 580.409C303.641 580.409 302.793 582.671 302.793 585.498C302.793 588.043 302.227 591.152 301.379 592.566C300.531 593.697 294.594 591.152 288.092 586.912C281.589 582.388 275.369 575.886 270.846 564.86L268.301 571.928C265.474 578.996 265.474 578.996 261.233 573.341C258.971 570.231 255.579 565.142 253.6 562.032C249.924 556.661 249.642 556.661 242.291 561.467C238.05 564.011 232.396 565.708 229.286 564.86C225.61 564.011 223.914 561.75 224.48 558.64C225.328 555.813 226.741 551.006 228.155 547.896C230.134 543.09 229.003 543.373 220.521 549.875C215.15 554.116 208.93 557.792 206.668 557.792C204.124 557.792 200.731 556.378 198.752 554.399C196.773 552.42 195.077 547.331 195.077 543.09C195.359 537.436 197.338 534.043 210.909 526.975L202.427 526.692C197.621 526.692 192.249 525.561 190.553 524.431C188.574 523.3 186.878 519.907 186.312 516.797C186.03 513.687 186.03 508.881 186.312 506.337C186.595 502.661 189.705 500.965 208.082 499.551L197.338 494.745C191.401 492.201 186.03 487.394 185.464 484.284C184.616 481.174 185.464 475.52 187.161 471.562C188.857 467.604 192.815 464.494 195.642 464.494V464.494ZM1478.34 651.089L1477.78 667.204C1477.49 682.754 1476.93 683.602 1467.6 687.277C1461.94 689.539 1454.03 690.387 1449.79 689.539C1445.55 688.691 1440.17 685.864 1437.91 683.602C1435.37 681.34 1433.39 675.968 1433.39 671.728C1433.39 667.204 1435.65 661.832 1438.48 659.005C1441.31 656.461 1446.68 653.916 1450.64 653.068C1454.31 652.503 1462.23 651.655 1478.34 651.089V651.089ZM2038.69 651.089V666.639C2038.69 681.623 2038.13 682.188 2028.8 686.429C2023.14 688.691 2016.92 690.67 2014.66 690.67C2012.12 690.67 2007.31 689.256 2003.92 687.56C2000.53 685.581 1996.57 682.754 1995.44 681.057C1994.31 679.361 1993.46 674.838 1993.17 670.879C1993.17 666.921 1995.44 661.832 1998.26 659.288C2001.09 656.461 2005.9 653.916 2009.01 653.068C2012.12 652.503 2020.03 651.655 2038.69 651.089V651.089ZM639.23 784.25C644.036 783.967 654.779 791.035 675.135 807.999C690.967 821.286 704.255 832.878 704.255 834.292C704.255 835.422 702.841 837.684 700.58 839.663C698.601 841.36 683.617 845.6 667.502 848.993C647.146 853.234 635.554 857.192 631.313 861.433C627.638 864.543 626.224 867.935 627.638 868.783C629.052 869.632 627.073 880.092 622.832 893.663C615.481 915.998 614.633 917.128 603.89 921.369C597.67 923.914 590.884 926.458 588.905 927.024C586.644 927.872 585.513 925.327 585.513 921.087C585.513 917.128 584.099 914.584 582.686 915.432C580.989 916.28 579.858 919.39 579.858 922.5C579.858 925.61 578.445 928.72 577.031 929.568C575.335 930.416 556.11 929.285 534.058 927.589C499.849 924.479 493.912 923.066 493.063 919.107C492.498 916.28 490.802 914.019 489.388 914.019C487.692 914.019 486.561 916.563 486.561 919.673C486.561 922.783 482.885 927.589 478.645 930.416C474.404 933.243 468.467 935.222 465.357 934.657C462.247 934.092 457.441 931.547 454.613 929.003C450.655 924.762 450.09 922.5 452.352 916.28C454.048 911.757 455.462 906.668 455.462 904.971C455.462 902.992 450.938 906.102 445.566 912.039C439.912 917.694 433.409 922.217 430.582 921.652C427.755 921.369 425.211 918.259 424.928 914.019C424.362 909.778 426.342 904.406 429.734 900.731C432.844 897.055 434.54 893.663 433.409 892.815C432.279 892.249 426.907 894.794 421.535 898.469C415.881 902.427 408.53 905.537 405.138 905.537C401.745 905.537 398.635 903.841 398.635 902.144C398.635 900.165 404.289 890.553 411.357 880.94C419.839 869.349 426.341 863.129 430.017 863.129C433.127 863.129 437.65 864.26 440.477 865.673C443.305 867.087 466.488 869.914 492.215 871.611C535.471 874.72 539.429 874.72 548.759 869.914C555.827 866.239 557.241 864.543 553.565 863.977C550.738 863.412 548.476 862.846 548.476 862.564C548.476 861.998 553 851.82 568.55 817.894L594.56 803.192C608.978 794.993 623.114 787.36 626.224 786.229C629.617 785.381 635.271 784.25 639.23 784.25V784.25ZM1606.98 868.783C1612.07 868.501 1619.42 871.328 1624.23 875.003C1628.75 878.679 1634.12 885.747 1636.1 890.836C1638.36 895.642 1640.06 904.123 1640.06 909.212C1640.06 914.018 1638.93 922.783 1637.8 927.872C1636.67 933.243 1632.14 941.442 1627.9 945.683C1621.96 951.62 1617.44 953.599 1608.96 953.599C1601.04 953.599 1595.11 951.62 1589.73 947.097C1584.64 942.573 1580.69 935.222 1578.14 925.045C1575.03 912.322 1575.03 907.516 1578.14 895.924C1580.69 887.16 1584.93 879.527 1590.02 875.286C1594.54 871.611 1601.89 868.783 1606.98 868.783V868.783ZM1751.73 869.632C1759.08 870.762 1765.3 873.872 1770.11 879.244C1774.35 883.767 1778.31 892.532 1779.72 899.883C1780.85 906.951 1780.85 917.694 1779.72 923.914C1778.31 930.982 1774.35 938.615 1768.41 944.552C1761.91 951.055 1756.54 953.599 1749.75 953.599C1744.1 953.882 1737.03 951.338 1731.94 947.379C1727.42 943.704 1722.05 936.636 1720.07 931.83C1718.09 926.741 1716.39 917.411 1716.39 911.191C1716.39 904.971 1718.09 895.642 1720.07 890.836C1722.05 885.747 1727.42 878.396 1731.94 875.003C1738.73 869.631 1742.68 868.501 1751.73 869.632Z" fill="white"/>
<path d="M524.728 231.25L538.581 227.857C546.497 226.161 554.414 224.465 556.11 224.465C558.372 224.182 559.22 226.161 558.372 229.271C557.523 231.815 553 235.774 548.476 237.753C541.126 240.58 538.864 240.297 524.728 231.25Z" fill="black"/>
<path d="M560.633 269.417C555.544 269.417 551.304 268.286 551.304 266.59C551.304 265.176 555.544 263.763 560.351 263.763C565.44 264.046 572.79 266.025 583.816 272.527L576.748 271.114C572.79 270.265 565.44 269.417 560.633 269.417Z" fill="black"/>
<path d="M383.651 481.74C376.3 469.583 375.452 466.19 378.562 464.494C380.541 463.08 383.651 462.798 385.064 463.363C386.761 464.211 387.892 466.473 387.609 468.169C387.609 470.148 390.719 479.195 394.677 488.525C399.766 501.248 400.614 504.357 396.939 501.248C394.394 498.986 388.457 490.221 383.651 481.74Z" fill="black"/>
<path d="M433.409 602.744C428.321 599.634 424.08 596.807 424.08 595.959C424.08 595.11 424.362 594.545 424.928 594.545C425.211 594.545 430.017 596.241 435.389 598.503C440.76 600.765 460.268 603.592 478.645 605.006C507.482 606.985 511.723 607.833 511.723 612.356C511.723 614.901 510.875 617.163 509.744 617.163C508.33 617.163 492.781 615.184 474.969 612.639C456.027 609.812 438.498 605.854 433.409 602.744Z" fill="black"/>
</svg>
